<svg width="357" height="309" viewBox="0 0 357 309" fill="none" xmlns="http://www.w3.org/2000/svg">
<path d="M142.075 85.7037C126.016 67.1976 133.963 44.0445 114.692 27.8826C104.069 18.9586 95.3394 25.6207 95.3394 25.6207C95.5452 26.8545 95.8335 28.6639 96.1629 30.5145C69.8099 29.1574 41.7688 76.9853 37.4041 87.5954C67.9982 99.7271 103.863 100.344 129.928 93.3117C133.386 91.7901 145.451 90.8031 142.075 85.7037Z" fill="#082223"/>
<path d="M98.7983 86.3617H79.7336V108.939H98.7983V86.3617Z" fill="#F7CDC6"/>
<path d="M79.7336 86.3617V96.4783C90.4807 100.221 98.7983 96.4783 98.7983 96.4783V86.3617H79.7336Z" fill="#F7CDC6"/>
<path d="M66.1042 60.7823C66.5983 72.6673 70.3042 87.2253 82.6159 91.4612C83.0689 91.6257 83.563 91.7902 84.0571 91.9547C103.904 99.8506 130.216 78.5481 116.175 59.6308C114.528 57.6157 112.922 54.737 112.181 52.5985C105.057 14.4349 65.3218 26.69 66.1042 60.7823Z" fill="#F7CDC6"/>
<path d="M35.3043 85.9093C43.0866 93.1472 61.4101 94.8745 75.9866 96.8484C64.0454 84.4288 66.1866 61.8103 66.1866 61.8103C85.0866 56.8754 92.0866 48.6505 97.1925 36.5187C98.4278 33.1054 98.6748 30.7613 98.6748 30.7613C85.4984 4.72947 49.5925 26.2376 46.4631 47.7046C44.569 53.9555 43.6631 59.4251 37.4866 68.2669C32.916 74.6823 34.0278 81.838 35.3043 85.9093Z" fill="#082223"/>
<path d="M60.0924 64.6068C61.2042 74.8057 73.5571 73.5308 72.5689 63.3319C71.4983 53.1331 59.1042 54.4079 60.0924 64.6068Z" fill="#F7CDC6"/>
<path d="M145.328 221.908C146.275 202.744 133.757 185.883 127.581 167.829C121.281 149.652 121.569 130.2 121.404 110.419C115.269 106.801 97.3982 101.413 98.3864 102.112C94.8041 104.456 83.4806 106.06 78.5394 102.112C70.0159 104.292 62.8923 106.842 55.5629 110.419C55.81 125.43 52.8453 156.356 45.4335 173.34C36.6629 194.519 34.6041 215.04 35.8394 237.988C70.5923 245.884 109.545 245.76 144.998 237.988C145.163 235.274 145.492 229.804 145.328 221.908Z" fill="#075052"/>
<path d="M72.5277 186.87C72.5277 186.87 59.2277 180.414 50.7454 186.87C50.7454 186.87 55.9748 197.686 65.1571 197.809L72.5277 186.87Z" fill="#F7CDC6"/>
<path d="M139.028 219.852C124.822 221.703 102.134 217.426 92.3748 214.095C72.4865 207.556 65.1983 197.069 65.1983 197.069C65.1983 197.069 64.3748 189.009 72.5277 186.829C72.5277 186.829 112.057 193.738 122.804 188.967C127.169 187.035 129.969 173.792 127.581 167.747C118.151 143.772 121.322 110.502 121.322 110.502C164.681 125.595 194.328 206.939 139.028 219.852Z" fill="#079093"/>
<path d="M92.3747 214.136C-12.1312 247.529 -18.5547 148.213 55.563 110.42C55.563 110.42 55.8512 142.497 50.3336 158.905C41.9336 183.868 53.9159 194.149 65.1983 197.151C65.1983 197.11 92.3747 214.136 92.3747 214.136Z" fill="#079093"/>
<path d="M153.481 336.399C153.357 391.218 146.81 449.327 134.704 501.843C121.857 508.464 113.457 501.843 113.457 501.843C103.657 431.52 95.5452 354.864 88.1747 284.993C87.9688 357.619 78.0041 432.754 68.5335 504.31C53.9982 507.271 47.2453 504.639 47.2453 504.639C25.6688 418.977 22.5394 309.544 35.5923 223.183C78.7041 232.971 145.41 221.867 145.41 221.867C151.422 254.355 153.481 303.499 153.481 336.399Z" fill="#075052"/>
<path d="M91.2217 214.506C76.3158 210.229 59.3511 195.301 66.7217 196.781C66.804 196.904 76.5217 207.473 91.5511 212.326C92.7452 212.696 92.457 214.547 91.2217 214.506Z" fill="#1C9093"/>
<path d="M79.8158 101.742C79.8158 101.742 72.3629 100.796 69.1511 104.827C73.5982 109.761 84.4276 123.25 88.4629 104.58C89.8217 119.22 101.516 115.313 107.775 104.703C96.3688 95.6558 95.7923 109.556 79.8158 101.742Z" fill="#079093"/>
<path d="M130.669 499.252C146.604 386.447 150.475 309.01 139.316 244.486C154.592 307.118 151.051 386.9 130.669 499.252Z" fill="#082223"/>
<path d="M88.1748 289.887C87.3924 359.346 78.2101 430.944 69.1513 499.458L61.616 500.075C73.9277 460.184 77.1395 317.317 88.1336 286.104C88.1336 285.898 88.1748 288.653 88.1748 289.887Z" fill="#082223"/>
<path d="M139.975 183.745C137.669 179.55 131.41 174.45 122.598 177.576C109.628 182.84 106.704 190.654 106.704 190.654C111.275 190.736 116.916 191.928 120.745 190.983C122.681 191.641 124.245 193.368 125.275 197.48C126.263 201.798 130.134 199.578 129.475 195.753C130.998 199.824 134.869 197.521 133.428 193.286C138.945 196.37 135.981 186.335 134.128 183.909C134.91 184.526 135.61 185.307 136.269 186.253C139.151 190.489 142.198 187.775 139.975 183.745Z" fill="#F7CDC6"/>
<path d="M35.51 223.224C35.51 223.224 84.7158 232.518 145.328 221.908C145.328 221.908 148.992 225.733 146.975 231.819C146.975 231.819 106.169 245.308 33.9452 234.04C33.9864 234.081 32.4217 227.213 35.51 223.224Z" fill="#082223"/>
<path d="M309.815 159.193C309.815 159.193 306.768 156.972 302.774 153.189C308.497 179.344 310.679 235.109 310.679 235.109C310.679 235.109 267.98 252.093 201.232 232.559C201.232 232.559 205.391 203.895 206.132 198.056C207.038 190.982 207.121 183.415 208.438 175.108C209.427 168.857 209.138 161.619 209.756 154.957C209.921 153.23 210.127 151.503 210.456 149.858C201.48 145.005 187.727 140.235 187.727 140.235C188.88 137.685 190.156 135.053 191.556 132.462C200.656 115.272 214.944 97.6707 235.409 91.6665C236.891 91.2553 239.65 90.3506 243.644 89.5692C250.727 88.2121 261.638 87.184 275.927 89.5692C276.174 89.6103 276.462 89.6514 276.709 89.6926C297.338 93.9284 316.485 106.019 333.697 128.679C333.985 129.049 334.274 129.46 334.562 129.83C336.291 132.133 338.021 134.601 339.668 137.109C338.844 137.191 315.909 140.317 309.815 159.193Z" fill="#079093"/>
<path d="M275.968 89.5692C275.968 89.5692 267.321 101.495 254.679 101.084C242.038 100.673 243.685 89.5692 243.685 89.5692C250.768 88.2121 261.679 87.184 275.968 89.5692Z" fill="#1C9093"/>
<path d="M224.95 153.6L209.797 154.916C209.962 153.189 210.168 151.462 210.497 149.817C201.48 145.005 187.727 140.235 187.727 140.235C188.88 137.685 190.156 135.053 191.556 132.462C191.885 132.586 212.762 139.001 219.556 143.648C226.432 148.336 224.95 153.6 224.95 153.6Z" fill="#1C9093"/>
<path d="M319.862 494.358C328.138 311.724 309.568 214.177 309.568 214.177C309.568 214.177 290.627 170.461 292.356 94.6276C292.356 94.6276 288.444 91.4199 282.968 91.2965C282.968 91.2965 281.732 110.872 283.503 136.122C283.503 136.122 269.132 140.646 250.068 140.646C236.191 140.646 225.074 135.629 225.074 135.629C225.074 135.629 229.315 110.995 235.409 91.6666C235.409 91.6666 228.491 91.6255 226.762 95.3267C226.762 95.3267 214.327 123.497 210.497 149.817C207.244 172.23 201.274 232.518 201.274 232.518C180.315 346.31 194.768 457.881 198.432 494.358C198.927 499.458 199.256 502.213 199.256 502.213C207.368 507.641 219.927 506.366 227.915 504.721C232.403 503.817 235.45 502.789 235.45 502.789C235.409 502.377 235.615 499.375 235.944 494.358C238.662 453.686 251.632 280.387 251.632 280.387C257.232 348.407 276.091 462.569 281.485 494.358C282.391 499.786 282.927 502.789 282.927 502.789C295.609 508.834 320.191 503.2 320.191 503.2C320.068 502.747 319.656 499.622 319.862 494.358Z" fill="#075052"/>
<path d="M235.409 502.789C235.409 502.789 232.362 503.817 227.874 504.721H227.791C227.791 504.721 240.144 330.765 241.997 307.529C243.85 284.294 251.591 280.428 251.591 280.428C251.591 280.428 235.203 499.005 235.409 502.789Z" fill="#082223"/>
<path d="M201.479 230.338C201.479 230.338 250.397 242.717 312.079 230.338C312.079 230.338 313.974 223.882 310.474 219.44C310.474 219.44 254.844 229.968 202.591 219.44C202.591 219.44 199.709 226.103 201.479 230.338Z" fill="#082223"/>
<path d="M175.085 188.556C176.568 214.67 224.333 213.395 208.233 201.757C208.356 201.88 202.962 197.151 202.962 197.151C196.374 189.954 202.591 179.673 207.738 173.052L210.497 149.817C201.48 145.005 191.474 141.468 188.797 140.605C179.697 154.052 172.985 171.407 175.085 188.556Z" fill="#F7CDC6"/>
<path d="M258.797 221.456C262.627 221.497 262.338 218.042 266.127 217.795C307.097 224.005 353.503 203.073 347.244 157.425C345.927 150.063 343.291 143.319 339.709 137.109C338.803 137.233 316.197 140.111 309.897 158.987C320.027 178.234 297.297 195.876 257.48 206.363C245.374 207.185 246.486 220.427 258.797 221.456Z" fill="#F7CDC6"/>
<path d="M243.644 206.075C253.897 199.166 266.127 203.937 266.127 203.937L258.797 221.497C258.797 221.497 255.379 219.564 254.391 222.813C253.815 224.704 249.779 224.622 250.438 221.25C248.421 223.183 245.95 220.674 246.732 218.371C245.662 220.345 242.409 219.358 242.656 217.096C236.521 218.207 239.774 208.666 243.644 206.075Z" fill="#F7CDC6"/>
<path d="M218.156 200.523C211.156 194.766 202.962 197.11 202.962 197.11L198.35 209.283C201.274 209.653 202.756 210.434 203.127 212.984C203.703 216.809 208.232 217.055 208.232 213.354C210.044 215.904 213.38 213.806 213.009 211.216C213.75 213.56 217.621 213.313 217.868 210.887C224.538 213.601 222.232 203.895 218.156 200.523Z" fill="#F7CDC6"/>
<path d="M248.091 84.0586L248.997 90.6385C248.997 90.6385 249.862 96.1492 256.862 95.9847C263.862 95.8202 269.421 88.6645 269.421 88.6645C269.421 88.6645 268.103 82.4136 267.856 79.4938L248.091 84.0586Z" fill="#F7CDC6"/>
<path d="M248.338 85.6213C246.815 75.9981 246.856 63.8253 247.144 59.2604C247.268 58.1912 247.35 57.5332 247.35 57.4098C247.391 57.122 247.432 56.8341 247.515 56.5462C248.132 53.5441 250.027 51.1178 252.58 49.7607C254.35 48.8148 256.409 48.4036 258.55 48.6503C260.65 48.8971 262.544 49.8018 264.027 51.1178C264.109 51.1589 264.15 51.2412 264.191 51.2823C266.209 53.174 267.444 55.8471 267.403 58.7258C267.403 58.8903 267.403 59.0137 267.403 59.1782C267.403 59.3838 267.362 59.5894 267.362 59.7951C266.868 59.5483 267.074 72.2969 268.144 81.4677" fill="#F7CDC6"/>
<path d="M231.003 39.6851C231.003 39.6851 224.662 24.5102 237.427 16.2853L247.68 20.9324L231.003 39.6851Z" fill="#082223"/>
<path d="M278.562 45.895C279.097 55.0658 278.315 65.6759 272.633 73.0784C270.327 76.0804 267.238 78.3012 263.738 79.8228C244.385 90.1862 214.821 71.5568 227.091 50.5421C231.827 43.5921 230.715 34.4213 234.338 27.5535C238.95 16.2031 253.98 13.4067 263.821 19.6576C272.674 25.2916 277.409 34.7503 278.562 45.895Z" fill="#F7CDC6"/>
<path d="M279.591 33.681C287.127 9.70539 263.738 10.4456 263.738 10.4456V10.4868C262.38 9.33527 260.691 8.38941 258.55 7.73141C247.144 4.44145 244.921 0 244.921 0C244.921 0 243.191 6.16868 244.921 12.2962C242.038 10.1989 239.28 7.85479 236.933 5.18169C236.933 5.18169 234.338 8.80065 234.75 13.9412C226.927 13.9412 220.997 18.4238 220.997 18.4238C227.133 28.2114 236.356 28.7461 243.315 27.3478C252.003 33.2286 262.956 29.6097 268.35 24.4691C266.497 26.402 261.803 33.2286 273.209 44.7846L280.991 48.7737C281.074 48.7326 281.65 40.631 279.591 33.681Z" fill="#082223"/>
<path d="M339.709 137.15C338.844 137.192 315.909 140.317 309.856 159.193C309.856 159.193 306.809 156.972 302.815 153.189C302.815 153.189 309.815 130.653 333.738 128.72C334.027 129.09 334.315 129.501 334.603 129.871C336.291 132.174 338.021 134.601 339.709 137.15Z" fill="#1C9093"/>
<path d="M278.764 57.2423C282.334 57.2056 285.191 53.5674 285.145 49.1162C285.099 44.665 282.167 41.0864 278.597 41.1231C275.027 41.1599 272.171 44.7981 272.216 49.2493C272.262 53.7005 275.194 57.2791 278.764 57.2423Z" fill="#F7CDC6"/>
</svg>
