<svg width="24" height="24" viewBox="0 0 24 24" fill="none" xmlns="http://www.w3.org/2000/svg">
<g clip-path="url(#clip0_1_586)">
<g clip-path="url(#clip1_1_586)">
<path d="M6.93179 5.81773C6.5524 5.43833 6.0179 5.24641 5.45182 5.28663C4.90818 5.32527 4.38518 5.57019 3.97915 5.97596L3.62665 6.32846L3.60942 6.31122C3.51281 6.21461 3.38173 6.1603 3.24491 6.1603C3.10808 6.1603 2.97701 6.21461 2.8804 6.31122L2.20151 6.99011C1.54795 7.64393 1.15367 8.48341 1.09179 9.35447C1.02781 10.253 1.32209 11.0773 1.92003 11.6752L5.87011 15.6253L1.26412 19.571C1.26073 19.5738 1.25733 19.577 1.25394 19.5798C0.428566 20.3258 0.0186217 21.0358 0.000605066 21.7504C-0.0134949 22.3111 0.218894 22.8351 0.691765 23.308C1.1508 23.767 1.65892 23.9999 2.20229 23.9999C2.93262 23.9999 3.65798 23.5897 4.41991 22.7455C4.42278 22.7424 4.42591 22.739 4.42878 22.7356C5.74426 21.2005 7.05947 19.6652 8.37469 18.1296L12.3248 22.0797C12.8642 22.6192 13.605 22.9166 14.41 22.9166C15.3516 22.9166 16.2994 22.509 17.0099 21.7985L17.6888 21.1196C17.8901 20.9183 17.8901 20.5919 17.6888 20.3908L17.6715 20.3733L18.024 20.0208C18.4298 19.6151 18.6745 19.0921 18.7134 18.5482C18.7538 17.9769 18.5653 17.4513 18.1823 17.0682L6.93179 5.81773ZM16.2811 21.0695C15.7626 21.5883 15.0805 21.8857 14.4103 21.8857C13.8805 21.8857 13.3987 21.6956 13.0538 21.3509L8.70996 17.0071C8.60838 16.9055 8.46869 16.851 8.3256 16.8564C8.18199 16.8619 8.04726 16.9272 7.95404 17.0361C6.51976 18.7106 5.08522 20.3854 3.65041 22.0596C3.11226 22.6547 2.61145 22.969 2.20229 22.969C1.93883 22.969 1.6832 22.8416 1.42079 22.5792C1.15184 22.3103 1.02416 22.0476 1.03095 21.7766C1.04113 21.3721 1.35551 20.8789 1.93988 20.3493L6.96339 16.046C7.07253 15.9525 7.13755 15.8177 7.14329 15.6744C7.14877 15.531 7.0942 15.3916 6.99263 15.29L2.64879 10.9462C2.26522 10.5629 2.07748 10.0234 2.11978 9.42758C2.16417 8.80405 2.45191 8.19723 2.93027 7.71913L3.24465 7.4045L3.26162 7.42147C3.26162 7.42147 3.26188 7.42173 3.26188 7.42199L16.5777 20.7379C16.5777 20.7379 16.5796 20.7394 16.5804 20.7402L16.5952 20.7551L16.2806 21.0695H16.2811ZM17.6854 18.4751C17.6642 18.7714 17.5256 19.0615 17.2953 19.2921L16.9428 19.6446L4.35567 7.05748L4.70817 6.70498C4.93873 6.47468 5.22883 6.33603 5.52519 6.31488C5.79439 6.29556 6.03331 6.37702 6.20303 6.54675L17.4535 17.797C17.6222 17.9656 17.7044 18.2066 17.6854 18.4751Z" fill="#39AAB2"/>
<path d="M2.325 21.1599C2.18949 21.1599 2.05632 21.2144 1.96049 21.3108C1.86493 21.4063 1.80957 21.539 1.80957 21.6753C1.80957 21.8116 1.86493 21.9434 1.96049 22.0398C2.05632 22.1356 2.18949 22.1907 2.325 22.1907C2.46052 22.1907 2.59369 22.1354 2.68951 22.0398C2.78534 21.9434 2.84044 21.8108 2.84044 21.6753C2.84044 21.5398 2.78534 21.4066 2.68951 21.3108C2.59395 21.2142 2.46052 21.1599 2.325 21.1599Z" fill="#39AAB2"/>
<path d="M11.1466 8.95212C11.2471 9.05291 11.3792 9.10304 11.5111 9.10304C11.643 9.10304 11.7748 9.05265 11.8756 8.95212L19.9217 0.906254C20.1231 0.704937 20.1231 0.378549 19.9217 0.177232C19.7204 -0.024084 19.3943 -0.024084 19.1927 0.177232L11.1466 8.22336C10.9453 8.42468 10.9453 8.75107 11.1466 8.95238V8.95212Z" fill="#39AAB2"/>
<path d="M19.1928 4.07823L14.3165 8.95448C14.1152 9.15579 14.1152 9.48218 14.3165 9.68324C14.4173 9.78377 14.5492 9.83416 14.681 9.83416C14.8129 9.83416 14.9447 9.78377 15.0455 9.68324L19.9218 4.80699C20.1231 4.60568 20.1231 4.27929 19.9218 4.07823C19.7205 3.87692 19.3941 3.87692 19.1928 4.07823Z" fill="#39AAB2"/>
<path d="M22.9695 4.93181C22.7682 4.73049 22.4418 4.73049 22.2405 4.93181L15.048 12.1244C14.8466 12.3257 14.8466 12.6521 15.048 12.8534C15.1487 12.9542 15.2806 13.0043 15.4125 13.0043C15.5443 13.0043 15.6765 12.9539 15.777 12.8534L22.9695 5.66057C23.1709 5.45925 23.1709 5.13287 22.9695 4.93181Z" fill="#39AAB2"/>
</g>
</g>
<defs>
<clipPath id="clip0_1_586">
<rect width="24" height="24" fill="white" transform="matrix(1 0 0 -1 0 24)"/>
</clipPath>
<clipPath id="clip1_1_586">
<rect width="23.1203" height="24" fill="white"/>
</clipPath>
</defs>
</svg>
