<svg width="31" height="31" viewBox="0 0 31 31" fill="none" xmlns="http://www.w3.org/2000/svg">
<g clip-path="url(#clip0_1_611)">
<path d="M18.3651 24.2348C17.9656 24.2348 17.6161 24.1087 17.3164 23.8566C17.0668 23.554 16.9419 23.201 16.9419 22.7975C16.9419 22.4949 17.0168 22.1924 17.1666 21.8898L22.3351 8.3493C22.5848 7.845 22.8844 7.39113 23.234 6.98769C23.6335 6.53382 24.2078 6.30688 24.9568 6.30688H29.4512C29.9006 6.30688 30.2502 6.48339 30.4999 6.8364C30.7995 7.13898 30.8994 7.54242 30.7995 8.04672L28.7021 21.7385C28.6023 22.3941 28.3526 22.974 27.9531 23.4783C27.5536 23.9826 26.9543 24.2348 26.1553 24.2348H18.3651ZM3.0094 24.2348C2.6099 24.2348 2.26034 24.1087 1.96071 23.8566C1.71102 23.554 1.58618 23.201 1.58618 22.7975C1.58618 22.4949 1.66109 22.1924 1.8109 21.8898L7.05432 8.3493C7.25407 7.845 7.52872 7.39113 7.87828 6.98769C8.27778 6.53382 8.85206 6.30688 9.60112 6.30688H14.0955C14.5449 6.30688 14.8945 6.48339 15.1442 6.8364C15.4438 7.13898 15.5437 7.54242 15.4438 8.04672L13.3464 21.7385C13.2965 22.3941 13.0468 22.974 12.5974 23.4783C12.1979 23.9826 11.5986 24.2348 10.7996 24.2348H3.0094Z" fill="#39AAB2"/>
</g>
<defs>
<clipPath id="clip0_1_611">
<rect width="30.1944" height="30.1944" fill="white" transform="translate(0.642578 0.645996)"/>
</clipPath>
</defs>
</svg>
