<svg width="40" height="40" viewBox="0 0 40 40" fill="none" xmlns="http://www.w3.org/2000/svg">
<path d="M20 23.3334H21.6667C23.5 23.3334 25 21.8334 25 20V3.33337H10C7.5 3.33337 5.31668 4.71669 4.18335 6.75002" stroke="#39AAB2" stroke-width="2.5" stroke-linecap="round" stroke-linejoin="round"/>
<path d="M3.33331 28.3334C3.33331 31.1 5.56665 33.3334 8.33331 33.3334H9.99998C9.99998 31.5 11.5 30 13.3333 30C15.1666 30 16.6666 31.5 16.6666 33.3334H23.3333C23.3333 31.5 24.8333 30 26.6666 30C28.5 30 30 31.5 30 33.3334H31.6666C34.4333 33.3334 36.6666 31.1 36.6666 28.3334V23.3334H31.6666C30.75 23.3334 30 22.5834 30 21.6667V16.6667C30 15.75 30.75 15 31.6666 15H33.8166L30.9667 10.0167C30.3667 8.98339 29.2667 8.33337 28.0667 8.33337H25V20C25 21.8334 23.5 23.3334 21.6666 23.3334H20" stroke="#39AAB2" stroke-width="2.5" stroke-linecap="round" stroke-linejoin="round"/>
<path d="M13.3333 36.6667C15.1743 36.6667 16.6667 35.1743 16.6667 33.3333C16.6667 31.4924 15.1743 30 13.3333 30C11.4924 30 10 31.4924 10 33.3333C10 35.1743 11.4924 36.6667 13.3333 36.6667Z" stroke="#39AAB2" stroke-width="2.5" stroke-linecap="round" stroke-linejoin="round"/>
<path d="M26.6666 36.6667C28.5076 36.6667 30 35.1743 30 33.3333C30 31.4924 28.5076 30 26.6666 30C24.8257 30 23.3333 31.4924 23.3333 33.3333C23.3333 35.1743 24.8257 36.6667 26.6666 36.6667Z" stroke="#39AAB2" stroke-width="2.5" stroke-linecap="round" stroke-linejoin="round"/>
<path d="M36.6667 20V23.3333H31.6667C30.75 23.3333 30 22.5833 30 21.6667V16.6667C30 15.75 30.75 15 31.6667 15H33.8166L36.6667 20Z" stroke="#39AAB2" stroke-width="2.5" stroke-linecap="round" stroke-linejoin="round"/>
<path d="M3.33331 13.3334H13.3333" stroke="#39AAB2" stroke-width="2.5" stroke-linecap="round" stroke-linejoin="round"/>
<path d="M3.33331 18.3334H9.99998" stroke="#39AAB2" stroke-width="2.5" stroke-linecap="round" stroke-linejoin="round"/>
<path d="M3.33331 23.3334H6.66665" stroke="#39AAB2" stroke-width="2.5" stroke-linecap="round" stroke-linejoin="round"/>
</svg>
