<svg width="177" height="30" viewBox="0 0 177 30" fill="none" xmlns="http://www.w3.org/2000/svg">
<g clip-path="url(#clip0_35_39)">
<path d="M110.04 0C113.576 0 116.276 0.749508 118.177 2.17144C120.079 3.63274 121.029 5.61721 121.029 8.16423C121.029 9.77477 120.611 11.0852 119.737 12.1348C118.863 13.1828 117.912 13.9323 116.81 14.3817C117.456 14.6064 118.066 14.9065 118.635 15.2805C119.206 15.6544 119.737 16.1415 120.194 16.704C120.65 17.2666 121.029 17.9406 121.296 18.7262C121.562 19.5135 121.714 20.4122 121.714 21.3848C121.714 22.7329 121.409 23.9318 120.84 25.0175C120.268 26.0655 119.471 26.9642 118.444 27.7138C117.416 28.4633 116.201 29.0242 114.755 29.3997C113.348 29.7737 111.79 29.9984 110.04 29.9984C106.846 29.9984 104.412 29.549 102.738 28.688C101.065 27.8269 100.229 26.7035 100.229 25.3914C100.229 24.6042 100.419 23.9301 100.837 23.407C101.216 22.8444 101.711 22.395 102.244 22.0588C102.89 22.5459 103.764 23.033 104.83 23.5201C105.932 24.0072 107.377 24.2696 109.164 24.2696C110.951 24.2696 112.168 23.9695 113.042 23.3332C113.916 22.6968 114.334 21.8358 114.334 20.7484C114.334 19.7365 113.954 18.9509 113.232 18.3884C112.509 17.8258 111.292 17.5273 109.62 17.5273H105.324C105.134 17.2272 104.981 16.8155 104.83 16.3662C104.678 15.9168 104.602 15.3543 104.602 14.7556C104.602 14.0816 104.678 13.519 104.791 13.0696C104.906 12.5826 105.096 12.2086 105.324 11.9085H109.658C111.065 11.9085 112.093 11.6461 112.701 11.1213C113.347 10.5964 113.651 9.88465 113.651 8.94981C113.651 8.01498 113.233 7.26383 112.434 6.70293C111.635 6.14203 110.458 5.8419 108.898 5.8419C107.567 5.8419 106.388 5.99114 105.361 6.329C104.333 6.66685 103.498 7.04078 102.852 7.49016C102.357 7.15231 101.977 6.74065 101.634 6.21747C101.291 5.73037 101.14 5.13175 101.14 4.41997C101.14 2.99639 101.976 1.87295 103.611 1.16116C105.208 0.373934 107.376 0 110.036 0L110.04 0Z" fill="#1E7178"/>
<path d="M137.456 24.232C138.673 24.232 139.585 23.858 140.231 23.1085C140.877 22.359 141.182 21.3487 141.182 20.0367C141.182 18.7246 140.839 17.7144 140.193 17.0403C139.509 16.3662 138.596 15.9923 137.417 15.9923C136.581 15.9923 135.782 16.1793 134.946 16.5171C134.147 16.855 133.501 17.3043 133.045 17.8275V18.7263C133.045 20.5992 133.463 21.9851 134.3 22.8838C135.136 23.7826 136.202 24.232 137.456 24.232ZM146.467 3.97064C146.467 4.60698 146.316 5.16952 146.049 5.73042C145.744 6.29297 145.403 6.70462 144.985 6.96703C144.149 6.5931 143.273 6.29297 142.361 6.06828C141.448 5.84359 140.574 5.73042 139.737 5.73042C137.722 5.73042 136.125 6.29297 134.983 7.45249C133.804 8.61365 133.081 10.2619 132.778 12.4711C133.424 11.984 134.299 11.5723 135.364 11.1229C136.467 10.7113 137.645 10.4866 138.901 10.4866C141.791 10.4866 144.111 11.3099 145.859 12.9205C147.608 14.531 148.484 16.9271 148.484 19.999C148.484 21.3848 148.255 22.6575 147.761 23.8564C147.266 25.0553 146.582 26.1033 145.631 27.0397C144.68 27.9385 143.54 28.6503 142.133 29.1751C140.764 29.6999 139.167 29.9623 137.342 29.9623C133.692 29.9623 130.802 28.7634 128.672 26.3673C126.543 23.9695 125.479 20.45 125.479 15.7676C125.479 13.1091 125.822 10.7867 126.468 8.80062C127.152 6.81615 128.064 5.16788 129.243 3.89356C130.422 2.62087 131.868 1.64667 133.503 1.01033C135.138 0.373985 136.924 0.0361328 138.826 0.0361328C141.222 0.0361328 143.085 0.373985 144.416 1.01033C145.823 1.64667 146.469 2.62087 146.469 3.969L146.467 3.97064Z" fill="#1E7178"/>
<path d="M169.7 14.9804C169.7 11.9463 169.244 9.66165 168.293 8.08883C167.342 6.55374 166.089 5.76651 164.49 5.76651C162.892 5.76651 161.638 6.55374 160.764 8.08883C159.851 9.62393 159.395 11.9463 159.395 14.9804C159.395 18.0145 159.813 20.4483 160.687 21.9474C161.561 23.4824 162.817 24.232 164.49 24.232C166.164 24.232 167.417 23.4824 168.33 21.9474C169.242 20.45 169.699 18.1276 169.699 14.9804H169.7ZM164.567 29.9623C162.704 29.9623 161.03 29.6622 159.472 29.0259C157.913 28.3895 156.619 27.453 155.517 26.2164C154.415 24.9798 153.577 23.407 152.969 21.5341C152.362 19.6611 152.057 17.4897 152.057 14.9804C152.057 12.4711 152.362 10.3357 152.969 8.46441C153.577 6.59146 154.453 5.05636 155.555 3.78203C156.658 2.54543 157.99 1.57287 159.51 0.972608C161.03 0.336264 162.704 0.0361328 164.528 0.0361328C166.353 0.0361328 167.95 0.336264 169.472 0.972608C170.992 1.60895 172.324 2.54543 173.427 3.78203C174.529 5.01864 175.403 6.59146 176.051 8.46441C176.697 10.3374 177.002 12.5088 177.002 14.9804C177.002 17.4519 176.697 19.6627 176.089 21.5341C175.481 23.407 174.606 24.9421 173.503 26.2164C172.401 27.453 171.069 28.4256 169.549 29.0259C168.029 29.6622 166.355 29.9623 164.567 29.9623Z" fill="#1E7178"/>
<path d="M82.1594 11.0065C82.2842 11.4148 82.3658 11.7822 82.4907 12.1086C82.8221 13.0057 83.3199 13.7815 84.1059 14.3128C84.5621 14.6392 85.0999 14.8426 85.6394 14.9656C85.681 14.9656 85.7227 14.9656 85.7643 15.0066C85.7643 15.0066 85.7782 15.0202 85.8059 15.0476C85.6394 15.0886 85.4746 15.1296 85.3497 15.1296C84.314 15.374 83.5264 15.9053 83.0302 16.8844C82.6988 17.5372 82.4091 18.2309 82.0778 18.9247C82.0361 18.9657 82.0361 19.0067 81.9945 19.0887C81.9113 18.7623 81.828 18.4769 81.7464 18.1916C81.4983 17.3748 81.0837 16.6007 80.421 16.0283C79.8832 15.538 79.2188 15.2526 78.5145 15.0902C78.4728 15.0902 78.3896 15.0492 78.308 15.0492C78.4745 15.0082 78.5977 14.9672 78.7226 14.9672C79.7583 14.7228 80.5875 14.1505 81.0837 13.1714C81.4151 12.5186 81.7464 11.8659 82.0361 11.1721C82.1194 11.1311 82.1194 11.0901 82.161 11.0081L82.1594 11.0065Z" fill="#1E7178"/>
<path d="M85.1765 8.90552C85.1282 9.06624 85.0965 9.21221 85.0482 9.34013C84.92 9.69439 84.7285 10.0011 84.4238 10.211C84.2473 10.3406 84.0392 10.4209 83.831 10.4685C83.8144 10.4685 83.7994 10.4685 83.7828 10.4849C83.7828 10.4849 83.7772 10.4904 83.7661 10.5013C83.8294 10.5177 83.8943 10.5341 83.9426 10.5341C84.3439 10.6309 84.6469 10.8408 84.8401 11.2278C84.9683 11.4853 85.0799 11.7592 85.2081 12.0348C85.2247 12.0512 85.2247 12.0676 85.2397 12.0987C85.2714 11.9692 85.303 11.8576 85.3363 11.7445C85.4329 11.4214 85.5927 11.1163 85.8492 10.89C86.0573 10.6965 86.3137 10.5833 86.5868 10.5193C86.6034 10.5193 86.6351 10.5029 86.6667 10.5029C86.6034 10.4865 86.5552 10.4701 86.5069 10.4701C86.1056 10.3734 85.7859 10.147 85.5927 9.75999C85.4645 9.5025 85.3363 9.24337 85.2247 8.96948C85.1931 8.95308 85.1931 8.93668 85.1765 8.90552Z" fill="#1E7178"/>
<path d="M12.7313 1.00537H9.82741L0 28.9947H2.56592L11.2794 3.53271L20.0411 28.9947H22.607L12.7313 1.00537Z" fill="#39AAB2"/>
<path d="M41.9222 16.0251C40.9048 15.4052 39.9857 14.9755 39.0665 14.6425C38.1957 14.308 36.9852 13.9275 35.5332 13.5929C31.0791 12.4481 28.708 11.0656 28.708 8.06262C28.708 5.05966 31.3222 2.86526 35.4366 2.86526C39.5511 2.86526 41.8756 5.01046 41.9239 8.2053H44.3932C44.3449 5.96498 43.5706 4.20027 41.9239 2.86526C40.327 1.53025 38.1474 0.815186 35.4366 0.815186C32.7259 0.815186 30.4497 1.53025 28.7563 2.91282C27.1111 4.2954 26.2869 6.01254 26.2869 8.11018C26.2869 10.5424 27.1578 12.3055 28.9977 13.4978C30.8859 14.6425 32.3862 15.1674 35.2418 15.93C38.244 16.6926 39.9374 17.265 41.2928 18.9346C42.0188 19.7448 42.3102 20.7468 42.3102 21.9392C42.3102 25.2291 39.5994 27.1841 35.4366 27.2792C30.4497 27.2792 27.9337 25.134 27.8854 20.9371H25.4644C25.5609 26.5641 28.8528 29.3768 35.4366 29.3768C38.2923 29.3768 40.5685 28.6618 42.3102 27.2316C44.0052 25.8015 44.8761 23.9417 44.8761 21.7014C44.8761 19.0313 43.9087 17.2191 41.9239 16.0268L41.9222 16.0251Z" fill="#39AAB2"/>
<path d="M53.2982 15.6921H65.45V13.6896H53.2982V3.00789H66.3209V1.00537H50.9753V28.9947H66.6123V26.9921H53.2982V15.6921Z" fill="#39AAB2"/>
<path d="M82.1027 27.1823C76.5846 27.1823 73.0979 23.4627 73.0979 15.2148C73.0979 6.96692 76.1 2.72244 82.1027 2.72244C88.1054 2.72244 91.1076 6.91772 91.1076 15.2148C91.1076 23.5119 87.6225 27.1823 82.1027 27.1823ZM82.1027 0.672363C74.8412 0.672363 70.5819 5.44002 70.5819 15.2148C70.5819 24.2745 74.8412 29.2816 82.1027 29.2816C89.3642 29.2816 93.6235 24.2269 93.6235 15.2148C93.5753 5.44002 89.3642 0.672363 82.1027 0.672363Z" fill="#39AAB2"/>
</g>
<defs>
<clipPath id="clip0_35_39">
<rect width="177" height="30" fill="white"/>
</clipPath>
</defs>
</svg>
