<svg width="159" height="27" viewBox="0 0 159 27" fill="none" xmlns="http://www.w3.org/2000/svg">
<g clip-path="url(#clip0_158_180)">
<path d="M98.8493 0.000244141C102.026 0.000244141 104.451 0.673531 106.159 1.95086C107.867 3.26355 108.721 5.04621 108.721 7.33421C108.721 8.78097 108.346 9.95811 107.561 10.901C106.775 11.8424 105.921 12.5157 104.931 12.9194C105.511 13.1212 106.059 13.3908 106.57 13.7268C107.084 14.0627 107.561 14.5002 107.971 15.0056C108.38 15.5109 108.721 16.1164 108.961 16.8221C109.2 17.5293 109.336 18.3366 109.336 19.2103C109.336 20.4213 109.062 21.4983 108.551 22.4736C108.038 23.415 107.321 24.2224 106.398 24.8957C105.476 25.5689 104.384 26.0728 103.085 26.4102C101.821 26.7461 100.421 26.9479 98.8493 26.9479C95.9804 26.9479 93.7936 26.5442 92.2904 25.7708C90.7871 24.9973 90.0363 23.9881 90.0363 22.8095C90.0363 22.1023 90.2068 21.4968 90.5822 21.0268C90.9232 20.5215 91.3675 20.1178 91.8461 19.8158C92.4265 20.2534 93.2118 20.6909 94.1691 21.1285C95.1593 21.566 96.4576 21.8018 98.0625 21.8018C99.6675 21.8018 100.761 21.5322 101.546 20.9605C102.331 20.3889 102.707 19.6154 102.707 18.6387C102.707 17.7296 102.366 17.0239 101.717 16.5186C101.068 16.0133 99.9741 15.7451 98.4724 15.7451H94.6133C94.4428 15.4755 94.3052 15.1057 94.1691 14.7021C94.0329 14.2984 93.9641 13.793 93.9641 13.2553C93.9641 12.6498 94.0329 12.1445 94.1347 11.7408C94.2379 11.3032 94.4084 10.9673 94.6133 10.6977H98.5068C99.7707 10.6977 100.694 10.462 101.24 9.99052C101.82 9.51908 102.094 8.87967 102.094 8.03991C102.094 7.20014 101.718 6.52538 101 6.02152C100.282 5.51766 99.2247 5.24805 97.8232 5.24805C96.6281 5.24805 95.5691 5.38212 94.6462 5.68561C93.7233 5.98911 92.9724 6.32502 92.3921 6.72869C91.9478 6.4252 91.6068 6.05541 91.2987 5.58543C90.9906 5.14787 90.8544 4.61012 90.8544 3.97072C90.8544 2.69192 91.6053 1.68272 93.0742 1.04332C94.5086 0.336151 96.4561 0.000244141 98.8463 0.000244141L98.8493 0.000244141Z" fill="white"/>
<path d="M123.477 21.7677C124.57 21.7677 125.39 21.4318 125.971 20.7585C126.551 20.0852 126.825 19.1777 126.825 17.9991C126.825 16.8204 126.516 15.9129 125.936 15.3074C125.321 14.7019 124.502 14.366 123.443 14.366C122.692 14.366 121.974 14.5339 121.223 14.8374C120.505 15.1409 119.925 15.5446 119.515 16.0146V16.8219C119.515 18.5044 119.89 19.7493 120.643 20.5567C121.393 21.364 122.351 21.7677 123.477 21.7677ZM131.572 3.56686C131.572 4.13849 131.436 4.64382 131.197 5.14768C130.923 5.65302 130.616 6.02281 130.241 6.25853C129.49 5.92263 128.703 5.65302 127.884 5.45118C127.064 5.24934 126.279 5.14768 125.526 5.14768C123.716 5.14768 122.282 5.65302 121.256 6.69462C120.197 7.7377 119.548 9.21834 119.275 11.2028C119.856 10.7653 120.641 10.3955 121.598 9.99181C122.589 9.62202 123.648 9.42018 124.775 9.42018C127.372 9.42018 129.456 10.1598 131.026 11.6065C132.597 13.0533 133.384 15.2057 133.384 17.9652C133.384 19.2101 133.179 20.3534 132.734 21.4303C132.29 22.5073 131.675 23.4487 130.821 24.2899C129.967 25.0973 128.943 25.7367 127.679 26.2082C126.449 26.6796 125.015 26.9153 123.375 26.9153C120.097 26.9153 117.5 25.8384 115.587 23.6859C113.674 21.532 112.718 18.3703 112.718 14.1641C112.718 11.7759 113.026 9.68979 113.607 7.90565C114.221 6.12299 115.041 4.64235 116.1 3.49761C117.159 2.35435 118.457 1.47923 119.926 0.907596C121.395 0.335965 123 0.0324707 124.708 0.0324707C126.86 0.0324707 128.534 0.335965 129.729 0.907596C130.993 1.47923 131.574 2.35435 131.574 3.56539L131.572 3.56686Z" fill="white"/>
<path d="M152.443 13.457C152.443 10.7314 152.033 8.67912 151.179 7.26625C150.325 5.88727 149.198 5.18009 147.762 5.18009C146.326 5.18009 145.2 5.88727 144.415 7.26625C143.595 8.64524 143.185 10.7314 143.185 13.457C143.185 16.1825 143.561 18.3689 144.346 19.7154C145.131 21.0944 146.259 21.7677 147.762 21.7677C149.266 21.7677 150.392 21.0944 151.212 19.7154C152.031 18.3703 152.441 16.2842 152.441 13.457H152.443ZM147.831 26.9153C146.157 26.9153 144.654 26.6457 143.254 26.0741C141.854 25.5025 140.692 24.6612 139.702 23.5504C138.712 22.4395 137.959 21.0266 137.413 19.3442C136.867 17.6617 136.594 15.7111 136.594 13.457C136.594 11.2028 136.867 9.28464 137.413 7.60363C137.959 5.92115 138.746 4.54217 139.736 3.39743C140.726 2.28658 141.923 1.41293 143.289 0.873711C144.654 0.30208 146.157 0.0324707 147.797 0.0324707C149.436 0.0324707 150.871 0.30208 152.238 0.873711C153.603 1.44534 154.8 2.28658 155.79 3.39743C156.78 4.50828 157.566 5.92115 158.148 7.60363C158.728 9.28611 159.002 11.2367 159.002 13.457C159.002 15.6772 158.728 17.6632 158.182 19.3442C157.636 21.0266 156.849 22.4056 155.859 23.5504C154.869 24.6612 153.672 25.5349 152.307 26.0741C150.941 26.6457 149.438 26.9153 147.831 26.9153Z" fill="white"/>
<path d="M73.8042 9.88721C73.9164 10.2541 73.9897 10.5841 74.1018 10.8772C74.3995 11.6831 74.8467 12.38 75.5527 12.8573C75.9626 13.1505 76.4457 13.3332 76.9303 13.4437C76.9677 13.4437 77.0051 13.4437 77.0425 13.4805C77.0425 13.4805 77.055 13.4928 77.0799 13.5174C76.9303 13.5542 76.7823 13.591 76.6701 13.591C75.7397 13.8105 75.0322 14.2879 74.5865 15.1674C74.2888 15.7538 74.0286 16.377 73.7309 17.0002C73.6935 17.037 73.6935 17.0738 73.6561 17.1475C73.5813 16.8543 73.5065 16.598 73.4332 16.3416C73.2104 15.6079 72.8379 14.9125 72.2426 14.3984C71.7595 13.9579 71.1627 13.7015 70.53 13.5557C70.4926 13.5557 70.4178 13.5188 70.3445 13.5188C70.4941 13.482 70.6047 13.4452 70.7169 13.4452C71.6473 13.2256 72.3922 12.7115 72.8379 11.8319C73.1356 11.2456 73.4332 10.6592 73.6935 10.036C73.7683 9.99918 73.7683 9.96234 73.8057 9.88868L73.8042 9.88721Z" fill="white"/>
<path d="M76.5145 8C76.4711 8.14438 76.4427 8.2755 76.3993 8.39042C76.2841 8.70865 76.1121 8.98415 75.8384 9.17273C75.6798 9.28912 75.4929 9.36131 75.3059 9.40403C75.2909 9.40403 75.2775 9.40403 75.2625 9.41876C75.2625 9.41876 75.2575 9.42368 75.2476 9.4335C75.3044 9.44823 75.3627 9.46296 75.4061 9.46296C75.7666 9.54989 76.0388 9.73846 76.2123 10.0862C76.3275 10.3175 76.4277 10.5635 76.5429 10.811C76.5579 10.8257 76.5579 10.8405 76.5713 10.8685C76.5997 10.7521 76.6282 10.6519 76.6581 10.5502C76.7448 10.26 76.8884 9.98598 77.1188 9.78266C77.3057 9.60882 77.5361 9.50716 77.7814 9.4497C77.7963 9.4497 77.8248 9.43497 77.8532 9.43497C77.7963 9.42024 77.753 9.4055 77.7096 9.4055C77.3491 9.31858 77.0619 9.11527 76.8884 8.76758C76.7732 8.53627 76.6581 8.30349 76.5578 8.05746C76.5294 8.04272 76.5294 8.02799 76.5145 8Z" fill="white"/>
<path d="M11.4366 0.90332H8.82802L0 26.0462H2.30498L10.1323 3.17364L18.003 26.0462H20.308L11.4366 0.90332Z" fill="white"/>
<path d="M37.6589 14.3956C36.745 13.8387 35.9193 13.4527 35.0937 13.1536C34.3114 12.8531 33.224 12.5113 31.9197 12.2107C27.9185 11.1824 25.7885 9.94039 25.7885 7.24283C25.7885 4.54526 28.1369 2.57402 31.8329 2.57402C35.5289 2.57402 37.617 4.50106 37.6604 7.371H39.8786C39.8353 5.35851 39.1397 3.77326 37.6604 2.57402C36.226 1.37477 34.268 0.732422 31.8329 0.732422C29.3978 0.732422 27.3531 1.37477 25.8319 2.61674C24.3541 3.85871 23.6137 5.40123 23.6137 7.28555C23.6137 9.47042 24.396 11.0542 26.0488 12.1253C27.745 13.1536 29.0927 13.6251 31.6579 14.3101C34.3548 14.9952 35.876 15.5094 37.0935 17.0092C37.7457 17.737 38.0074 18.6371 38.0074 19.7082C38.0074 22.6636 35.5723 24.4197 31.8329 24.5052C27.3531 24.5052 25.093 22.5781 25.0496 18.808H22.8748C22.9615 23.8628 25.9186 26.3895 31.8329 26.3895C34.3981 26.3895 36.4429 25.7472 38.0074 24.4625C39.5301 23.1778 40.3124 21.5071 40.3124 19.4946C40.3124 17.0961 39.4434 15.4681 37.6604 14.397L37.6589 14.3956Z" fill="white"/>
<path d="M47.878 14.0965H58.7941V12.2976H47.878V2.70219H59.5764V0.90332H45.7914V26.0462H59.8381V24.2474H47.878V14.0965Z" fill="white"/>
<path d="M73.7533 24.418C68.7963 24.418 65.6642 21.0766 65.6642 13.6675C65.6642 6.25843 68.361 2.4456 73.7533 2.4456C79.1455 2.4456 81.8424 6.21424 81.8424 13.6675C81.8424 21.1208 78.7117 24.418 73.7533 24.418ZM73.7533 0.604004C67.2302 0.604004 63.4041 4.88682 63.4041 13.6675C63.4041 21.8059 67.2302 26.3038 73.7533 26.3038C80.2763 26.3038 84.1025 21.7632 84.1025 13.6675C84.0591 4.88682 80.2763 0.604004 73.7533 0.604004Z" fill="white"/>
</g>
<defs>
<clipPath id="clip0_158_180">
<rect width="159" height="26.9492" fill="white"/>
</clipPath>
</defs>
</svg>
