<svg width="519" height="389" viewBox="0 0 519 389" fill="none" xmlns="http://www.w3.org/2000/svg">
<g clip-path="url(#clip0_46_53)">
<path d="M518.698 425.683V165.568C500.31 173.504 469.03 211.212 456.771 219.931C431.229 238.132 403.284 246.125 373.42 253.596C354.64 258.29 255.118 281.466 257.726 298.848C223.558 306.244 192.185 311.368 157.198 313.082C127.538 314.535 99.8727 320.422 74.4425 336.891C58.141 347.436 2.86527 388.962 -21 425.683H518.679H518.698Z" fill="#D6F0FE"/>
<path opacity="0.3" d="M505.843 229.395C505.843 274.946 468.936 311.871 423.385 311.871C377.835 311.871 340.91 274.946 340.91 229.395C340.91 183.844 377.835 146.938 423.385 146.938C468.936 146.938 505.843 183.863 505.843 229.395Z" fill="#A8BCFF"/>
<path opacity="0.3" d="M322.373 177.212C322.373 234.425 275.983 280.814 218.77 280.814C161.557 280.814 115.168 234.425 115.168 177.212C115.168 119.999 161.538 73.6094 218.77 73.6094C276.002 73.6094 322.373 119.999 322.373 177.212Z" fill="#DA97B8"/>
<path opacity="0.3" d="M487.234 84.4846C487.234 125.974 453.606 159.602 412.117 159.602C370.628 159.602 337 125.974 337 84.4846C337 42.9952 370.628 9.36768 412.117 9.36768C453.606 9.36768 487.234 42.9952 487.234 84.4846Z" fill="#A6E7FF"/>
<path d="M447.176 313.808C447.176 316.249 389.758 318.224 318.907 318.224C248.057 318.224 190.601 316.249 190.601 313.808C190.601 311.368 248.075 309.393 318.907 309.393C389.739 309.393 447.176 311.368 447.176 313.808Z" fill="#B0BCD8"/>
<path d="M175.567 124.768L325.204 9L474.823 124.768H175.567Z" fill="#8AD1FF"/>
<path d="M418.281 30.9279H379.567V110.926H418.281V30.9279Z" fill="#8AD1FF"/>
<path d="M203.363 111.373V314.535H447.046V111.373H203.363ZM357.77 240.256H292.62V180.249C292.62 162.252 307.207 147.664 325.204 147.664C343.201 147.664 357.788 162.252 357.788 180.249V240.256H357.77Z" fill="#8AD1FF"/>
<path d="M327.645 136.076H322.745V261.234H327.645V136.076Z" fill="#8AD1FF"/>
<path d="M387.783 176.262H262.625V181.161H387.783V176.262Z" fill="#8AD1FF"/>
<path d="M387.783 208.548H262.625V213.448H387.783V208.548Z" fill="#8AD1FF"/>
<path opacity="0.4" d="M375.338 101.611C371.966 107.628 372.86 115.49 373.158 122.57C373.289 125.774 372.898 131.941 377.182 131.065C380.275 130.432 380.275 127.004 384.02 126.761C391.304 126.296 396.297 129.966 401.29 121.992C404.364 117.111 406.618 109.286 404.457 103.492C401.29 94.9783 389.627 94.2331 381.915 94.7175C380.35 96.3756 377.071 97.5865 374.891 99.3005L375.319 101.629L375.338 101.611Z" fill="white"/>
<path opacity="0.4" d="M237.81 136.375C237.139 132.816 233.097 106.324 240.94 115.527C242.449 117.279 241.629 120.371 244.927 119.291C246.417 118.788 247.628 114.764 248.075 113.59C249.845 108.97 250.87 104.815 254.596 101.182C258.732 106.734 257.875 115.36 262.123 120.949C262.7 120.949 263.222 121.023 263.818 120.949C264.302 119.775 266.817 113.608 267.73 113.199C270.841 111.783 271.046 116.869 271.382 119.142C271.829 122.197 272.164 125.588 272.649 128.587C273.021 130.823 274.866 136.076 273.71 138.293C271.363 142.765 260.464 142.392 255.993 142.821C250.46 143.361 242.114 144.572 238.76 139.653L237.829 136.393L237.81 136.375Z" fill="white"/>
<path opacity="0.3" d="M384.858 379.964C384.858 381.902 367.215 383.485 345.437 383.485C323.658 383.485 306.015 381.902 306.015 379.964C306.015 378.027 323.677 376.443 345.437 376.443C367.197 376.443 384.858 378.027 384.858 379.964Z" fill="#A8BCFF"/>
<path opacity="0.3" d="M237.605 331.004C237.605 333.035 224.769 334.656 208.952 334.656C193.135 334.656 180.28 333.016 180.28 331.004C180.28 328.992 193.116 327.353 208.952 327.353C224.788 327.353 237.605 328.992 237.605 331.004Z" fill="#A8BCFF"/>
<path opacity="0.3" d="M304.376 326.048C304.376 328.377 290.068 330.259 272.425 330.259C254.782 330.259 240.456 328.377 240.456 326.048C240.456 323.72 254.763 321.838 272.425 321.838C290.086 321.838 304.376 323.72 304.376 326.048Z" fill="#DA97B8"/>
<path opacity="0.3" d="M451.088 325.583C451.088 327.911 436.78 329.793 419.138 329.793C401.495 329.793 387.168 327.911 387.168 325.583C387.168 323.254 401.476 321.372 419.138 321.372C436.799 321.372 451.088 323.254 451.088 325.583Z" fill="#DA97B8"/>
<path d="M262.775 298.029C262.29 298.401 261.601 298.327 261.228 297.842C260.856 297.358 260.93 296.669 261.415 296.296L265.29 293.241C265.774 292.868 266.463 292.943 266.836 293.427C267.209 293.911 267.134 294.601 266.65 294.973L262.775 298.029Z" fill="white"/>
<path d="M262.029 295.327C261.694 294.88 261.079 294.824 260.669 295.234L257.074 298.83C256.664 299.24 256.347 300.022 256.347 300.6V314.349C256.347 314.926 256.813 315.392 257.39 315.392H267.898C268.475 315.392 268.941 314.926 268.941 314.349V305.388C268.941 304.81 268.662 303.972 268.308 303.525L262.029 295.309V295.327Z" fill="white"/>
<path d="M262.383 300.562C262.178 300.301 261.824 300.283 261.601 300.506L259.514 302.593C259.291 302.816 259.086 303.282 259.086 303.618V311.61C259.086 311.945 259.365 312.206 259.682 312.206H265.774C266.109 312.206 266.37 311.927 266.37 311.61V306.412C266.37 306.077 266.202 305.592 265.997 305.332L262.365 300.562H262.383Z" fill="#FFBEC1"/>
<path d="M261.853 294.607L263.614 293.171C263.859 292.97 264.226 293.008 264.427 293.253L266.488 295.779C266.688 296.025 266.651 296.392 266.405 296.592L264.644 298.029C264.399 298.229 264.046 298.18 263.858 297.949L261.797 295.423C261.596 295.177 261.645 294.825 261.876 294.636L261.853 294.607Z" fill="#FA7071"/>
<path d="M404.752 168.547L397.34 327.495L399.759 327.607L407.172 168.66L404.752 168.547Z" fill="#0B1238"/>
<path d="M434.144 168.487L431.725 168.6L439.099 326.132L441.518 326.019L434.144 168.487Z" fill="#0B1238"/>
<path d="M436.277 257.285H402.799V259.706H436.277V257.285Z" fill="#0B1238"/>
<path d="M436.277 232.059H402.799V234.481H436.277V232.059Z" fill="#0B1238"/>
<path d="M436.277 206.834H402.799V209.256H436.277V206.834Z" fill="#0B1238"/>
<path d="M433.837 181.609H404.383V184.03H433.837V181.609Z" fill="#0B1238"/>
<path d="M438.401 282.51H400.675V284.932H438.401V282.51Z" fill="#0B1238"/>
<path d="M439.333 307.754H398.346V310.176H439.333V307.754Z" fill="#0B1238"/>
<path d="M379.996 99.0769C379.623 99.4868 379.269 99.9525 378.915 100.511C378.039 101.89 376.307 103.641 376.214 105.337C376.139 106.697 377.257 108.392 377.723 109.622C378.244 110.982 378.971 114.819 380.424 115.304C382.119 115.881 384.336 113.236 385.622 112.509C387.559 111.41 390.261 111.224 392.459 111.54C394.359 111.82 397.117 113.143 398.831 111.54C400.191 110.274 399.781 106.79 399.445 105.02C399.203 103.828 399.073 101.555 398.272 100.567C397.266 99.3377 394.956 99.375 393.614 98.667C391.751 97.6796 391.025 97.2325 388.77 97.0276C385.044 96.6736 382.324 96.5618 380.033 99.0583L379.996 99.0769Z" fill="white"/>
<path d="M436.874 140.343C441.699 139.02 445.574 157.557 446.822 160.687C449.356 167.599 453.361 176.932 454.665 183.378C452.057 184.105 452.374 184.124 449.915 185.092C446.58 177.324 445.108 172.741 441.717 167.617C439.053 163.593 437.768 159.364 434.06 156.607L436.892 140.343H436.874Z" fill="#F5BFA6"/>
<path d="M433.222 137.921C433.222 137.921 438.942 137.306 441.811 143.92C444.68 150.533 446.673 155.824 446.673 155.824C446.673 155.824 442.388 158.656 439.966 165.251L434.377 157.911C434.377 157.911 434.843 139.244 433.092 137.567L433.222 137.902V137.921Z" fill="#DFE9FF"/>
<path d="M432.142 127.451C426.702 130.655 431.098 139.653 433.297 144.05C429.123 143.379 424.578 142.485 420.33 142.969C420.2 137.79 421.262 130.729 419.753 126.91L432.142 127.451Z" fill="#F5BFA6"/>
<path d="M416.548 137.809C414.294 139.318 412.543 141.982 412.17 144.292C411.369 149.397 413.381 153.868 413.884 158.787C414.07 160.556 414.443 162.159 414.853 163.929C415.766 167.878 416.418 171.809 415.728 175.796C414.052 185.428 423.125 190.439 431.62 183.993C435.719 180.882 433.837 176.821 435.122 172.312C436.464 167.58 438.662 163.146 439.948 158.414C441.214 153.794 441.065 149.732 440.544 145.056C440.264 142.56 439.314 140.79 437.936 138.852C435.998 136.095 433.371 136.039 430.614 136.486C429.179 136.71 429.552 137.082 428.099 137.269C426.59 137.474 423.255 137.474 421.914 136.952C420.069 136.225 418.169 136.71 416.529 137.79L416.548 137.809Z" fill="white"/>
<path d="M433.967 136.188C433.967 136.188 437.302 161.358 418.355 177.51L421.131 178.013C421.131 178.013 437.19 164.04 435.365 136.524L433.967 136.17V136.188Z" fill="#3D4166"/>
<path d="M418.709 136.766C418.709 136.766 431.042 158.656 430.465 176.355L432.402 176.858C432.402 176.858 431.508 155.75 419.827 136.095L418.709 136.747V136.766Z" fill="#3D4166"/>
<path d="M425.77 130.301C422.193 135.015 414.89 129.351 415.058 125.401C415.393 117.782 420.796 114.391 420.796 114.391C424.708 110.087 426.534 109.882 430.334 111.41C430.334 111.41 436.315 116.384 425.751 130.32L425.77 130.301Z" fill="#F5BFA6"/>
<path d="M414.909 222.073C416.436 225.52 417.871 228.985 419.138 232.469C415.654 233.233 410.158 232.991 406.953 231.37C407.717 228.613 411.145 228.333 413.455 228.594C412.412 226.545 411.127 224.477 409.692 222.446L414.89 222.073H414.909Z" fill="#F5B29C"/>
<path d="M435.514 214.882C434.545 230.904 434.284 247.354 431.471 262.762C428.08 261.644 423.46 258.644 421.522 255.645C423.59 253.67 426.683 255.161 428.546 256.539C428.975 249.46 428.304 240.964 427.018 233.978C426.124 229.078 427.633 216.447 426.068 211.454L435.532 214.863L435.514 214.882Z" fill="#F5B29C"/>
<path d="M411.928 228.538C411.928 228.538 412.133 228.575 412.245 228.594C412.245 228.594 412.096 228.538 411.928 228.538Z" fill="#2E3054"/>
<path d="M418.579 229.73C418.579 229.73 411.332 230.923 411.183 229.563C411.089 228.762 411.443 228.594 411.704 228.594C409.692 228.65 407.531 229.246 406.953 231.351C411.089 234.053 419.138 232.469 419.138 232.469C419.138 232.469 419.1 231.817 418.97 231.482L418.579 229.73Z" fill="#2E3054"/>
<path d="M427.354 255.719C427.354 255.719 427.503 255.85 427.596 255.943C427.596 255.943 427.503 255.813 427.354 255.719Z" fill="#2E3054"/>
<path d="M432.253 260.023C432.253 260.023 425.733 257.545 426.31 256.278C426.646 255.533 427.037 255.552 427.279 255.682C425.472 254.676 423.236 254.099 421.616 255.645C423.534 258.644 428.676 262.072 432.067 263.19C432.142 262.818 432.272 262.594 432.458 261.793L432.253 260.004V260.023Z" fill="#2E3054"/>
<path d="M415.337 147.012C415.337 147.012 415.114 171.697 418.597 176.597L416.511 175.665C416.511 175.665 409.767 154.464 412.561 145.149L415.356 147.012H415.337Z" fill="#3D4166"/>
<path d="M416.455 174.697C416.455 174.697 394.173 195.078 393.279 199.251C392.385 203.425 411.574 227.495 411.574 227.495L418.337 225.911L406.804 203.033L422.323 195.581C422.323 195.581 426.366 250.373 426.254 252.646C426.143 254.9 434.899 254.602 435.216 253.037C435.532 251.491 443.282 199.605 434.545 176.187C434.545 176.187 420.33 176.802 416.436 174.697H416.455Z" fill="#3D4166"/>
<path d="M435.495 117.409C436.482 121.824 434.414 129.146 430.446 131.661C423.59 136.021 420.703 127.004 421.429 121.824C425.546 120.725 421.355 119.123 419.548 119.067C417.126 118.993 415.449 118.955 415.169 115.993C415.02 114.391 417.629 111.205 419.343 113.087C417.629 111.205 420.311 109.044 422.156 108.727C424.075 108.411 429.012 109.957 430.856 110.739C433.483 111.839 434.917 114.782 435.495 117.409Z" fill="#2E3054"/>
<path d="M387.634 112.789C386.852 116.198 392.236 128.997 396.26 133.096C398.98 135.89 419.082 153.589 419.305 142.243C419.417 135.816 409.059 133.673 405.109 129.91C402.464 127.376 399.017 122.476 396.521 119.868C394.006 117.241 394.173 114.503 392.422 111.391C391.397 111.82 387.634 112.807 387.634 112.807V112.789Z" fill="#F5BFA6"/>
<path d="M418.299 137.306L407.121 130.32C407.121 130.32 400.75 136.375 403.395 141.498C403.395 141.498 415.654 150.198 419.082 146.006C422.51 141.815 418.299 137.306 418.299 137.306Z" fill="#DFE9FF"/>
<path d="M394.583 115.453C394.583 115.453 390.112 118.452 387.001 118.452C386.684 114.838 385.119 111.69 384.243 108.243C383.945 107.069 383.368 105.97 382.976 104.871C382.343 103.12 380.871 101.07 380.983 99.0956C382.436 99.3192 383.573 102.952 384.56 103.995C384.728 102.449 383.107 95.2951 384.132 95.2392C385.156 95.1833 385.659 100.083 386.721 102.002C386.721 100.735 386.963 99.58 387.131 98.3877C387.28 97.4562 387.243 94.8479 388.044 94.9784C388.845 95.1274 388.435 97.7915 388.547 98.8162C388.621 99.5986 388.454 101.201 389.05 101.704C389.404 100.083 390.429 95.7422 391.155 95.8167C391.882 95.8912 391.267 99.1515 390.95 100.735C390.652 102.207 390.447 103.809 390.54 105.393C391.192 105.188 392.124 103.213 392.515 102.598C392.85 102.449 393.223 102.263 393.614 102.337C393.763 104.144 392.515 105.598 392.236 107.33C392.087 108.28 392.049 109.137 392.347 110.069C392.496 110.553 394.713 115.341 394.583 115.434V115.453Z" fill="#FA7071"/>
<path d="M447.474 182.484C447.474 182.484 448.257 181.72 450.492 180.006C452.728 178.274 453.995 178.143 453.995 178.143C453.995 178.143 454.386 182.018 456.566 184.515C458.745 187.011 460.757 194.91 460.441 196.01C460.124 197.109 458.969 194.463 456.64 191.035C456.64 191.035 459.826 196.308 458.727 197.09C457.628 197.873 454.386 191.967 453.138 189.489C453.138 189.489 453.529 192.675 452.597 193.439C452.597 193.439 450.977 192.824 450.809 189.564C450.641 186.303 447.474 182.503 447.474 182.503V182.484Z" fill="#FA7071"/>
<path d="M458.652 191.11C458.652 191.11 460.739 195.302 461.298 195.153C461.857 195.004 461.074 189.489 457.572 186.918C454.069 184.347 458.652 191.11 458.652 191.11Z" fill="#FA7071"/>
<path d="M287.217 300.357C287.217 300.711 286.882 300.991 286.472 300.991H282.932C282.523 300.991 282.187 300.711 282.187 300.357V299.072C282.187 298.718 282.523 298.42 282.932 298.42H286.472C286.882 298.42 287.217 298.699 287.217 299.072V300.357Z" fill="white"/>
<path d="M282.392 300.357C282.392 300.357 279.355 318.075 279.15 319.025C278.946 319.975 279.523 321.335 284.572 321.372H284.851C289.9 321.316 290.478 319.956 290.273 319.025C290.049 318.056 287.236 300.357 287.236 300.357H282.411H282.392Z" fill="#FFBEC1"/>
<path d="M287.217 300.357H285.317L285.205 321.372C289.9 321.26 290.459 319.938 290.235 319.025C290.012 318.056 287.199 300.357 287.199 300.357H287.217Z" fill="#FFD7DF"/>
<path d="M286.081 300.357H283.547L281.461 321.111C282.243 321.279 283.249 321.372 284.572 321.391H284.851C286.174 321.391 287.199 321.279 287.963 321.111L286.081 300.357Z" fill="#FFBEC1"/>
<path d="M287.05 298.699L287.199 297.432C288.223 298.513 289.9 298.923 291.521 298.383C291.8 298.289 292.08 298.159 292.322 298.01C292.62 297.898 292.899 297.749 293.16 297.582C291.39 297.842 289.676 297.209 288.689 295.961L291.036 294.06L290.273 292.495L283.286 294.731H283.174L282.373 298.737L287.031 298.699H287.05Z" fill="#3D4166"/>
<path d="M251.745 296.669L254.652 315.988C254.913 317.367 255.602 318.391 256.217 318.28L257.465 318.056C258.08 317.944 258.359 316.733 258.117 315.355L253.981 296.259L251.745 296.669Z" fill="#FA7071"/>
<path d="M242.374 286.217C246.045 286.478 247.2 291.247 247.703 293.446C248.206 295.625 249.361 297.898 252.807 297.265L253.199 297.19C256.645 296.557 256.925 294.042 256.608 291.806C256.291 289.589 255.695 284.708 259.03 283.162L259.123 283.013C258.974 282.23 257.726 281.746 255.863 281.597C255.229 282.417 254.428 283.739 254.428 285.267C254.428 285.267 253.813 283.329 253.944 281.56C252.789 281.597 251.522 281.727 250.199 281.969C248.69 282.249 247.293 282.621 246.119 283.069C246.678 283.683 247.386 284.708 247.535 286.012C247.535 286.012 246.268 284.447 244.741 283.646C243.064 284.447 242.095 285.342 242.225 286.105L242.374 286.198V286.217Z" fill="#3D4166"/>
<path d="M247.665 293.203C247.665 293.203 247.703 293.371 247.721 293.427L247.833 293.613C247.833 293.613 252.826 290.651 256.682 292.29C256.682 292.123 256.664 291.955 256.627 291.806C252.789 290.316 248.224 292.887 247.665 293.203Z" fill="white"/>
<path d="M281.535 316.323V299.184C281.535 297.898 280.492 296.873 279.225 296.873C278.312 296.873 277.641 296.203 277.641 295.383V293.147C277.641 292.328 276.971 291.657 276.151 291.657H272.704C271.885 291.657 271.214 292.328 271.214 293.147V295.383C271.214 296.203 270.543 296.873 269.724 296.873C268.364 296.873 267.32 297.917 267.32 299.184V316.323H281.572H281.535Z" fill="#3D4166"/>
<path d="M277.641 293.856V293.148C277.641 292.607 277.343 292.142 276.896 291.881H271.941C271.493 292.142 271.195 292.607 271.195 293.148V293.856H277.641Z" fill="#FFBEC1"/>
<path d="M277.325 292.495V289.738C277.325 289.086 276.803 288.583 276.17 288.583H272.686C272.034 288.583 271.531 289.105 271.531 289.738V292.495H277.343H277.325Z" fill="#DFE9FF"/>
<path d="M278.48 298.625H270.338V312.374H278.48V298.625Z" fill="#DFE9FF"/>
<path d="M295.918 305.201C295.918 305.201 289.118 327.744 289.956 326.663H264.414H279.728H254.186C255.043 327.744 248.224 305.201 248.224 305.201H295.88H295.918Z" fill="#FA7071"/>
<path d="M248.56 306.226C248.709 306.71 248.895 307.344 249.119 308.089H295.042C295.266 307.344 295.452 306.71 295.601 306.226H248.56Z" fill="#FFD7DF"/>
<path d="M270.897 305.145C270.897 305.145 265.793 306.412 266.221 315.243L254.298 316.919C254.298 316.919 247.498 306.822 253.441 304.717C253.441 304.717 267.488 303.45 270.897 305.145Z" fill="#FFBEC1"/>
<path d="M266.556 304.363C266.556 304.363 261.452 305.63 261.88 314.46L249.957 316.137C249.957 316.137 243.157 306.04 249.1 303.934C249.1 303.934 263.147 302.667 266.556 304.363Z" fill="#DFE9FF"/>
<path opacity="0.3" d="M108.701 372.221C108.701 375.015 92.2133 377.288 71.8505 377.288C51.4877 377.288 35 375.015 35 372.221C35 369.426 51.5063 367.153 71.8505 367.153C92.1947 367.153 108.701 369.426 108.701 372.221Z" fill="#A8BCFF"/>
<path opacity="0.3" d="M101.23 371.606C94.3367 376.226 86.7356 385.579 100.28 387.46C105.664 388.205 108.347 384.964 111.905 384.163C114.606 383.548 117.177 385.131 119.841 384.647C122.301 384.2 124.965 382.784 120.829 381.741C124.331 379.617 142.086 380.53 140.335 372.053C139.086 365.942 120.885 366.818 116.562 368.811L101.193 371.606H101.23Z" fill="#A8BCFF"/>
<path d="M87.6856 243.728C91.0949 244.567 94.1689 251.124 95.1563 253.453C96.479 256.564 100.485 272.195 93.61 272.4C89.4555 272.512 85.9902 264.538 84.6861 261.744C82.7672 257.645 80.9415 249.354 84.0341 245.386C85.245 243.84 86.4933 243.43 87.6856 243.728Z" fill="#B6D2F6"/>
<path d="M125.337 363.968C125.337 363.968 136.199 366.632 136.422 368.905C136.646 371.177 107.527 382.877 107.527 382.877C107.527 382.877 99.2923 380.064 97.2988 376.822C95.3054 373.581 119.916 365.16 125.337 363.949V363.968Z" fill="white"/>
<path d="M123.53 364.899C123.53 364.899 132.1 367.023 132.268 368.849C132.435 370.674 109.371 380.194 109.371 380.194C109.371 380.194 102.869 377.959 101.304 375.351C99.7394 372.742 119.227 365.886 123.512 364.899H123.53Z" fill="#FA7071"/>
<path d="M90.4616 366.986C90.6479 369.985 95.5849 371.233 97.1312 373.562C95.5477 374.196 89.9586 373.916 88.4123 372.873C86.2698 371.457 87.872 367.88 85.3942 365.812L90.4616 366.967V366.986Z" fill="#5C75C3"/>
<path d="M59.8154 366.054C59.6477 368.383 60.4861 370.656 60.3557 373.059C56.6855 373.543 53.5929 374.251 49.811 374.046C50.6866 371.848 52.6241 371.438 54.6548 370.134C57.9151 368.029 56.3502 366.557 57.5239 363.539L59.8154 366.054Z" fill="#5C75C3"/>
<path d="M84.5004 284.286L91.4495 367.395L84.6122 368.01L72.5026 308.077L61.5853 369.035L55.754 368.644C55.754 368.644 55.3069 330.768 55.5305 319.013C55.7541 307.257 55.0834 290.918 60.2439 283.932C60.2439 283.932 77.3464 288.18 84.5191 284.267L84.5004 284.286Z" fill="#3D4166"/>
<path d="M67.3227 243.822C67.7699 243.71 68.3101 243.598 68.9436 243.412C71.6077 242.685 72.9118 241.474 74.1414 239.22C74.4767 238.587 75.7808 233.78 76.3211 233.687C78.3704 233.333 81.7052 232.606 83.2143 234.19C84.7792 235.829 84.4066 240.114 85.1891 242.182C85.6176 243.319 86.7354 244.101 87.2012 245.126C89.0269 249.168 84.537 255.801 83.177 259.564C82.2828 262.023 81.5748 266.457 78.7803 267.78C72.6323 270.668 68.6455 256.881 67.6953 253.77C67.0247 251.609 65.9627 249.485 65.6646 247.231C65.3107 244.585 65.7764 244.213 67.3414 243.822H67.3227Z" fill="#ECB49F"/>
<g style="mix-blend-mode:multiply">
<path d="M85.2265 242.461C85.152 242.219 85.0588 242.033 85.0029 241.865C84.3136 239.816 84.6303 235.568 83.2331 233.947C82.2457 232.792 80.364 232.885 78.7246 233.146C78.0353 234.115 77.2528 235.345 76.7311 236.127C76.8988 236.5 77.0851 236.891 77.3273 237.301C78.9668 240.077 82.2457 243.076 85.2079 242.48L85.2265 242.461Z" fill="#ECB49F"/>
</g>
<path d="M77.6439 237.245C77.234 236.816 76.8614 236.369 76.6006 235.941C74.5327 232.792 76.8242 225.825 78.6499 222.788C80.6993 219.397 83.6615 218.373 86.8659 219.118C94.6533 220.906 92.4363 235.624 87.2198 239.909C84.5184 242.126 80.0658 239.779 77.6439 237.245Z" fill="#ECB49F"/>
<path d="M83.4939 236.462C83.4939 236.462 85.804 238.605 89.0457 237.077C89.0457 237.077 86.0835 242.722 83.4939 236.462Z" fill="white"/>
<path d="M75.2966 233.854C74.5327 229.644 73.2845 226.831 73.7689 223.067C74.3092 218.913 78.8922 215.839 82.8977 216.007C86.2325 216.156 90.1821 218.298 92.3432 220.925C93.5169 222.322 94.3553 224.018 94.0572 225.936C93.6287 228.656 92.7903 229.029 91.2627 229.159C90.8714 229.197 89.0457 228.675 88.7662 228.507C89.232 232.83 83.8665 229.085 82.3947 228.899C79.2089 228.489 78.2215 231.917 76.3026 233.631L75.2966 233.873V233.854Z" fill="#2E3054"/>
<path d="M86.1213 292.241C83.8484 292.167 98.6221 246.746 85.8977 243.356C85.8977 243.356 87.8352 247.231 79.6566 247.566C71.4966 247.901 71.3475 242.499 71.3475 242.443C71.3289 241.381 62.4237 244.306 61.8089 244.79C55.8658 249.541 61.6785 261.147 60.3371 268.32C58.9398 275.716 56.0521 283.988 56.108 291.552C56.108 291.552 61.4922 290.062 70.5464 291.049C79.6007 292.036 86.1399 292.223 86.1399 292.223L86.1213 292.241Z" fill="#DFE9FF"/>
<path d="M67.0993 242.499C67.0993 242.499 69.8566 248.982 69.0555 254.198L70.7881 254.627C70.7881 254.627 71.8127 246.281 68.9809 242.555L67.0993 242.499Z" fill="#3D4166"/>
<path d="M69.1118 253.602C69.1118 253.602 68.9627 281.753 57.5983 291.962L81.0724 293.732C81.0724 293.732 86.5869 265.731 86.885 255.521L69.1118 253.602Z" fill="#3D4166"/>
<path d="M114.737 371.438C114.364 371.438 113.992 371.196 113.861 370.824L69.2046 248.721C69.0369 248.237 69.2791 247.697 69.7635 247.529C70.2479 247.361 70.7882 247.603 70.9558 248.088L115.612 370.19C115.78 370.674 115.538 371.215 115.053 371.382C114.942 371.42 114.83 371.438 114.737 371.438Z" fill="#FA7071"/>
<path d="M66.7639 273.406C70.8812 271.674 85.3568 274.319 81.1278 265.619C79.2461 261.725 75.8927 266.215 73.0609 267.24C69.931 268.376 66.4286 268.078 66.3727 272.363L66.7639 273.406Z" fill="#F5B29C"/>
<path d="M64.1561 261.632C63.5041 264.967 59.1446 272.4 59.1446 272.4C59.1446 272.4 65.9819 268.991 71.2542 267.426L74.0488 273.946C74.0488 273.946 55.6235 284.491 53.2388 282.33C49.5501 278.995 52.5309 263.253 53.0712 258.67C53.7232 253.118 55.8843 245.48 62.3304 244.38C65.3112 249.28 65.3112 255.67 64.1375 261.632H64.1561Z" fill="#B6D2F6"/>
<path d="M92.6786 282.479C89.8281 285.851 88.6358 300.047 80.9974 293.732C77.5881 290.918 82.9909 289.018 84.7794 286.652C86.7542 284.044 87.3876 280.709 91.7098 281.827L92.6599 282.479H92.6786Z" fill="#F5B29C"/>
<path d="M85.1147 286.056L89.5859 287.77C95.0446 282.442 96.2183 275.474 97.3547 268.339C97.6528 266.457 93.6287 265.544 92.6972 265.861C90.6665 266.513 90.3684 265.544 89.7536 270.835C89.5487 272.605 86.7541 283.429 85.1333 286.056H85.1147Z" fill="#B6D2F6"/>
<path d="M87.6857 243.728C87.6857 243.728 88.9525 250.342 86.6237 256.248L85.0775 255.633C85.0775 255.633 87.5553 246.933 86.3629 243.505L87.7043 243.728H87.6857Z" fill="#3D4166"/>
<path d="M240.029 131.783L239.978 135.36L270.063 135.785L270.114 132.208L240.029 131.783Z" fill="#FA7071"/>
<path d="M265.755 137.977C264.265 138.871 262.421 138.48 260.334 138.387C257.614 138.256 254.782 138.368 252.043 138.368H242.449C239.468 138.368 239.524 136.393 240.959 134.828C242.412 133.245 244.07 132.835 246.194 132.835C249.398 132.835 252.584 132.835 255.788 132.835C258.806 132.835 261.806 132.295 264.824 132.481C267.711 132.649 268.606 134.251 267.134 136.598C266.724 137.25 266.258 137.716 265.755 138.014V137.977Z" fill="white"/>
<path d="M240.977 238.729C240.977 238.729 240.903 238.729 240.866 238.729C240.344 238.654 239.971 238.188 240.027 237.667L252.919 134.511C252.994 133.99 253.46 133.617 253.981 133.692C254.503 133.748 254.875 134.232 254.819 134.754L241.927 237.909C241.872 238.393 241.462 238.747 240.977 238.747V238.729Z" fill="#3D4166"/>
<path d="M220.205 218.757C220.205 218.757 225.216 229.022 224.508 233.568L213.516 253.149L211.132 251.006C211.132 251.006 218.77 233.568 218.286 220.676L220.205 218.757Z" fill="#3D4166"/>
<path d="M219.012 216.838C219.012 216.838 226.893 218.757 234.289 212.777L242.17 195.115L246.715 196.792C246.715 196.792 242.412 211.119 240.269 215.18C238.127 219.242 221.527 227.607 221.527 227.607C221.527 227.607 216.628 218.776 219.012 216.857V216.838Z" fill="#F5B29C"/>
<path d="M201.407 214.957C197.289 213.261 190.564 233.196 189.39 235.934C187.006 241.561 181.715 245.51 179.852 251.043C182.087 251.975 181.1 251.77 183.186 252.888C187.956 246.926 190.992 243.312 194.402 239.045C197.271 235.468 198.948 231.407 201.258 227.867L201.407 214.957Z" fill="#F5B29C"/>
<path d="M208.169 204.878C210.945 208.492 206.884 215.702 204.872 219.223C207.499 219.26 210.386 219.149 212.864 220.192C213.758 215.683 214.243 209.349 215.752 206.256L208.188 204.878H208.169Z" fill="#F5B29C"/>
<path d="M186.763 249.311C183.652 253.614 183.801 254.266 183.671 255.85C183.559 257.34 183.838 259.017 183.056 260.246C182.292 259.501 181.957 258.328 181.64 257.377C180.373 257.415 180.299 258.682 179.945 259.688C179.721 260.321 179.33 262.65 178.715 262.762C178.1 262.873 178.715 259.688 178.641 258.179C177.821 259.129 176.237 262.147 175.827 261.7C175.418 261.253 177.448 258.03 177.69 256.483C176.219 257.862 174.132 260.34 173.61 260.06C173.089 259.799 176.629 256.278 176.293 256.017C175.976 255.757 172.94 258.477 172.679 257.694C172.418 256.912 176.07 254.9 177.336 253.633C178.734 252.254 180.56 248.584 181.994 245.715L186.763 249.292V249.311Z" fill="#FA7071"/>
<path d="M240.493 197.743C242.505 194.054 244.033 190.719 245.933 188.334C247.833 185.95 248.69 186.453 249.174 186.415C250.907 186.229 251.801 188.111 252.174 189.545C252.845 192.172 252.938 192.377 250.814 193.812C247.498 196.029 247.181 197.258 245.914 200.835L240.493 197.761V197.743Z" fill="#FA7071"/>
<path d="M217.354 331.321C219.217 331.432 229.352 330.017 225.924 327.446C223.688 325.75 218.546 326.03 216.199 327.315L217.354 331.339V331.321Z" fill="#2E3054"/>
<path d="M216.087 315.709C215.398 315.653 214.541 315.895 213.535 316.547C209.865 318.894 212.324 324.893 213.609 327.893C214.969 331.041 221.956 332.681 222.459 327.837C222.552 326.887 218.435 327.166 217.969 327.166C219.143 327.129 220.26 316.007 216.087 315.69V315.709Z" fill="#F5B29C"/>
<path d="M190.788 329.942C193.955 329.551 199.73 329.719 201.668 326.794C199.302 325.862 197.867 325.601 195.464 326.16C195.743 326.086 195.333 319.714 195.352 319.099C195.445 316.435 195.613 313.771 195.874 311.107C196.432 305.481 186.111 312.262 190.788 329.924V329.942Z" fill="#F5B29C"/>
<path d="M200.494 214.453C200.494 214.453 196.079 214.938 191.309 227.588C191.309 227.588 192.986 232.841 196.805 232.841C196.805 232.841 203.661 217.844 201.705 215.05L200.513 214.453H200.494Z" fill="#DFE9FF"/>
<path d="M222.105 233.55C220.186 237.853 215.789 246.032 215.417 249.553C215.063 252.869 212.902 257.508 214.709 256.726C217.578 255.459 209.958 259.52 207.07 259.464C203.437 259.39 199.581 257.881 197.159 255.105C194.16 251.658 195.594 250.28 196.395 243.778C198.519 236.829 195.892 229.321 197.718 222.353C198.426 219.633 198.873 216.28 201.668 215.069C207.368 212.609 206.81 216.391 216.348 216.149C218.416 216.093 218.491 216.633 220.652 218.068C222.794 219.503 223.987 229.283 222.086 233.587L222.105 233.55Z" fill="white"/>
<path d="M215.435 249.553C216.106 249.18 219.254 324.539 219.254 324.539L211.97 325.024L202.767 268.667L195.836 324.074L188.57 324.8C188.57 324.8 191.086 288.788 189.986 275.039C188.906 261.29 190.638 254.155 196.06 247.913C196.06 247.913 210.386 252.459 215.398 249.59L215.435 249.553Z" fill="#3D4166"/>
<path d="M209.883 208.734C211.802 213.634 219.422 210.541 220.242 207.113C221.788 200.518 217.988 196.289 217.988 196.289C215.677 191.669 214.168 191.036 210.536 191.427C210.536 191.427 204.22 194.24 209.883 208.734Z" fill="#F5B29C"/>
<path d="M190.359 327.762C190.396 327.911 194.364 327.855 194.7 327.837C195.333 327.762 197.513 326.551 195.911 326.197C197.513 325.135 202.003 326.067 203.382 327.334C204.425 328.284 190.899 329.979 190.899 329.979C190.713 329.253 190.527 328.526 190.359 327.781V327.762Z" fill="#2E3054"/>
<path d="M215.92 195.358C214.783 199.084 215.92 211.1 209.66 210.131C204.909 209.386 203.81 197.742 205.244 193.998C206.437 190.886 215.771 188.092 218.081 190.812C221.024 194.258 216.404 193.811 215.92 195.358Z" fill="#2E3054"/>
<path d="M223.13 327.371C220.633 329.812 217 328.862 214.131 328.228C212.305 332.792 219.273 331.209 221.49 329.998L223.13 327.371Z" fill="#2E3054"/>
<path d="M219.012 216.838C214.839 222.8 221.751 228.78 221.751 228.78L233.097 224.011C232.612 218.515 228.923 214.584 228.923 214.584L221.043 216.261L219.012 216.857V216.838Z" fill="#DFE9FF"/>
<path d="M214.224 197.966C213.908 200.388 215.361 205.79 218.677 205.12C215.174 209.442 206.903 213.168 202.096 207.933C199.804 205.437 200.475 201.021 201.5 198.152C202.934 194.184 204.648 193.047 208.486 191.762L214.224 197.966Z" fill="#2E3054"/>
<path d="M216.385 216.13C216.385 216.13 209.231 239.772 195.613 250.28L199.19 250.764C199.19 250.764 215.659 231.892 218.286 215.907L216.367 216.149L216.385 216.13Z" fill="#3D4166"/>
<path d="M205.878 213.969C205.878 213.969 200.624 241.915 212.082 251.938L209.697 252.18C209.697 252.18 199.916 241.188 203.735 213.969H205.878Z" fill="#3D4166"/>
<path d="M320.882 265.165C320.882 265.165 325.819 265.165 328.502 267.308L326.676 274.611C326.676 274.611 326.676 272.356 323.341 271.816C320.007 271.276 320.864 265.165 320.864 265.165H320.882Z" fill="#FA7071"/>
<path d="M370.83 265.351C368.426 263.041 363.732 273.772 362.893 277.983C361.924 282.845 362.781 286.105 363.955 290.558C365.39 295.961 369.73 301.941 362.986 303.73C358.478 304.922 353.131 302.574 348.641 302.127C344.934 301.755 341.394 302.444 340.518 298.997C338.525 291.285 349.796 283.721 343.387 277.591C337.873 271.835 339.885 261.569 340.854 256.372C344.654 251.341 348.343 253.819 349.386 246.777C351.082 246.293 353.001 246.088 354.677 245.827C354.826 248.659 355.665 250.857 358.124 252.497C361.105 254.49 364.924 252.161 367.495 253.912C370.066 255.664 371.351 262.557 370.83 265.351Z" fill="#D88A4F"/>
<path d="M339.084 255.514C342.586 254.546 344.692 259.073 345.604 264.14C346.61 269.729 343.667 272.244 343.667 272.244C342.698 275.337 341.618 279.454 340.667 282.547C340.164 284.13 337.519 282.808 336.96 282.323C335.376 280.963 327.664 274.126 325.931 272.952C323.882 271.555 319.671 271.723 318.367 269.375C317.473 267.773 318.609 265.295 320.454 264.867C322.224 264.457 324.291 266.339 325.633 267.233C327.254 268.313 328.725 268.965 330.16 270.307C330.644 270.754 336.625 275.896 336.792 274.964C336.792 274.964 334.389 256.819 339.084 255.514Z" fill="#D88A4F"/>
<path d="M339.661 255.198C339.661 255.198 336.867 254.881 336.01 260.359C335.153 265.836 335.786 269.059 335.786 269.059L340.071 269.711C340.071 269.711 342.326 255.869 339.643 255.217L339.661 255.198Z" fill="#DFE9FF"/>
<path d="M370.83 265.351C368.967 265.333 363.731 273.772 362.893 277.983C361.924 282.845 364.346 286.571 365.52 291.024C365.948 292.663 366.861 294.862 364.868 295.681C363.787 296.128 362.297 296.147 361.123 296.278C358.515 296.576 355.832 296.408 353.243 296.278C350.448 296.147 347.859 295.905 345.176 295.327C344.561 295.197 341.059 295.402 341.17 294.582C341.506 292.197 341.096 289.98 342.363 288.192C343.629 286.422 344.691 284.317 344.635 282.1C344.58 280.144 342.195 277.517 339.736 272.431C337.295 267.345 340.611 257.899 339.866 256.465C338.413 253.912 343.387 253.763 344.952 252.869C343.275 258.346 342.977 259.576 348.585 260.228C354.193 260.88 358.478 251.081 364.887 252.552C369.861 253.689 371.705 260.917 370.867 265.314L370.83 265.351Z" fill="white"/>
<path d="M353.969 224.756C353.653 223.899 359.558 215.311 364.98 222.185C369.637 228.426 360.117 245.082 371.985 247.653C371.985 247.653 360.825 253.372 357.956 242.79C355.087 232.208 355.385 226.619 353.951 224.756H353.969Z" fill="#0B1238"/>
<path d="M352.106 222.744C352.106 222.744 355.255 220.024 356.969 221.887C358.683 223.75 358.683 225.893 358.683 225.893C358.683 225.893 353.951 222.316 352.106 222.744Z" fill="white"/>
<g style="mix-blend-mode:multiply">
<path d="M354.752 246.423C354.733 246.218 354.715 246.032 354.696 245.808C353.019 246.069 351.1 246.274 349.405 246.758C349.181 248.361 348.66 249.572 347.97 250.559C350.43 251.248 353.001 249.385 354.752 246.423Z" fill="#ECB49F"/>
</g>
<path d="M344.095 227.737C342.53 232.674 343.443 240.312 345.846 244.69C349.274 250.932 354.454 248.007 356.913 242.623C358.944 238.189 360.415 229.19 356.186 225.539C354.435 224.03 350.504 223.322 348.213 224.085C344.133 225.427 344.505 228.184 344.486 231.873L344.077 227.737H344.095Z" fill="#D88A4F"/>
<path d="M355.795 223.452C359.353 225.259 361.775 229.395 361.943 233.195C362.092 236.549 360.62 240.89 357.285 242.343C356.931 241.076 356.652 240.145 357.434 238.952C358.161 237.834 358.981 237.424 358.105 235.953C356.969 235.822 356.373 237.257 355.981 238.095C355.981 238.207 355.981 238.207 356 238.095C354.584 236.307 353.69 233.512 354.565 231.295C353.038 235.189 348.92 232.86 346.145 234.5C343.909 235.804 344.207 237.443 344.077 239.791C339.997 238.226 341.58 231.053 342.735 228.091C343.648 225.743 344.785 224.216 347.244 223.34C349.908 222.39 353.243 222.166 355.814 223.47L355.795 223.452Z" fill="#2E3054"/>
<path d="M341.617 369.829L337.295 368.935C337.128 369.941 336.96 370.928 336.755 371.897C335.507 377.859 328.446 379.517 328.502 381.51C328.558 383.504 340.611 378.641 340.611 378.641C340.611 378.641 341.338 370.575 341.617 369.829Z" fill="#F5B29C"/>
<path d="M359.428 370.705L355.814 369.047C355.497 370.09 355.478 372.345 355.292 373.388C354.156 380.039 348.436 379.946 348.25 381.716C348.045 383.839 359.596 379.834 359.596 379.834C359.596 379.834 359.037 371.469 359.428 370.705Z" fill="#F5B29C"/>
<path d="M339.214 297.06L335.563 372.717L342.083 372.512L350.392 312.262L354.454 373.891L359.279 374.245C359.279 374.245 374.183 314.833 364.179 286.981C364.179 286.981 353.653 290.632 342.717 288.49C342.717 288.49 339.605 291.415 339.233 297.06H339.214Z" fill="#3D4166"/>
<path d="M365.129 289.459C362.949 289.459 361.086 288.695 359.968 290.893C359.391 292.048 359.074 295.271 359.54 296.613C360.49 299.351 367.476 298.867 369.824 298.308C370.159 296.687 370.457 295.402 370.271 293.613C370.01 290.968 369.507 291.49 367.271 290.744L365.129 289.459Z" fill="#FFBEC1"/>
<path d="M373.568 266.059C375.282 269.45 380.182 274.368 379.455 278.076C378.841 281.187 376.791 283.87 374.686 286.161C372.898 288.099 370.103 291.639 367.439 292.197C366.619 292.365 366.768 292.533 366.265 291.899C364.998 290.279 367.476 288.49 368.352 287.391C370.513 284.634 373.457 279.1 373.457 279.1C373.457 279.1 372.32 275.933 370.196 272.841C367.383 268.723 363.974 264.904 363.806 259.725C363.75 257.992 364.328 253.503 367.253 254.229C369.544 254.807 372.413 263.805 373.568 266.078V266.059Z" fill="#D88A4F"/>
<path d="M374.407 266.693C374.388 266.842 374.332 267.009 374.257 267.177C373.959 267.904 372.786 268.612 372.171 269.021C371.09 269.748 368.929 271.089 367.625 270.176C365.073 268.388 363.471 262.631 363.377 259.725C363.322 257.843 363.936 252.981 367.122 253.782C370.457 254.62 371.873 262.203 373.456 264.736C373.997 265.612 374.5 265.985 374.407 266.693Z" fill="#DFE9FF"/>
<path d="M340.835 376.257C340.742 376.313 340.649 376.35 340.537 376.406C333.588 380.262 333.01 378.343 333.048 377.486C330.812 379.312 328.465 380.374 328.502 381.529C328.558 383.523 340.611 378.66 340.611 378.66C340.611 378.66 340.705 377.635 340.835 376.275V376.257Z" fill="#2E3054"/>
<path d="M359.372 377.393C356.317 379.107 356.671 379.163 353.988 379.573C351.324 380.002 352.516 378.735 352.479 378.586C350.392 379.983 348.38 380.467 348.25 381.697C348.045 383.821 359.596 379.815 359.596 379.815C359.596 379.815 359.558 379.107 359.372 377.393Z" fill="#2E3054"/>
<path d="M347.095 243.964C347.095 243.964 348.939 245.79 352.963 243.647C352.963 243.647 351.342 246.553 349.703 246.237C348.082 245.92 347.095 243.982 347.095 243.982V243.964Z" fill="white"/>
<path d="M314.846 259.781H313.821V260.787H314.846V259.781Z" fill="#2E3054"/>
<path d="M315.777 259.352H320.23C320.491 259.352 320.789 259.501 320.919 259.688L322.671 262.184C322.801 262.371 322.708 262.52 322.447 262.52H318.516C318.274 262.52 317.957 262.371 317.827 262.184L317.398 261.569C317.268 261.383 316.951 261.234 316.709 261.234H314.678C314.417 261.234 314.213 261.066 314.213 260.843V259.744C314.213 259.52 314.417 259.352 314.678 259.352H315.759H315.777Z" fill="#2A2B7C"/>
<path d="M317.026 261.234C317.026 261.234 316.802 262.389 315.07 263.078C313.337 263.768 313.765 264.196 314.417 264.103C315.069 264.01 317.026 263.544 318.05 262.259L317.585 260.787L317.026 261.234Z" fill="#2A2B7C"/>
<path d="M318.255 264.327C318.255 264.662 318.572 264.923 318.945 264.923H322.205C322.596 264.923 322.894 264.662 322.894 264.327V263.134C322.894 262.799 322.577 262.538 322.205 262.538H318.945C318.572 262.538 318.255 262.799 318.255 263.134V264.327Z" fill="white"/>
<path d="M322.708 264.327C322.708 264.327 325.502 280.647 325.707 281.541C325.912 282.416 325.372 283.665 320.714 283.702H320.454C315.796 283.665 315.256 282.398 315.461 281.541C315.666 280.647 318.255 264.327 318.255 264.327H322.708Z" fill="#FFBEC1"/>
<path d="M318.255 264.327H320.006L320.1 283.702C315.759 283.609 315.274 282.379 315.461 281.541C315.666 280.647 318.255 264.327 318.255 264.327Z" fill="#FFD7DF"/>
<path d="M319.317 264.327H321.665L323.584 283.441C322.876 283.59 321.944 283.683 320.714 283.702H320.454C319.224 283.702 318.293 283.59 317.585 283.441L319.317 264.327Z" fill="#FFBEC1"/>
<path d="M317.696 265.743C318.386 265.351 319.075 265.072 319.708 264.662C320.361 265.37 318.777 266.73 318.274 267.159C319.001 267.121 319.541 266.451 320.267 266.395C320.491 267.829 318.814 268.444 318.348 269.58C319.019 269.487 319.839 268.723 320.621 269.115C320.882 270.363 318.647 271.369 317.939 272.114C318.479 271.797 319.094 271.388 319.746 271.369C320.584 271.369 320.565 272.04 319.969 272.58C319.522 272.971 319.019 273.288 318.498 273.567C318.293 273.679 317.585 274.201 317.38 274.201C316.746 274.238 316.56 273.511 316.504 272.953C316.392 271.872 316.336 270.754 316.485 269.655C316.653 268.481 316.784 266.506 317.678 265.65V265.724L317.696 265.743Z" fill="#FA7071"/>
<path d="M366.489 287.391L370.252 291.359C370.252 291.359 368.538 291.676 368.221 293.073C367.905 294.47 366.712 297.265 366.712 297.265C366.47 297.842 366.507 299.016 365.93 299.389C365.352 299.743 365.129 299.24 364.682 298.886C364.477 299.817 363.657 299.463 363.564 298.662C363.359 298.904 363.061 298.96 362.744 299.053C362.614 298.588 362.427 298.196 362.409 297.712C361.142 298.923 361.384 296.836 361.645 296.147C362.073 294.992 362.707 293.874 363.377 292.849C364.775 290.707 366.172 289.626 366.489 287.372V287.391Z" fill="#FA7071"/>
<path d="M365.576 290.539C365.576 290.539 361.384 291.359 361.384 292.402C361.384 293.446 365.576 292.179 365.576 292.179V290.539Z" fill="#FA7071"/>
<path d="M342.866 263.246C342.866 263.246 348.455 264.96 353.597 263.246C353.597 263.246 355.534 267.326 358.739 269.897C358.739 269.897 357.509 285.509 361.03 288.117C361.03 288.117 349.312 291.787 341.785 289.645L340.276 273.12L342.847 263.246H342.866Z" fill="#3D4166"/>
<path d="M355.106 266.041C355.106 266.041 357.453 253.968 363.359 252.608L360.471 252.739C360.471 252.739 354.677 258.104 353.168 264.979C352.106 269.823 355.106 266.059 355.106 266.059V266.041Z" fill="#3D4166"/>
<path d="M343.518 253.372L344.375 264.736L342.866 264.308L341.804 253.577L343.518 253.372Z" fill="#3D4166"/>
<path d="M344.319 269.748L353.485 270.214C353.485 270.214 354.137 280.609 348.977 280.609C343.816 280.609 344.319 269.748 344.319 269.748Z" fill="#2E3054"/>
<path opacity="0.3" d="M405.594 380.672C405.594 382.107 397.434 383.262 387.373 383.262C377.313 383.262 369.134 382.107 369.134 380.672C369.134 379.238 377.294 378.083 387.373 378.083C397.452 378.083 405.594 379.238 405.594 380.672Z" fill="#A8BCFF"/>
<path d="M395.757 371.786C396.875 366.755 398.179 360.57 398.179 360.011C398.179 358.8 393.167 357.813 386.963 357.813C380.76 357.813 375.431 358.8 375.431 360.011C375.431 361.111 379.977 379.349 379.977 380.132C379.977 381.026 382.79 381.771 386.963 381.771C391.137 381.771 393.745 381.045 393.745 380.132C393.745 379.946 394.229 378.623 394.602 376.965L395.757 371.786Z" fill="#FA7071"/>
<path d="M397.787 359.955C397.787 360.961 392.832 361.781 386.74 361.781C380.648 361.781 375.692 360.961 375.692 359.955C375.692 358.949 380.648 358.13 386.74 358.13C392.832 358.13 397.787 358.949 397.787 359.955Z" fill="#FFBEC1"/>
<path d="M393.763 371.078C393.13 371.078 392.478 370.966 391.863 370.742C387.913 369.364 385.659 364.11 385.566 363.886C385.454 363.607 385.566 363.272 385.864 363.16C386.144 363.048 386.479 363.16 386.591 363.458C386.609 363.514 388.733 368.488 392.217 369.699C393.558 370.165 394.956 370.016 396.353 369.233C396.632 369.084 396.968 369.177 397.117 369.457C397.266 369.736 397.173 370.072 396.893 370.221C395.85 370.798 394.788 371.078 393.745 371.078H393.763Z" fill="#3D4166"/>
<path opacity="0.3" d="M479.686 353.118C479.686 354.534 466.831 355.689 450.958 355.689C435.085 355.689 422.23 354.534 422.23 353.118C422.23 351.702 435.085 350.547 450.958 350.547C466.831 350.547 479.686 351.702 479.686 353.118Z" fill="#A8BCFF"/>
<path opacity="0.3" d="M482.331 330.128C492.538 330.128 500.813 329.194 500.813 328.042C500.813 326.89 492.538 325.955 482.331 325.955C472.125 325.955 463.85 326.89 463.85 328.042C463.85 329.194 472.125 330.128 482.331 330.128Z" fill="#A8BCFF"/>
<path opacity="0.3" d="M287.031 283.497C288.965 283.497 290.533 281.929 290.533 279.995C290.533 278.06 288.965 276.492 287.031 276.492C285.097 276.492 283.528 278.06 283.528 279.995C283.528 281.929 285.097 283.497 287.031 283.497Z" fill="white"/>
<path opacity="0.3" d="M286.137 278.858C286.137 279.343 285.746 279.752 285.243 279.752C284.74 279.752 284.348 279.361 284.348 278.858C284.348 278.355 284.74 277.964 285.243 277.964C285.746 277.964 286.137 278.355 286.137 278.858Z" fill="white"/>
<path opacity="0.3" d="M272.816 277.181C276.798 277.181 280.026 273.954 280.026 269.972C280.026 265.99 276.798 262.762 272.816 262.762C268.834 262.762 265.606 265.99 265.606 269.972C265.606 273.954 268.834 277.181 272.816 277.181Z" fill="white"/>
<path opacity="0.3" d="M270.972 267.624C270.972 268.649 270.152 269.469 269.127 269.469C268.103 269.469 267.283 268.649 267.283 267.624C267.283 266.6 268.103 265.78 269.127 265.78C270.152 265.78 270.972 266.6 270.972 267.624Z" fill="white"/>
<path opacity="0.3" d="M237.661 300.935C240.48 300.935 242.766 298.65 242.766 295.83C242.766 293.011 240.48 290.726 237.661 290.726C234.842 290.726 232.556 293.011 232.556 295.83C232.556 298.65 234.842 300.935 237.661 300.935Z" fill="white"/>
<path opacity="0.3" d="M236.357 294.172C236.357 294.899 235.779 295.476 235.053 295.476C234.326 295.476 233.749 294.899 233.749 294.172C233.749 293.446 234.326 292.868 235.053 292.868C235.779 292.868 236.357 293.446 236.357 294.172Z" fill="white"/>
<path opacity="0.2" d="M300.296 79.7014C307.107 79.7014 312.629 74.1796 312.629 67.3682C312.629 60.5568 307.107 55.035 300.296 55.035C293.484 55.035 287.963 60.5568 287.963 67.3682C287.963 74.1796 293.484 79.7014 300.296 79.7014Z" fill="white"/>
<path opacity="0.2" d="M315.908 49.446C317.708 49.446 319.168 47.9863 319.168 46.1857C319.168 44.3851 317.708 42.9254 315.908 42.9254C314.107 42.9254 312.647 44.3851 312.647 46.1857C312.647 47.9863 314.107 49.446 315.908 49.446Z" fill="white"/>
<path opacity="0.2" d="M381.579 225.036C386.724 225.036 390.894 220.865 390.894 215.72C390.894 210.576 386.724 206.405 381.579 206.405C376.435 206.405 372.264 210.576 372.264 215.72C372.264 220.865 376.435 225.036 381.579 225.036Z" fill="white"/>
<path opacity="0.3" d="M210.647 73.1994C225.052 73.1994 236.73 61.522 236.73 47.1172C236.73 32.7123 225.052 21.0349 210.647 21.0349C196.242 21.0349 184.565 32.7123 184.565 47.1172C184.565 61.522 196.242 73.1994 210.647 73.1994Z" fill="#A6E7FF"/>
<path opacity="0.3" d="M262.676 29.7189C266.915 29.7189 270.351 26.2824 270.351 22.0433C270.351 17.8042 266.915 14.3677 262.676 14.3677C258.436 14.3677 255 17.8042 255 22.0433C255 26.2824 258.436 29.7189 262.676 29.7189Z" fill="#A6E7FF"/>
<path opacity="0.3" d="M296.346 65.0582C298.28 65.0582 299.849 63.4901 299.849 61.5557C299.849 59.6213 298.28 58.0532 296.346 58.0532C294.412 58.0532 292.844 59.6213 292.844 61.5557C292.844 63.4901 294.412 65.0582 296.346 65.0582Z" fill="white"/>
<path opacity="0.2" d="M378.077 145.857C380.011 145.857 381.579 144.289 381.579 142.355C381.579 140.42 380.011 138.852 378.077 138.852C376.142 138.852 374.574 140.42 374.574 142.355C374.574 144.289 376.142 145.857 378.077 145.857Z" fill="white"/>
<path d="M480.748 308.461C482.667 304.717 485.703 302.854 484.511 297.991C484.027 296.054 482.555 294.824 481.884 293.11C481.046 290.968 481.735 290.558 482.033 288.304C482.648 283.422 479.574 282.416 477.804 278.709C476.575 276.119 476.947 273.083 475.289 270.344C473.612 267.568 470.501 265.09 469.868 261.774C469.402 267.643 465.676 276.641 470.166 281.578C467.464 283.385 466.961 286.944 468.21 289.738C468.806 291.061 470.762 292.104 471.097 293.52C471.563 295.439 470.389 295.513 470.222 297.19C469.737 302.518 485.219 310.138 481.139 315.466L480.748 308.461Z" fill="#2E3054"/>
<path d="M471.749 273.325C470.333 272.803 469.234 272.133 468.228 271.35C468.247 271.182 468.265 271.033 468.303 270.866C469.365 271.723 470.371 272.337 471.675 272.841C471.563 272.114 471.451 271.387 471.339 270.661C471.246 270.027 471.153 269.394 471.041 268.76C470.948 268.164 470.818 267.568 470.706 266.991C470.613 266.488 470.501 265.985 470.408 265.482C470.352 265.184 470.278 264.811 470.203 264.438C470.054 263.656 469.886 262.817 469.812 262.054C469.812 261.96 469.812 261.867 469.83 261.774C469.961 262.445 470.184 263.078 470.482 263.693C470.52 263.917 470.576 264.14 470.613 264.364C470.687 264.755 470.762 265.109 470.818 265.426C470.892 265.91 471.004 266.413 471.097 266.916C471.209 267.494 471.339 268.108 471.433 268.705C471.526 269.338 471.638 269.971 471.731 270.624C471.973 272.207 472.215 273.847 472.532 275.467C473.966 274.573 474.6 272.039 474.916 269.841C475.028 270.009 475.14 270.176 475.252 270.363C474.898 272.617 474.171 275.057 472.625 275.914C472.662 276.082 472.699 276.268 472.737 276.455C473.072 278.02 473.482 279.566 473.929 281.112C475.308 279.491 476.332 277.573 476.873 275.635C476.929 275.914 476.984 276.194 477.059 276.492C476.444 278.318 475.42 280.106 474.078 281.597C474.469 282.919 474.861 284.224 475.252 285.509C475.27 285.584 475.289 285.639 475.308 285.677C475.42 286.031 475.531 286.403 475.643 286.757C475.96 286.273 476.351 285.826 476.742 285.379C477.133 284.95 477.506 284.522 477.823 284.037C478.493 283.031 478.81 281.988 479.108 280.907C479.22 281.056 479.332 281.187 479.425 281.336C479.146 282.323 478.81 283.311 478.158 284.279C477.823 284.764 477.432 285.23 477.04 285.658C476.612 286.142 476.183 286.645 475.848 287.167L475.736 287.093C476.239 288.732 476.742 290.409 477.189 292.104C477.208 292.179 477.245 292.272 477.264 292.365C477.599 291.75 478.195 291.117 478.736 290.539C479.09 290.167 479.425 289.831 479.63 289.552C480.506 288.304 481.4 286.906 481.903 285.509C481.959 285.77 482.015 286.031 482.033 286.31C481.493 287.54 480.729 288.713 479.965 289.813C479.742 290.129 479.406 290.483 479.034 290.856C478.363 291.545 477.543 292.421 477.432 293.092C478.139 295.774 478.903 298.587 479.686 301.326C480.282 303.394 480.561 305.536 480.841 307.604C480.859 307.772 480.878 307.921 480.915 308.089C480.841 308.219 480.766 308.368 480.692 308.499L480.785 310.138C480.655 309.3 480.543 308.48 480.431 307.66C480.17 305.611 479.872 303.469 479.276 301.438C478.475 298.681 477.711 295.849 477.003 293.166C476.91 292.812 476.835 292.514 476.761 292.216C476.612 291.62 476.444 291.024 476.258 290.427C475.475 290.148 474.525 290.018 473.594 289.906C472.867 289.813 472.122 289.719 471.47 289.552C469.849 289.142 468.694 288.397 467.558 287.614C467.539 287.428 467.52 287.242 467.52 287.074C468.731 287.931 469.886 288.732 471.582 289.161C472.215 289.328 472.942 289.421 473.65 289.515C474.488 289.626 475.364 289.738 476.127 289.98C475.718 288.583 475.289 287.186 474.879 285.826C474.507 285.584 473.948 285.49 473.407 285.397C472.979 285.323 472.55 285.248 472.178 285.099C471.228 284.745 469.663 284.149 468.619 283.106C468.694 282.994 468.787 282.882 468.88 282.77C469.7 283.627 471.004 284.205 472.327 284.708C472.662 284.838 473.072 284.913 473.482 284.987C473.892 285.062 474.339 285.136 474.712 285.267C474.078 283.218 473.445 281.131 472.904 279.007C472.755 279.007 472.588 279.007 472.439 279.007C471.135 278.895 469.495 278.336 468.172 277.517C468.135 277.33 468.116 277.144 468.079 276.958C469.476 277.927 471.433 278.597 472.793 278.616C472.625 277.945 472.457 277.274 472.327 276.622C472.103 275.561 471.917 274.499 471.731 273.437L471.749 273.325Z" fill="white"/>
<path d="M481.139 311.796C481.083 311.498 481.027 311.2 480.971 310.883C481.139 311.163 481.288 311.461 481.418 311.74L481.139 311.796Z" fill="white"/>
<path d="M453.604 284.503C457.646 286.869 469.197 285.64 467.651 292.887C472.979 292.16 474.637 294.247 474.302 299.295C474.339 298.755 476.258 299.128 476.537 299.295C477.003 299.575 477.562 300.451 477.823 300.916C478.661 302.407 478.773 304.121 478.978 305.797C479.22 307.791 479.649 309.766 480.17 311.685C476.761 307.53 464.446 307.623 466.626 302.537C464.726 302.779 461.223 303.413 459.696 301.866C457.74 299.892 460.031 297.805 461.782 296.818C454.367 295.886 455.15 292.663 456.156 289.012L454.852 287.447C454.256 286.571 453.809 285.491 453.622 284.484L453.604 284.503Z" fill="#5C75C3"/>
<path d="M481.046 312.821C491.181 306.599 491.143 281.504 491.143 281.243H490.808C490.808 281.504 490.845 306.412 480.859 312.542L481.046 312.821Z" fill="#97B8DA"/>
<path d="M484.53 309.002C484.53 309.114 483.263 303.133 480.524 303.581C477.786 304.028 484.548 309.114 484.548 309.114V309.002H484.53Z" fill="#97B8DA"/>
<path d="M486.598 305.853C486.598 305.853 483.989 299.035 481.922 300.395C479.854 301.755 486.598 305.853 486.598 305.853Z" fill="#97B8DA"/>
<path d="M488.014 301.997C488.014 301.997 484.679 294.675 482.145 296.538C480.226 297.935 488.014 301.997 488.014 301.997Z" fill="#97B8DA"/>
<path d="M489.653 295.122C489.653 295.122 487.119 287.95 485.107 289.757C483.095 291.564 489.653 295.122 489.653 295.122Z" fill="#97B8DA"/>
<path d="M489.299 297.786C489.299 297.786 485.07 291.359 483.617 293.651C482.648 295.178 489.299 297.786 489.299 297.786Z" fill="#97B8DA"/>
<path d="M490.305 290.465C490.305 290.465 487.361 282.677 485.368 284.708C483.393 286.739 490.305 290.465 490.305 290.465Z" fill="#97B8DA"/>
<path d="M490.585 285.304C490.585 285.304 488.871 278.486 487.771 280.516C486.672 282.547 490.585 285.304 490.585 285.304Z" fill="#97B8DA"/>
<path d="M491.032 283.46C491.032 283.46 493.733 277.219 491.609 277.256C489.504 277.293 491.032 283.46 491.032 283.46Z" fill="#97B8DA"/>
<path d="M490.584 285.304C490.584 285.304 496.937 283.423 495.149 281.634C493.379 279.846 490.584 285.304 490.584 285.304Z" fill="#97B8DA"/>
<path d="M490.491 289.216C490.491 289.216 497.944 287.204 497.068 284.633C496.192 282.062 490.491 289.216 490.491 289.216Z" fill="#97B8DA"/>
<path d="M489.746 293.092C489.746 293.092 499.601 290.781 498.074 288.173C496.527 285.565 489.746 293.092 489.746 293.092Z" fill="#97B8DA"/>
<path d="M489.076 296.855C489.076 296.855 500.198 295.719 499.397 292.7C498.577 289.682 489.076 296.855 489.076 296.855Z" fill="#97B8DA"/>
<path d="M487.492 303.078C487.492 303.078 497.403 299.314 498.186 302.109C498.968 304.922 487.492 303.078 487.492 303.078Z" fill="#97B8DA"/>
<path d="M488.945 299.277C488.945 299.277 497.105 294.694 498.167 297.395C499.21 300.115 488.945 299.277 488.945 299.277Z" fill="#97B8DA"/>
<path d="M486.747 305.276C486.747 305.276 495.633 303.077 495.093 306.058C494.553 309.02 486.598 305.853 486.598 305.853L486.747 305.276Z" fill="#97B8DA"/>
<path d="M469.793 307.027C469.793 319.006 474.078 328.713 479.369 328.713C484.66 328.713 488.945 319.006 488.945 307.027H469.793Z" fill="#7AB6F6"/>
<path opacity="0.3" d="M469.793 327.949C469.793 328.694 474.078 329.29 479.369 329.29C484.66 329.29 488.945 328.694 488.945 327.949H469.793Z" fill="#A8BCFF"/>
<path opacity="0.3" d="M471.675 310.604C471.675 311.647 472.588 312.486 473.687 312.486C474.786 312.486 475.699 311.647 475.699 310.604C475.699 309.561 474.805 308.722 473.687 308.722C472.569 308.722 471.675 309.561 471.675 310.604Z" fill="white"/>
<path opacity="0.3" d="M145.945 326.733C145.945 327.59 139.686 328.279 131.973 328.279C124.26 328.279 118 327.59 118 326.733C118 325.876 124.26 325.186 131.973 325.186C139.686 325.186 145.945 325.876 145.945 326.733Z" fill="#A8BCFF"/>
<path d="M126.477 315.257C126.477 321.833 129.215 327.161 132.606 327.161C135.997 327.161 138.735 321.833 138.735 315.257H126.477Z" fill="#5C75C3"/>
<path d="M133.817 316.114C135.661 315.07 139.276 314.027 140.021 311.531C141.232 307.506 136.463 308.401 134.45 309.314C135.587 308.233 140.394 305.96 139.257 303.855C138.102 301.712 134.525 305.14 134.749 306.966C136.183 304.06 137.059 296.999 135.084 294.149C133.333 291.596 131.563 293.776 131.209 296.049C130.743 299.03 131.321 302.066 132.606 304.731C131.712 303.371 129.774 300.278 127.781 301.768C128.06 304.488 130.892 307.078 132.084 309.425C130.818 308.55 126.812 307.395 126.998 310.059C127.166 312.388 131.805 313.077 132.681 314.604L133.817 316.114Z" fill="#F3A9B8"/>
<path d="M133.258 315.35C133.612 313.897 133.854 311.158 134.991 310.059C136.705 308.364 136.537 310.916 135.792 311.978C137.58 310.506 140.282 306.221 142.536 305.755C145.889 305.047 141.008 309.668 140.468 310.394C141.884 310.245 146.914 307.972 147.063 310.245C147.249 312.816 141.195 313.114 139.555 313.692C140.598 314.307 141.809 315.294 141.549 316.635C139.369 317.418 138.437 316.319 136.667 315.518C135.68 316.822 133.575 317.027 132.513 315.722L133.277 315.35H133.258Z" fill="#7AB6F6"/>
<path d="M133.817 316.486C133.444 315.965 130.687 307.358 129.793 311.14C128.843 309.314 125.899 303.017 123.254 305.905C120.739 308.662 124.483 312.481 127.315 312.705C126.067 313.599 124.241 315.164 126.626 315.928C128.265 316.449 130.482 315.387 132.103 315.369L133.798 316.505L133.817 316.486Z" fill="#2A2B7C"/>
<path d="M182.199 155.135C182.199 167.468 172.213 177.454 159.88 177.454C147.547 177.454 137.561 167.468 137.561 155.135C137.561 142.802 147.547 132.816 159.88 132.816C172.213 132.816 182.199 142.802 182.199 155.135Z" fill="#ABC2F6"/>
<path d="M365.215 29.0174C365.215 39.4131 356.794 47.8339 346.398 47.8339C336.002 47.8339 327.582 39.4131 327.582 29.0174C327.582 18.6218 336.002 10.2009 346.398 10.2009C356.794 10.2009 365.215 18.6218 365.215 29.0174Z" fill="#ABC2F6"/>
<path d="M263.564 62.6499C263.564 73.3064 254.92 81.9322 244.282 81.9322C233.644 81.9322 225 73.3064 225 62.6499C225 51.9935 233.644 43.3677 244.282 43.3677C254.92 43.3677 263.564 51.9935 263.564 62.6499Z" fill="#FFC5C0"/>
<path d="M250.132 76.4174H238.6C238.395 76.4174 238.209 76.2684 238.153 76.0635L232.657 54.9182C232.62 54.7691 232.657 54.6387 232.732 54.5083C232.825 54.3965 232.955 54.322 233.104 54.322H255.628C255.777 54.322 255.908 54.3965 256.001 54.5083C256.094 54.6201 256.112 54.7691 256.075 54.9182L250.579 76.0635C250.523 76.2684 250.337 76.4174 250.132 76.4174ZM238.954 75.4859H249.76L255.013 55.2722H233.7L238.954 75.4859Z" fill="white"/>
<path d="M252.535 68.2203C249.014 68.2203 244.375 64.6992 242.699 59.1288C242.624 58.8866 242.773 58.6258 243.015 58.5513C243.258 58.4767 243.518 58.6258 243.593 58.868C245.326 64.6806 250.169 67.5683 252.908 67.2888C254.026 67.1957 254.79 66.6554 255.125 65.7425C255.609 64.3825 255.05 62.5381 253.765 61.2713C253.579 61.085 253.579 60.7869 253.765 60.6192C253.951 60.4329 254.249 60.4329 254.417 60.6192C255.945 62.1469 256.597 64.3825 255.982 66.0779C255.516 67.3447 254.454 68.1086 252.983 68.239C252.833 68.239 252.684 68.2576 252.535 68.2576V68.2203Z" fill="white"/>
<path d="M242.55 59.7062C241.469 59.7062 240.593 58.8305 240.593 57.75C240.593 56.6694 241.469 55.7938 242.55 55.7938C243.63 55.7938 244.506 56.6694 244.506 57.75C244.506 58.8305 243.63 59.7062 242.55 59.7062ZM242.55 56.7253C241.991 56.7253 241.525 57.1911 241.525 57.75C241.525 58.3089 241.991 58.7747 242.55 58.7747C243.108 58.7747 243.574 58.3089 243.574 57.75C243.574 57.1911 243.108 56.7253 242.55 56.7253Z" fill="white"/>
<path d="M233.626 55.1233C233.29 55.0674 233.123 54.8252 233.16 54.5644C233.402 53.2603 234.557 52.2915 235.899 52.2915C236.197 52.2915 236.495 52.3474 236.774 52.4405C237.501 51.0805 239.122 50.3167 240.631 50.6148C241.413 48.8263 243.183 47.6526 245.158 47.6526C247.133 47.6526 248.996 48.9008 249.741 50.7452C250.318 50.4471 250.97 50.2794 251.641 50.2794C253.933 50.2794 255.796 52.1425 255.796 54.434C255.796 54.5085 255.796 54.6016 255.796 54.6762C255.796 54.937 255.554 55.1419 255.311 55.1233C255.05 55.1233 254.864 54.8997 254.864 54.6389V54.4526C254.864 52.6827 253.43 51.2296 251.66 51.2296C250.97 51.2296 250.318 51.4345 249.778 51.8444C249.648 51.9375 249.499 51.9562 249.35 51.9003C249.201 51.8444 249.089 51.7326 249.052 51.5836C248.586 49.8323 246.984 48.6027 245.176 48.6027C243.369 48.6027 241.916 49.7019 241.376 51.3414C241.339 51.4531 241.246 51.5649 241.134 51.6022C241.022 51.6581 240.892 51.6581 240.78 51.6208C239.476 51.1923 237.948 51.9189 237.464 53.223C237.426 53.3534 237.315 53.4466 237.184 53.5025C237.054 53.5584 236.923 53.5397 236.793 53.4838C236.513 53.3348 236.215 53.2603 235.899 53.2603C235.004 53.2603 234.241 53.8937 234.073 54.7693C234.036 54.9929 233.831 55.1419 233.607 55.1419L233.626 55.1233Z" fill="white"/>
<path d="M349.845 42.0958C349.845 42.0958 349.714 42.0958 349.64 42.0585C349.602 42.0399 345.504 40.121 340.623 36.8421C340.418 36.7117 340.325 36.6371 340.474 35.9106C340.306 36.041 340.157 36.1341 340.008 36.19C339.859 36.2459 339.691 36.2273 339.579 36.1341C338.406 35.3144 337.195 34.4388 336.021 33.5259C335.797 33.3396 335.648 33.2278 336.226 31.6815C335.63 32.0727 335.09 32.2963 334.698 32.2963C334.586 32.2963 334.456 32.2591 334.363 32.1845C333.096 31.1412 332.37 30.4706 332.37 30.4706C332.22 30.3215 332.183 30.0979 332.276 29.9116C332.37 29.7253 332.574 29.6322 332.779 29.6695C334.512 30.0048 336.654 27.4338 337.325 26.5023C337.474 26.2974 337.754 26.2415 337.959 26.3719L351.316 35.333C351.521 35.4821 351.577 35.7615 351.447 35.9665C350.795 36.9725 349.304 39.9347 350.236 41.3692C350.348 41.5369 350.329 41.7791 350.199 41.9281C350.105 42.0399 349.975 42.0958 349.845 42.0958ZM341.368 36.2086C344.665 38.407 347.572 39.9533 349.025 40.6985C348.801 38.91 349.901 36.7303 350.422 35.8547L337.81 27.3966C337.195 28.1977 335.593 30.0607 333.841 30.5264C334.102 30.75 334.437 31.0295 334.81 31.3462C335.183 31.2717 336.002 30.8432 337.046 29.7999C337.195 29.6322 337.456 29.6136 337.642 29.744C337.828 29.8744 337.903 30.1166 337.81 30.3215C337.381 31.3089 336.934 32.4826 336.804 32.9484C337.828 33.7308 338.853 34.4947 339.877 35.2213C340.194 34.9977 340.679 34.4947 340.977 34.1034C341.107 33.9171 341.349 33.8612 341.554 33.9544C341.759 34.0475 341.871 34.2711 341.796 34.4947C341.629 35.1281 341.442 35.8733 341.368 36.2459V36.2086Z" fill="white"/>
<path d="M351.112 36.4507C351.112 36.4507 350.925 36.4321 350.851 36.3762C350.627 36.2272 350.571 35.9477 350.72 35.7242L351.577 34.4387C351.95 33.8798 352.099 33.1905 351.969 32.5384C351.838 31.8677 351.447 31.2902 350.888 30.9176L342.225 25.105C341.666 24.7324 340.995 24.5833 340.325 24.7137C339.654 24.8441 339.076 25.2354 338.704 25.7943L337.828 27.0984C337.679 27.3033 337.4 27.3778 337.176 27.2288C336.971 27.0798 336.915 26.8003 337.046 26.5767L337.921 25.2913C338.443 24.5274 339.226 24.0058 340.138 23.8195C341.051 23.6332 341.983 23.8195 342.747 24.3411L351.41 30.1537C352.174 30.6754 352.714 31.4579 352.881 32.3707C353.068 33.2836 352.881 34.2151 352.36 34.979L351.503 36.2644C351.41 36.3949 351.261 36.4694 351.112 36.4694V36.4507Z" fill="white"/>
<path d="M348.019 28.3469L355.285 18.5288L351.987 16.3118L345.541 26.6888L348.019 28.3469ZM352.173 19.6093C351.801 19.3671 351.708 18.8455 351.95 18.4729C352.192 18.1003 352.714 18.0071 353.086 18.2493C353.459 18.4915 353.552 19.0131 353.31 19.3857C353.068 19.7584 352.546 19.8515 352.173 19.6093Z" fill="white"/>
<path d="M495.066 90.8217C495.066 102.596 485.527 112.135 473.753 112.135C461.979 112.135 452.44 102.596 452.44 90.8217C452.44 79.0474 461.979 69.5088 473.753 69.5088C485.527 69.5088 495.066 79.0474 495.066 90.8217Z" fill="#A2DFF6"/>
<path d="M480.888 100.677H473.157C472.896 100.677 472.691 100.472 472.691 100.211C472.691 99.9505 472.896 99.7456 473.157 99.7456H480.888C481.149 99.7456 481.354 99.9505 481.354 100.211C481.354 100.472 481.149 100.677 480.888 100.677Z" fill="white"/>
<path d="M470.66 97.8452C470.399 97.8452 470.194 97.6403 470.194 97.3795V89.294C470.194 85.5679 473.231 82.5126 476.976 82.5126H478.708C482.434 82.5126 485.49 85.5493 485.49 89.294V94.7153C485.49 94.9762 485.285 95.1811 485.024 95.1811C484.763 95.1811 484.558 94.9762 484.558 94.7153V89.294C484.558 86.0709 481.931 83.4441 478.708 83.4441H476.976C473.753 83.4441 471.126 86.0709 471.126 89.294V97.3795C471.126 97.6403 470.921 97.8452 470.66 97.8452Z" fill="white"/>
<path d="M464.829 98.05C464.568 98.05 464.363 97.8451 464.363 97.5843V81.2084C464.363 76.9793 467.81 73.5327 472.039 73.5327C476.268 73.5327 479.714 76.9793 479.714 81.2084V82.8105C479.714 83.0714 479.51 83.2763 479.249 83.2763C478.988 83.2763 478.783 83.0714 478.783 82.8105V81.2084C478.783 77.5009 475.765 74.4642 472.039 74.4642C468.313 74.4642 465.295 77.4823 465.295 81.2084V97.5843C465.295 97.8451 465.09 98.05 464.829 98.05Z" fill="white"/>
<path d="M468.126 98.05C467.866 98.05 467.661 97.8451 467.661 97.5842V81.2083C467.661 78.7864 469.617 76.8302 472.039 76.8302C474.461 76.8302 476.417 78.7864 476.417 81.2083V82.9595C476.417 83.2204 476.212 83.4253 475.951 83.4253C475.69 83.4253 475.485 83.2204 475.485 82.9595V81.2083C475.485 79.308 473.939 77.7617 472.039 77.7617C470.138 77.7617 468.592 79.308 468.592 81.2083V97.5842C468.592 97.8451 468.387 98.05 468.126 98.05Z" fill="white"/>
<path d="M484.391 102.838C482.025 102.838 480.124 100.919 480.124 98.5531C480.124 96.187 482.043 94.2867 484.391 94.2867C486.738 94.2867 488.676 96.2057 488.676 98.5531C488.676 100.9 486.757 102.838 484.391 102.838ZM484.391 95.2183C482.546 95.2183 481.056 96.7273 481.056 98.5531C481.056 100.379 482.565 101.906 484.391 101.906C486.216 101.906 487.744 100.397 487.744 98.5531C487.744 96.7087 486.235 95.2183 484.391 95.2183Z" fill="white"/>
<path d="M472.933 101.46H459.724C459.463 101.46 459.258 101.255 459.258 100.994V99.9133C459.258 98.5347 460.395 97.4541 461.829 97.4541H470.828C472.244 97.4541 473.399 98.6092 473.399 100.025V100.994C473.399 101.255 473.194 101.46 472.933 101.46ZM460.19 100.528H472.467V100.025C472.467 99.1122 471.741 98.3856 470.828 98.3856H461.829C460.898 98.3856 460.19 99.0377 460.19 99.9133V100.528Z" fill="white"/>
<path d="M151.906 150.385L151.589 150.869C151.105 151.633 151.31 152.639 152.074 153.123L156.284 155.862L150.341 164.357L152.502 165.754L157.924 156.924L162.06 159.606C162.823 160.091 163.83 159.886 164.314 159.122L164.631 158.638L151.925 150.385H151.906Z" fill="white"/>
<path d="M165.301 157.762C165.301 157.762 165.115 157.743 165.041 157.687L152.279 149.397C152.074 149.267 151.999 149.006 152.13 148.782L157.03 139.486C157.141 139.262 157.421 139.169 157.663 139.299C157.887 139.411 157.98 139.709 157.849 139.933L153.155 148.857L165.134 156.644L170.462 146.901C170.592 146.677 170.872 146.584 171.095 146.714C171.319 146.845 171.412 147.124 171.282 147.348L165.711 157.538C165.655 157.65 165.544 157.743 165.413 157.762C165.376 157.762 165.339 157.762 165.301 157.762Z" fill="white"/>
<path opacity="0.2" d="M170.984 167.487H147.994V139.709H157.44L152.763 149.192L165.32 156.979L170.984 147.385V167.487Z" fill="white"/>
<path d="M170.984 167.953H148.013C147.752 167.953 147.547 167.748 147.547 167.487V139.709C147.547 139.448 147.752 139.243 148.013 139.243H170.984C171.244 139.243 171.449 139.448 171.449 139.709V167.487C171.449 167.748 171.244 167.953 170.984 167.953ZM148.46 167.021H170.499V140.175H148.46V167.021Z" fill="white"/>
<path d="M162.432 146.677L163.122 148.745L165.19 149.434L163.122 150.142L162.432 152.788L161.724 150.142L160.439 149.434L161.724 148.745L162.432 146.677Z" fill="white"/>
<path d="M165.041 141.032L165.581 142.634L167.183 143.175L165.581 143.715L165.041 145.783L164.5 143.715L163.494 143.175L164.5 142.634L165.041 141.032Z" fill="white"/>
</g>
<defs>
<clipPath id="clip0_46_53">
<rect width="518.68" height="424.265" fill="white" transform="translate(0 -0.950439)"/>
</clipPath>
</defs>
</svg>
