<svg width="519" height="389" viewBox="0 0 519 389" fill="none" xmlns="http://www.w3.org/2000/svg">
<g clip-path="url(#clip0_93_122)">
<path d="M262.972 295.92L285.958 392.414H183.859C183.859 392.414 243.728 280.46 262.972 295.92Z" fill="#36C9CC"/>
<path d="M340.482 108.797H256.023V213.288H340.482V108.797Z" fill="#92F5F7"/>
<path d="M150.182 255.404C146.013 252.791 142.538 249.379 139.331 245.754C134.146 239.943 129.442 233.759 125.486 226.989C119.339 216.38 115.276 205.078 112.818 193.083C110.947 184.073 110.679 174.903 111.321 165.841C112.55 148.141 118.056 131.775 127.625 116.741C132.275 109.437 137.621 102.72 143.928 96.8557C156.811 84.8073 171.671 76.0642 188.884 71.4794C197.383 69.2404 205.989 67.9076 214.809 67.6943C230.579 67.2679 245.599 70.1467 260.032 76.3841C266.179 79.0497 271.953 82.2483 277.458 86.0868C279.009 87.153 279.757 87.4729 280.292 84.8606C282.002 76.4907 285.102 68.5473 288.951 60.9771C294.029 51.0612 300.604 42.1049 308.623 34.4281C323.537 20.2472 341.016 10.8111 361.383 6.97272C367.851 5.74656 374.372 4.89358 380.894 5.0002C405.162 5.42669 427.079 12.7837 445.948 28.2439C463.962 43.0112 475.722 61.7768 481.335 84.3275C481.496 85.0205 481.496 85.7136 481.602 86.4066C478.502 86.4066 475.402 86.3 472.301 86.4599C470.591 86.5133 468.773 85.8735 467.17 86.9931C464.657 86.3 462.091 86.4599 459.526 86.4599C450.278 86.4599 441.03 86.4599 431.783 86.4599C389.179 86.4599 346.576 86.5133 303.919 86.4066C295.099 86.3533 286.332 94.0302 287.027 103.093C287.348 107.411 287.08 111.783 287.08 116.154C287.08 117.274 287.027 118.287 286.011 118.927C284.087 119.033 282.376 118.233 280.612 117.7C268.531 114.235 259.337 122.232 261.475 134.547C262.438 140.091 264.79 145.156 267.837 149.9C267.302 152.353 266.767 154.805 266.233 157.311C263.346 158.484 260.887 160.296 258.749 162.535C256.344 165.147 253.35 167.013 250.357 168.826C249.608 167.706 248.86 166.587 248.112 165.521C242.392 157.364 233.572 156.511 226.623 163.548C221.01 169.252 218.605 176.663 216.52 184.073C212.618 198.201 211.174 212.701 210.212 227.202C209.464 238.344 209.143 249.486 209.197 260.628C209.25 268.785 209.464 276.941 209.731 285.098C209.838 288.35 210.212 291.549 209.945 294.801C208.822 289.096 207.967 283.339 206.791 277.688C203.477 261.854 199.628 246.074 192.839 231.307C188.991 222.83 184.447 214.674 176.108 209.503C168.678 204.918 158.04 207.743 154.031 215.473C150.931 221.338 150.182 227.788 149.808 234.186C149.381 241.276 149.701 248.367 150.182 255.404Z" fill="#92F5F7"/>
<path d="M150.183 255.404C149.701 248.313 149.381 241.223 149.755 234.186C150.076 227.735 150.877 221.338 153.978 215.473C157.987 207.743 168.678 204.918 176.055 209.503C184.394 214.674 188.937 222.83 192.786 231.307C199.521 246.127 203.424 261.854 206.738 277.688C207.914 283.339 208.769 289.096 209.892 294.801C210.159 291.549 209.785 288.297 209.678 285.098C209.411 276.941 209.197 268.785 209.143 260.628C209.09 249.486 209.411 238.291 210.159 227.202C211.175 212.701 212.564 198.147 216.467 184.073C218.551 176.609 220.957 169.252 226.57 163.548C233.519 156.458 242.339 157.311 248.058 165.521C248.807 166.587 249.555 167.706 250.303 168.826C249.929 169.199 249.609 169.626 249.234 169.946C242.606 175.33 236.512 181.248 230.579 187.378C228.922 189.084 227.959 191.003 228.334 193.349C229.135 198.041 230.151 202.732 232.877 206.784C233.786 209.982 235.764 212.648 237.421 215.42C236.566 220.378 235.657 225.283 234.855 230.241C234.32 233.546 234 236.851 233.572 240.21C233.358 241.703 233.946 242.609 235.55 242.662C235.764 250.659 236.031 258.602 236.191 266.599C236.352 274.596 236.566 282.539 236.566 290.536C236.566 295.814 237.207 301.145 235.657 306.369C233.946 312.127 232.663 318.044 231.006 323.855C229.723 328.44 228.975 333.185 227.104 337.556C216.413 324.602 202.782 317.885 185.89 317.831C177.872 317.831 169.907 317.831 161.889 317.885C157.559 300.292 153.764 282.592 151.252 264.68C150.931 261.534 150.877 258.442 150.183 255.404Z" fill="#36C9CC"/>
<path d="M467.116 86.9931C468.72 85.9268 470.537 86.5666 472.248 86.46C475.348 86.3533 478.449 86.4066 481.549 86.4066C484.703 86.6199 487.91 86.0868 491.117 86.8865C498.815 88.8057 504 95.3096 504 103.36C504 193.882 504 284.458 504 374.981C504 382.551 500.739 388.202 493.576 391.294C493.202 391.454 492.935 391.827 492.614 392.147C484.489 392.094 476.31 392.041 468.185 392.041C468.399 391.774 468.559 391.401 468.88 391.294C475.722 387.562 478.502 381.965 478.449 374.075C478.288 285.471 478.342 196.868 478.342 108.264C478.342 105.279 478.716 102.293 478.074 99.308C476.792 93.1772 472.569 89.552 467.116 86.9931Z" fill="#ECECEC"/>
<path d="M161.996 317.831C170.014 317.831 177.979 317.778 185.997 317.778C202.889 317.831 216.573 324.548 227.211 337.503C227.158 338.196 227.211 338.943 227.051 339.582C225.821 344.274 224.592 348.912 223.309 353.55C222.507 356.429 222.186 359.414 220.796 362.08C204.065 362.026 187.334 362.026 170.549 361.973C170.068 361.6 169.587 361.227 169.106 360.8C163.76 355.736 157.452 354.35 150.396 356.109C146.655 357.015 143.875 359.521 141.042 361.973C135.643 362.026 130.297 362.026 124.898 362.08C124.898 361.92 124.845 361.706 124.845 361.547C125.273 359.201 125.112 356.908 125.059 354.563C126.769 336.33 141.79 320.657 159.911 318.258C160.606 318.151 161.301 317.991 161.996 317.831ZM167.181 334.304C160.179 334.304 153.123 334.358 146.12 334.304C143.982 334.304 142.432 335.104 142.432 337.183C142.432 339.316 144.089 340.115 146.12 340.115C159.965 340.115 173.863 340.115 187.708 340.115C189.793 340.115 191.61 339.156 191.557 336.97C191.503 334.784 189.739 334.304 187.708 334.304C180.866 334.358 174.023 334.304 167.181 334.304ZM166.86 348.165C173.81 348.165 180.705 348.165 187.654 348.165C189.525 348.165 191.396 347.952 191.396 345.447C191.396 342.941 189.686 342.728 187.708 342.728C173.917 342.728 160.125 342.728 146.387 342.728C144.463 342.728 142.699 342.888 142.699 345.393C142.699 347.899 144.356 348.165 146.334 348.165C153.123 348.165 159.965 348.165 166.86 348.165Z" fill="#118282"/>
<path d="M141.095 362.026C143.928 359.627 146.708 357.122 150.45 356.162C157.506 354.403 163.813 355.789 169.159 360.853C169.587 361.28 170.121 361.653 170.602 362.026C170.656 362.293 170.656 362.559 170.816 362.773C176.375 370.823 175.734 378.659 170.121 386.39C167.609 388.842 164.883 390.921 161.461 391.881C160.98 391.827 160.606 391.934 160.285 392.307C159.965 392.36 159.591 392.414 159.27 392.414C157.025 392.414 154.726 392.414 152.481 392.414C152.107 392.36 151.786 392.36 151.412 392.307C150.77 391.561 149.755 391.721 148.953 391.348C145.746 390.281 143.394 388.096 141.095 385.803C139.919 383.777 138.583 381.805 137.888 379.459C135.91 373.168 137.621 367.464 141.095 362.026Z" fill="#082223"/>
<path d="M141.095 362.026C137.621 367.411 135.91 373.115 137.888 379.566C138.583 381.858 139.919 383.831 141.095 385.91C130.671 384.151 123.188 373.168 124.952 362.133C130.297 362.08 135.696 362.08 141.095 362.026Z" fill="#92F5F7"/>
<path d="M468.185 392.094C466.956 392.147 465.726 392.254 464.444 392.254C412.699 392.254 361.008 392.254 309.264 392.254C308.73 392.254 308.195 392.201 307.66 392.201C307.66 390.761 307.019 389.482 306.538 388.202C304.881 383.884 300.391 383.351 297.076 381.218C297.023 379.406 295.793 380.419 294.992 380.365C295.099 379.726 294.724 379.566 294.19 379.619C294.243 378.659 293.709 378.446 292.853 378.553C292.8 378.233 292.8 377.913 292.747 377.593C294.938 377.913 295.099 376.634 295.099 374.874C294.831 354.03 294.617 333.185 294.457 312.34C294.404 308.395 293.976 304.557 293.014 300.772C290.929 292.615 288.951 284.458 286.92 276.248C286.867 276.088 286.813 275.928 286.706 275.769C286.492 274.862 286.279 274.009 286.065 273.103C287.401 272.517 286.92 271.29 286.92 270.331C286.92 257.909 286.92 245.434 286.92 233.013C293.602 233.226 300.177 234.292 306.698 235.785C306.698 236.691 307.34 237.278 307.928 237.758C309.638 239.037 309.318 240.05 307.874 241.329C306.538 242.449 305.308 243.782 304.079 245.061C303.651 245.488 302.636 245.968 303.438 246.714C304.079 247.3 304.72 246.501 305.202 246.021C306.484 244.795 307.821 243.622 308.943 242.236C310.173 240.743 311.082 240.636 312.471 242.182C313.968 243.888 315.465 245.701 317.657 246.661C317.015 244.795 315.465 243.728 314.182 242.396C311.509 239.623 311.509 239.41 314.77 237.758C319.634 240.05 324.552 242.182 329.31 244.688C331.715 245.968 333.158 245.861 334.014 243.195C337.809 244.635 341.658 245.914 345.346 247.78C346.576 248.42 348.233 249.326 349.034 247.087C349.836 247.3 350.638 247.514 351.44 247.727C364.75 252.098 378.06 256.47 391.371 260.841C393.242 261.428 395.808 261.641 396.663 262.974C397.572 264.36 395.701 266.492 395.113 268.305C393.883 272.037 394.845 274.702 398.32 276.835C398.854 277.794 398.16 278.541 397.892 279.34C396.984 281.953 395.914 284.458 395.006 287.071C393.883 290.163 394.845 292.722 397.411 293.788C400.084 294.854 402.65 293.575 403.879 290.376C410.775 272.197 417.671 254.018 424.566 235.838C425.742 232.746 424.78 230.134 422.214 229.121C419.541 228.055 417.029 229.388 415.746 232.533C414.517 235.572 413.341 238.611 412.111 241.703C411.737 241.863 411.416 241.969 411.042 242.129C410.347 242.076 409.652 242.022 408.904 242.022C407.407 239.623 408.797 238.184 410.454 236.585C411.737 235.359 413.448 234.346 413.554 232.16C411.523 233.599 409.813 235.412 408.262 237.278C407.086 238.664 406.231 238.504 405.055 237.224C403.772 235.785 402.329 234.452 400.939 233.066C400.565 232.693 400.137 231.84 399.442 232.533C398.908 233.119 399.496 233.706 399.924 234.132C401.1 235.359 402.222 236.638 403.505 237.704C405.269 239.144 405.59 240.263 403.612 241.969C402.008 243.302 400.191 244.635 399.656 246.927C401.634 245.488 403.345 243.728 405.055 242.076C405.91 241.276 406.819 240.476 407.3 242.396C405.109 243.515 403.772 245.274 403.024 247.567C402.436 249.326 401.688 251.032 401.1 252.791C400.725 253.858 400.298 254.124 399.175 253.698C397.197 252.898 395.166 252.312 393.135 251.672C382.711 248.313 372.234 244.955 361.81 241.596C361.971 240.316 361.971 239.09 360.955 238.131C355.342 232.746 349.943 226.882 340.909 228.641C340.802 228.428 340.696 228.215 340.589 227.948C339.359 225.816 336.686 226.082 335.029 224.696C334.816 224.536 334.602 224.43 334.388 224.27C328.722 222.297 323.323 219.685 317.924 217.179C317.763 217.073 317.55 216.913 317.389 216.806C313.487 215.58 309.852 213.714 306.217 211.955C306.003 211.795 305.79 211.688 305.576 211.528C304.4 211.528 303.438 210.889 302.475 210.302C302.315 209.129 302.315 207.903 301.139 207.157C300.765 205.078 299.642 203.159 299.696 200.973C299.803 200.386 299.696 199.907 299.054 199.693C299.001 199.32 298.894 198.947 298.84 198.627C299.375 197.454 299.001 196.601 297.932 196.015C297.825 195.375 297.718 194.735 297.557 194.096C297.718 193.456 297.557 192.976 296.863 192.816C296.756 192.176 296.595 191.537 296.488 190.897C296.649 190.257 296.488 189.777 295.74 189.617C295.633 189.138 295.526 188.658 295.473 188.125C295.312 187.911 295.205 187.698 295.045 187.485C293.762 184.286 292.479 181.141 291.196 177.942C291.089 177.729 290.929 177.569 290.822 177.356C290.769 177.089 290.662 176.769 290.608 176.503C290.769 175.81 290.555 175.277 289.753 175.223C288.737 173.357 287.241 171.758 286.867 169.572C286.92 166.32 286.973 163.068 286.973 159.816C286.973 156.298 285.239 132.165 288.5 129.5C289.997 127.474 290.501 141.36 293.762 142C295.045 142.266 291.877 143.93 295.045 144C294.19 140.321 294.029 137.319 293.762 133.481C294.136 132.947 294.724 133.107 295.205 133.001C299.054 131.988 301.032 129.536 300.818 126.017C300.604 122.392 298.894 120.686 294.617 120.046C291.731 119.566 289.333 123.353 286.5 122.5C287.516 121.807 286.973 117.487 286.973 116.421C286.92 112.049 287.241 107.678 286.92 103.36C286.225 94.2967 294.992 86.6732 303.812 86.6732C346.415 86.8332 389.019 86.7265 431.676 86.7265C440.923 86.7265 450.171 86.7265 459.419 86.7265C461.985 86.7265 464.55 86.6199 467.063 87.2596C472.515 89.8186 476.738 93.4438 478.021 99.6279C478.662 102.56 478.288 105.599 478.288 108.584C478.288 197.188 478.235 285.791 478.395 374.395C478.395 382.285 475.669 387.882 468.827 391.614C468.613 391.454 468.399 391.827 468.185 392.094ZM446.429 240.476C445.627 238.611 445.52 236.851 444.451 235.519C443.008 233.706 441.298 232.64 438.892 233.546C436.594 234.452 436.059 236.371 436.273 238.504C436.38 239.623 436.647 240.796 437.128 241.809C437.983 243.622 437.502 244.795 436.059 246.181C433.654 248.42 430.927 250.339 428.575 253.591C432.157 252.631 435.204 251.992 438.144 251.085C439.801 250.552 440.923 250.606 441.725 252.472C442.474 254.177 443.757 255.564 445.307 256.683C447.552 258.282 449.637 257.749 451.454 255.244C453.004 253.111 452.577 251.192 450.385 249.539C449.637 248.953 448.407 248.9 447.979 247.727C450.919 247.034 453.753 246.607 455.944 244.528C457.815 242.769 458.029 240.583 456.372 238.344C454.929 236.371 452.951 236.371 450.919 237.224C449.316 237.918 448.033 239.197 446.429 240.476ZM434.776 313.246C435.364 312.767 436.006 312.393 436.487 311.86C438.197 309.994 438.197 304.61 436.273 303.544C433.6 302.104 432.477 304.717 431.248 306.209C430.179 307.489 429.698 307.329 428.682 306.316C426.384 303.917 423.925 301.625 421.092 298.852C422 302.104 422.535 304.823 423.497 307.329C424.406 309.621 424.085 311.167 422.214 312.82C420.557 314.259 419.221 316.125 419.114 318.524C419.007 320.657 420.129 322.043 422 322.842C423.871 323.589 425.047 322.416 426.063 321.137C426.544 320.55 426.918 319.804 427.399 319.057C428.896 321.296 430.446 323.376 433.44 322.683C435.792 322.149 438.037 321.03 438.571 318.578C439.106 315.752 436.594 314.633 434.776 313.246ZM356.946 201.666C356.679 201.986 356.358 202.519 355.93 202.945C354.701 204.225 353.418 205.451 352.188 206.73C351.654 207.263 350.692 207.903 351.493 208.703C352.188 209.396 352.669 208.33 353.151 207.903C354.38 206.73 355.663 205.611 356.732 204.331C358.175 202.519 359.298 202.732 360.688 204.438C361.757 205.717 363.04 206.89 364.269 208.01C364.697 208.436 365.178 209.449 365.926 208.65C366.514 208.01 365.712 207.37 365.231 206.89C363.788 205.451 362.398 203.958 360.901 202.572C359.993 201.719 359.886 201.133 360.901 200.226C362.238 199.054 363.467 197.774 364.697 196.495C365.338 195.855 366.728 195.055 365.98 194.202C365.071 193.243 364.429 194.789 363.788 195.322C362.559 196.388 361.436 197.454 360.42 198.68C359.191 200.173 358.229 200.013 357.053 198.627C355.823 197.241 354.433 195.961 353.097 194.682C352.669 194.309 352.242 193.456 351.6 193.989C350.852 194.629 351.6 195.268 352.081 195.748C353.364 197.081 354.701 198.36 356.037 199.693C356.411 200.173 357.053 200.6 356.946 201.666ZM400.03 208.969C400.458 208.596 400.886 208.223 401.26 207.903C402.543 206.677 403.879 205.504 405.002 204.118C406.338 202.519 407.3 202.679 408.583 204.171C409.759 205.611 411.202 206.837 412.539 208.116C412.913 208.49 413.394 209.343 414.036 208.596C414.57 208.01 413.982 207.423 413.554 206.997C412.165 205.611 410.828 204.171 409.385 202.839C408.209 201.772 408.156 200.813 409.385 199.747C410.668 198.574 411.951 197.241 413.18 196.015C413.715 195.482 414.731 194.789 414.089 194.096C413.287 193.243 412.753 194.469 412.272 194.895C411.042 196.015 409.759 197.188 408.69 198.467C407.3 200.226 406.231 199.907 404.895 198.36C403.826 197.081 402.543 195.908 401.313 194.789C400.832 194.362 400.351 193.296 399.656 193.936C398.854 194.682 399.817 195.322 400.351 195.908C401.688 197.294 403.077 198.734 404.521 200.013C405.536 200.919 405.59 201.612 404.521 202.519C402.864 204.011 401.367 205.664 399.817 207.21C399.496 207.53 399.282 207.957 399.442 208.436C399.496 208.65 399.763 208.756 400.03 208.969ZM453.111 316.392C452.844 316.712 452.523 317.138 452.202 317.511C450.919 318.844 449.53 320.124 448.247 321.51C447.766 322.043 446.536 322.576 447.231 323.322C448.086 324.175 448.781 323.002 449.369 322.416C450.706 321.137 452.095 319.857 453.325 318.471C454.287 317.405 454.929 317.458 455.837 318.471C457.12 319.91 458.563 321.243 459.953 322.629C460.488 323.162 461.129 324.122 461.931 323.322C462.573 322.629 461.504 322.149 461.076 321.67C459.9 320.443 458.777 319.164 457.494 318.098C455.944 316.818 455.677 315.752 457.387 314.313C458.724 313.246 459.846 311.967 460.969 310.741C461.45 310.261 462.68 309.728 461.771 308.928C461.022 308.235 460.381 309.301 459.846 309.835C458.457 311.167 457.013 312.553 455.73 313.993C454.875 314.952 454.234 314.952 453.378 313.993C451.989 312.5 450.492 311.061 449.049 309.675C448.567 309.195 447.926 308.395 447.284 308.982C446.483 309.675 447.498 310.208 447.926 310.634C449.262 312.074 450.706 313.406 452.042 314.792C452.523 315.166 453.111 315.539 453.111 316.392ZM311.082 317.565C311.349 317.778 311.67 318.098 311.99 318.364C313.273 319.59 314.503 320.923 315.786 322.096C316.427 322.736 317.229 324.122 318.084 323.376C319.046 322.469 317.496 321.83 316.962 321.19C315.892 319.964 314.823 318.844 313.594 317.831C312.097 316.605 312.311 315.645 313.647 314.473C315.037 313.246 316.32 311.86 317.603 310.528C317.977 310.101 318.833 309.675 318.298 309.035C317.656 308.288 317.015 309.035 316.534 309.515C315.091 310.954 313.594 312.34 312.204 313.833C311.295 314.846 310.6 314.952 309.692 313.886C308.569 312.607 307.393 311.434 306.11 310.314C305.415 309.675 304.614 308.075 303.651 309.035C302.796 309.835 304.4 310.528 304.988 311.221C305.95 312.34 307.019 313.46 308.195 314.419C309.852 315.699 309.638 316.712 308.142 317.991C306.805 319.111 305.576 320.443 304.346 321.723C303.919 322.149 302.903 322.629 303.651 323.376C304.293 323.962 304.934 323.162 305.415 322.683C306.859 321.243 308.302 319.804 309.745 318.364C310.012 318.044 310.28 317.511 311.082 317.565ZM462.412 271.024C462.198 270.864 461.985 270.651 461.824 270.491C459.579 271.664 457.869 273.37 456.158 275.182C455.089 276.355 454.127 276.408 453.058 275.235C451.775 273.849 450.438 272.57 449.102 271.29C448.621 270.811 447.979 270.011 447.338 270.597C446.536 271.29 447.552 271.824 447.979 272.25C449.209 273.529 450.385 274.862 451.775 275.982C453.271 277.208 453.485 278.221 451.882 279.554C450.599 280.62 449.423 281.899 448.3 283.126C447.819 283.659 446.59 284.192 447.338 284.938C448.193 285.791 448.888 284.565 449.476 284.032C450.813 282.752 452.202 281.473 453.432 280.087C454.394 279.021 455.035 279.074 455.944 280.14C457.334 281.633 458.831 283.072 460.274 284.458C460.755 284.938 461.397 285.684 462.038 284.938C462.626 284.298 461.771 283.872 461.343 283.445C460.06 282.113 458.777 280.727 457.387 279.5C455.998 278.328 455.891 277.368 457.334 276.142C459.098 274.542 460.702 272.73 462.412 271.024ZM302.956 131.615C303.117 131.775 303.331 131.988 303.491 132.148C305.095 131.295 306.484 130.175 307.767 128.896C310.761 125.91 310.761 125.91 313.861 128.949C314.823 129.909 315.732 130.815 316.694 131.775C317.068 132.148 317.657 132.521 318.084 132.041C318.619 131.508 318.031 131.082 317.657 130.708C316.267 129.322 314.984 127.83 313.487 126.603C311.883 125.271 312.097 124.364 313.487 123.032C315.198 121.432 317.282 120.046 318.138 117.167C315.625 118.234 314.342 120.099 312.846 121.699C311.295 123.405 310.173 123.778 308.569 121.752C307.447 120.313 305.95 119.087 304.614 117.807C304.186 117.434 303.598 117.221 303.224 117.7C302.903 118.127 303.331 118.5 303.651 118.82C305.095 120.259 306.484 121.805 308.035 123.138C309.478 124.364 309.371 125.324 307.981 126.497C306.271 128.149 304.667 129.909 302.956 131.615ZM303.224 270.224C303.331 270.917 303.277 271.13 303.384 271.237C305.041 272.943 306.645 274.702 308.409 276.355C309.531 277.368 309.531 278.114 308.409 279.18C306.859 280.62 305.362 282.166 303.865 283.659C303.544 283.979 302.903 284.405 303.491 284.938C303.972 285.418 304.507 285.045 304.881 284.672C305.736 283.872 306.538 283.072 307.34 282.273C310.814 278.807 310.761 278.861 314.396 282.326C315.518 283.392 316.213 285.151 318.405 285.098C317.015 282.966 315.572 281.206 313.808 279.714C312.311 278.434 311.937 277.368 313.701 275.982C315.091 274.862 316.267 273.529 317.496 272.25C317.924 271.824 318.939 271.344 318.191 270.597C317.55 270.011 316.908 270.811 316.427 271.29C315.144 272.517 313.861 273.743 312.685 275.076C311.295 276.622 310.119 276.568 308.676 275.076C306.966 273.476 305.576 271.557 303.224 270.224ZM461.985 132.041C460.809 129.642 458.831 128.043 457.013 126.23C455.944 125.164 455.891 124.418 457.013 123.405C458.563 121.965 460.06 120.419 461.557 118.927C461.878 118.607 462.519 118.18 461.931 117.647C461.45 117.167 460.915 117.54 460.541 117.914C458.991 119.406 457.441 120.846 456.051 122.445C454.929 123.725 454.18 123.565 453.111 122.392C451.507 120.633 449.743 119.033 448.033 117.327C448.14 120.366 450.545 121.326 452.149 122.978C453.378 124.204 453.432 125.111 452.149 126.284C450.599 127.723 449.102 129.269 447.605 130.762C447.285 131.135 446.643 131.508 447.178 132.094C447.659 132.574 448.193 132.254 448.567 131.881C450.171 130.335 451.775 128.789 453.271 127.19C454.341 126.07 455.035 125.697 456.105 127.35C457.548 129.429 459.953 130.495 461.985 132.041ZM399.549 156.085C400.512 158.27 402.329 159.763 404.04 161.256C405.643 162.642 405.429 163.495 403.986 164.774C402.489 166.054 401.206 167.493 399.817 168.879C399.442 169.252 399.068 169.786 399.496 170.265C400.03 170.852 400.458 170.265 400.779 169.892C402.115 168.613 403.558 167.333 404.734 165.947C406.124 164.241 407.193 164.241 408.69 165.894C410.187 167.6 411.684 169.412 413.875 170.372C412.86 168.133 410.935 166.64 409.278 165.041C407.888 163.708 407.621 162.802 409.225 161.469C410.775 160.19 412.165 158.644 413.554 157.151C413.982 156.724 414.517 156.085 413.822 155.551C413.287 155.125 412.86 155.711 412.485 156.085C411.042 157.524 409.545 158.91 408.156 160.403C406.926 161.789 405.964 161.789 404.628 160.456C403.184 158.857 401.794 156.991 399.549 156.085ZM351.066 169.999C351.333 170.265 351.6 170.532 351.868 170.799C353.685 168.986 355.556 167.227 357.32 165.307C358.282 164.295 358.977 164.241 359.939 165.254C361.436 166.907 363.093 168.4 364.643 169.946C364.964 170.265 365.338 170.639 365.766 170.372C366.3 169.946 366.087 169.412 365.659 168.986C364.643 167.866 363.574 166.8 362.505 165.734C359.672 162.908 359.725 162.962 362.559 160.03C363.735 158.803 365.392 157.897 365.445 155.711C363.521 157.151 361.917 158.91 360.367 160.669C359.405 161.789 358.496 161.789 357.48 160.669C355.93 159.07 354.327 157.524 352.776 155.978C352.456 155.658 352.028 155.018 351.44 155.551C350.959 156.031 351.333 156.564 351.707 156.938C353.204 158.484 354.647 160.03 356.251 161.469C357.694 162.695 357.641 163.601 356.251 164.828C354.38 166.48 352.776 168.293 351.066 169.999ZM413.715 361.92C414.036 361.6 414.303 361.28 414.624 360.96C412.966 359.521 411.416 357.975 409.652 356.642C407.621 355.096 407.888 353.87 409.706 352.324C411.309 350.884 413.073 349.445 413.982 347.419C411.577 348.165 410.294 350.138 408.797 351.791C407.354 353.39 406.338 353.55 404.788 351.844C403.291 350.138 401.741 348.325 399.496 347.472C400.832 349.445 402.436 351.151 404.146 352.697C405.483 353.923 406.017 354.669 404.093 356.055C402.222 357.442 400.886 359.627 399.282 361.44C399.442 361.6 399.603 361.76 399.817 361.92C401.741 360.64 403.291 358.881 404.841 357.175C406.231 355.682 407.14 355.469 408.637 357.122C410.187 358.828 411.684 360.694 413.715 361.92ZM317.55 171.012C317.924 170.692 318.298 170.319 318.619 169.999C316.908 168.293 315.304 166.48 313.487 164.881C311.883 163.442 311.99 162.375 313.54 160.989C315.251 159.497 316.748 157.791 318.619 155.871C317.069 155.711 316.641 156.298 316.16 156.778C314.449 158.43 312.846 161.256 310.975 161.469C308.836 161.682 307.447 158.43 305.576 156.884C304.988 156.404 304.507 155.445 303.063 156.138C304.774 157.791 306.217 159.337 307.874 160.669C309.799 162.215 309.799 163.495 307.928 165.148C306.217 166.64 304.4 168.133 303.438 170.319C305.522 169.519 306.752 167.76 308.248 166.32C310.921 163.761 310.921 163.708 313.434 166.267C314.823 167.813 316.16 169.412 317.55 171.012ZM462.145 362.133C462.092 361.44 462.145 361.227 462.091 361.12C460.862 359.841 459.686 358.561 458.403 357.282C455.41 354.296 455.41 354.296 458.35 351.417C459.633 350.138 461.022 348.965 462.519 347.632C461.236 346.886 460.809 347.419 460.327 347.792C459.579 348.539 458.831 349.285 458.082 350.031C454.608 353.497 454.661 353.443 451.24 350.138C450.171 349.125 449.369 347.686 447.391 347.099C447.979 348.858 449.155 349.551 450.011 350.458C454.287 354.883 454.287 353.603 450.011 358.081C448.942 359.201 447.338 359.894 447.605 362.08C449.583 360.587 451.24 358.721 452.79 356.855C454.073 355.309 455.142 355.469 456.479 356.908C458.136 358.668 459.686 360.587 462.145 362.133ZM461.878 170.532C462.038 170.372 462.252 170.159 462.412 169.999C460.648 168.24 458.938 166.427 457.12 164.721C455.784 163.495 455.73 162.482 457.12 161.256C458.884 159.656 460.488 157.897 462.198 156.245C461.985 156.085 461.824 155.871 461.61 155.711C459.365 156.938 457.869 159.017 456.105 160.829C454.982 162.002 454.287 162.109 453.165 160.829C451.561 159.017 449.797 157.417 447.873 155.498C447.712 156.298 447.552 156.564 447.659 156.618C448.835 157.897 450.064 159.23 451.294 160.456C453.806 163.015 453.806 162.962 451.24 165.627C449.797 167.12 447.872 168.293 446.803 170.852C448.674 170.105 449.476 168.879 450.438 167.92C454.608 163.815 454.554 163.868 458.617 167.813C459.633 168.719 460.434 170.105 461.878 170.532ZM303.865 346.939C303.598 347.206 303.277 347.526 303.01 347.792C304.186 348.805 305.469 349.765 306.591 350.884C310.44 354.723 310.387 353.816 306.645 357.708C305.469 358.934 303.758 359.841 303.812 362.08C305.683 360.747 307.233 359.041 308.623 357.228C310.173 355.256 311.456 355.416 313.059 357.228C314.556 358.881 316.053 360.747 318.405 362.08C318.245 360.374 317.175 359.841 316.48 359.147C311.67 354.296 311.67 354.296 316.374 349.445C316.962 348.858 318.031 348.432 317.389 346.246C315.411 348.432 313.754 350.191 312.258 352.004C311.242 353.23 310.494 353.283 309.318 352.057C307.607 350.298 306.057 348.272 303.865 346.939ZM447.659 194.415C448.3 196.175 449.743 197.241 450.973 198.467C453.753 201.293 453.753 201.239 450.919 204.171C449.743 205.398 448.086 206.304 447.979 208.436C449.637 207.263 451.08 205.824 452.363 204.225C453.913 202.306 455.196 202.306 456.853 204.171C458.35 205.877 459.846 207.69 462.038 208.65C461.183 206.517 459.312 205.238 457.869 203.692C455.463 201.186 455.463 201.293 457.922 198.68C459.365 197.134 461.29 195.961 461.931 193.669C459.9 195.162 458.082 196.868 456.372 198.68C455.142 200.013 454.18 200.066 452.844 198.734C451.24 197.241 449.904 195.375 447.659 194.415ZM318.458 194.469C316.587 194.202 316.213 195.162 315.625 195.748C310.761 200.44 310.814 200.44 305.896 195.642C305.148 194.949 304.667 193.722 302.956 194.309C304.346 196.121 306.003 197.721 307.821 199.107C309.799 200.653 309.692 201.932 307.821 203.585C306.11 205.078 304.293 206.57 303.01 208.81C303.598 208.81 303.865 208.863 303.919 208.81C304.988 207.85 306.003 206.89 307.019 205.877C311.349 201.666 310.173 201.666 314.449 205.771C315.411 206.677 316.16 207.957 317.817 208.116C316.374 206.197 314.77 204.385 312.952 202.785C311.723 201.666 311.723 200.973 312.952 199.853C314.823 198.254 316.427 196.495 318.458 194.469ZM350.638 131.135C351.066 131.561 351.44 131.988 351.868 132.414C353.632 130.655 355.503 128.949 357.16 127.083C358.282 125.857 359.084 125.91 360.153 127.083C361.864 128.896 363.681 130.602 365.445 132.361C365.659 132.201 365.819 131.988 366.033 131.828C365.819 130.922 364.964 130.389 364.376 129.695C362.933 128.043 360.207 126.817 360.153 124.844C360.1 122.818 362.933 121.699 364.323 119.993C364.911 119.246 366.14 118.873 365.338 117.167C363.574 118.553 362.131 120.153 360.795 121.912C359.244 123.938 358.068 123.671 356.465 121.859C355.021 120.259 353.578 118.5 351.387 117.7C352.883 119.78 354.647 121.645 356.465 123.351C357.534 124.364 357.694 125.164 356.465 126.124C354.487 127.83 352.563 129.482 350.638 131.135ZM413.982 132.414C414.036 130.868 413.073 130.495 412.539 129.855C411.096 128.096 408.156 126.87 408.209 124.791C408.262 122.765 411.149 121.486 412.646 119.726C413.18 119.14 414.303 118.713 413.554 116.581C412.111 118.287 411.096 119.673 409.92 120.846C406.766 124.098 406.766 123.991 403.558 120.952C402.329 119.78 401.42 118.074 399.229 118.127C400.512 119.939 402.115 121.432 403.879 122.765C405.964 124.311 405.59 125.537 403.826 127.083C402.222 128.523 400.512 129.962 399.603 132.041C401.955 130.815 403.612 128.842 405.376 127.03C406.445 125.964 407.14 125.91 408.209 127.03C409.92 128.789 411.523 130.762 413.982 132.414ZM413.929 323.322C412.913 321.137 411.149 319.697 409.438 318.151C407.781 316.658 407.781 315.645 409.438 314.153C411.149 312.66 412.966 311.167 414.517 308.502C412.325 309.355 411.47 310.688 410.454 311.7C406.712 315.326 406.766 315.326 403.131 311.807C402.062 310.741 401.206 309.355 399.282 308.768C399.924 310.741 401.367 311.54 402.436 312.66C405.964 316.232 405.964 316.179 402.436 319.75C401.367 320.817 399.977 321.723 399.389 323.162C399.71 323.482 400.03 323.749 400.405 324.069C401.42 322.842 402.329 321.563 403.398 320.443C406.766 316.978 406.766 317.032 410.133 320.337C411.256 321.403 412.218 322.789 413.929 323.322ZM351.493 361.706C353.685 360.694 355.128 358.934 356.679 357.282C358.175 355.629 359.137 355.576 360.634 357.282C362.131 358.988 363.628 360.8 365.926 361.653C364.643 359.787 363.147 358.028 361.436 356.642C359.512 355.096 359.779 354.03 361.489 352.484C363.147 350.991 364.911 349.605 365.766 347.366C364.429 348.165 363.253 349.178 362.184 350.245C358.603 353.763 358.656 353.763 355.075 350.245C354.006 349.178 353.097 347.792 351.173 347.686C351.975 349.178 353.257 350.085 354.38 351.151C357.855 354.509 357.801 354.509 354.487 357.868C353.418 359.041 352.028 360 351.493 361.706ZM351.493 270.597C351.814 272.197 353.151 273.05 354.166 274.063C357.801 277.794 357.801 277.741 354.273 281.366C353.204 282.432 351.814 283.285 351.226 285.205C353.204 284.565 354.006 283.126 355.128 282.059C358.71 278.541 358.656 278.541 362.238 282.059C363.307 283.126 364.216 284.458 366.194 285.365C365.712 283.552 364.75 283.019 364.055 282.273C359.565 277.741 359.565 277.741 363.948 273.263C364.75 272.463 365.926 271.877 365.98 270.118C363.521 271.77 361.864 273.796 360.1 275.555C359.031 276.622 358.336 276.622 357.267 275.555C355.449 273.849 353.845 271.824 351.493 270.597ZM351.868 308.608C351.707 308.822 351.493 309.035 351.333 309.248C351.6 310.368 352.616 310.901 353.311 311.647C357.801 316.179 357.801 316.179 353.418 320.657C352.616 321.456 351.44 322.043 351.387 323.802C353.685 322.363 355.182 320.603 356.679 318.951C358.175 317.298 359.191 317.298 360.688 318.951C362.184 320.657 363.681 322.469 365.873 323.376C365.338 321.776 364.055 320.817 362.986 319.75C359.512 316.232 359.512 316.285 362.879 312.82C364.002 311.7 365.499 310.794 365.712 308.928C363.681 310.421 361.864 312.127 360.153 313.993C359.031 315.219 358.282 315.219 357.16 313.993C355.449 312.074 353.632 310.368 351.868 308.608Z" fill="white"/>
<path d="M286.92 169.306C287.294 171.492 288.791 173.091 289.806 174.957C289.753 175.597 290.127 175.97 290.662 176.236C290.715 176.503 290.822 176.823 290.876 177.089C290.982 177.303 291.143 177.462 291.25 177.676C292.533 180.874 293.816 184.02 295.099 187.218C295.259 187.432 295.366 187.645 295.526 187.858C295.633 188.338 295.74 188.818 295.793 189.351C295.58 190.044 295.954 190.364 296.542 190.63C296.649 191.27 296.809 191.91 296.916 192.55C296.702 193.243 297.076 193.562 297.611 193.829C297.718 194.469 297.825 195.108 297.985 195.748C297.932 196.761 298.199 197.614 298.894 198.361C298.947 198.734 299.054 199.107 299.108 199.427C298.84 200.12 299.215 200.44 299.749 200.706C299.696 202.892 300.818 204.811 301.192 206.89C301.192 208.116 301.299 209.289 302.529 210.036C303.491 210.622 304.4 211.262 305.629 211.262C305.843 211.422 306.057 211.528 306.271 211.688C309.905 213.448 313.54 215.313 317.443 216.54C317.603 216.646 317.817 216.806 317.977 216.913C323.43 219.418 328.775 222.031 334.441 224.003C334.655 224.163 334.869 224.27 335.083 224.43C336.74 225.869 339.413 225.603 340.642 227.682C340.589 227.948 340.535 228.215 340.482 228.481C337.916 233.173 335.831 238.077 334.067 243.142C333.158 245.808 331.769 245.914 329.363 244.635C324.659 242.129 319.688 239.997 314.823 237.704C313.701 237.171 312.632 236.691 311.509 236.158C306.805 233.013 301.46 231.094 296.488 228.375C293.548 226.775 290.234 225.816 287.829 223.364C286.706 220.698 285.423 218.086 283.766 215.74C280.773 209.929 278.367 203.852 275.587 197.134C275.427 198.414 275.213 198.947 275.32 199.373C276.229 203.212 277.298 207.05 278.153 210.942C279.49 217.019 281.307 223.044 282.109 229.281C281.521 230.347 281.521 231.52 281.681 232.693C281.093 235.252 280.719 237.864 280.398 240.476C280.185 242.182 280.933 244.528 278.421 245.434C272.006 244.795 265.538 244.475 259.07 244.102C251.212 243.622 243.354 242.875 235.496 242.716C233.893 242.662 233.358 241.756 233.519 240.263C233.946 236.958 234.267 233.599 234.801 230.294C235.603 225.336 236.512 220.431 237.367 215.473C239.452 207.423 241.056 199.267 243.728 191.323C244.263 189.671 244.798 188.071 245.332 186.419C245.225 186.365 245.065 186.312 244.958 186.259C240.949 193.083 236.886 199.96 232.877 206.784C230.151 202.732 229.135 198.041 228.333 193.349C227.906 191.004 228.921 189.084 230.579 187.378C236.512 181.248 242.606 175.33 249.234 169.946C249.608 169.626 249.929 169.199 250.303 168.826C253.297 167.013 256.237 165.148 258.696 162.535C260.834 160.243 263.293 158.484 266.179 157.311C269.601 155.978 273.129 156.138 276.657 156.671C277.512 157.417 278.314 158.164 279.49 158.377C281.788 160.936 284.14 163.388 285.423 166.694C285.744 167.547 285.744 168.826 286.92 169.306ZM300.497 211.528C300.337 211.155 300.123 210.835 299.963 210.462C297.237 212.115 294.457 213.767 291.731 215.473C291.945 215.793 292.105 216.113 292.319 216.486C295.045 214.78 297.771 213.181 300.497 211.528Z" fill="#BAE1E2"/>
<path d="M285.958 118.927C288.791 119.833 291.784 119.3 294.671 119.78C298.947 120.473 300.658 122.125 300.872 125.75C301.085 129.269 299.108 131.721 295.259 132.734C294.778 132.841 294.19 132.681 293.816 133.214C290.02 133.481 286.385 132.894 282.911 131.508C281.949 131.135 280.879 130.868 279.81 130.708C277.726 130.442 276.336 131.082 276.443 133.534C276.496 134.494 276.496 135.506 275.481 136.253C274.946 135.826 274.465 135.347 273.877 134.973C271.899 133.694 269.119 134.12 267.623 135.933C266.126 137.692 266.019 140.944 267.943 142.17C270.402 143.663 269.6 145.209 268.906 147.022C268.531 147.981 268.157 148.994 267.783 149.954C264.736 145.209 262.384 140.145 261.422 134.6C259.284 122.339 268.478 114.289 280.559 117.754C282.323 118.18 284.033 119.033 285.958 118.927Z" fill="#082223"/>
<path d="M267.783 149.847C268.157 148.888 268.531 147.875 268.906 146.915C269.601 145.102 270.402 143.556 267.943 142.064C266.019 140.891 266.126 137.586 267.623 135.826C269.119 134.067 271.953 133.64 273.877 134.867C274.465 135.24 274.946 135.72 275.481 136.146C276.443 135.4 276.443 134.44 276.443 133.427C276.336 130.975 277.726 130.335 279.81 130.602C280.88 130.762 281.895 131.028 282.911 131.401C286.439 132.787 290.074 133.374 293.816 133.107C294.083 136.892 295.366 140.518 296.221 144.196C296.381 144.889 296.969 146.169 295.687 145.955C292.426 145.316 291.196 147.555 289.7 149.581C289.058 148.088 287.454 148.354 286.332 147.875C285.584 147.555 284.675 146.648 283.98 147.608C283.445 148.354 284.194 149.261 284.621 150.06C286.278 153.152 285.904 153.792 282.269 154.059C281.681 154.112 281.04 154.059 280.398 154.059C277.619 153.046 274.946 151.82 272.273 150.54C273.717 152.566 275.16 154.539 276.657 156.564C273.129 156.031 269.601 155.871 266.179 157.204C266.714 154.805 267.249 152.353 267.783 149.847Z" fill="#F7CDC6"/>
<path d="M232.877 206.73C236.886 199.907 240.949 193.029 244.958 186.206C245.065 186.259 245.225 186.312 245.332 186.366C244.798 188.018 244.263 189.617 243.729 191.27C241.109 199.16 239.452 207.37 237.367 215.42C235.764 212.595 233.786 209.982 232.877 206.73Z" fill="#082223"/>
<path d="M220.743 362.133C220.582 365.278 219.513 368.157 218.498 371.089C215.878 370.023 213.259 369.597 210.479 370.396C203.584 372.369 200.697 378.713 203.156 386.55C196.154 386.603 189.204 386.603 182.202 386.656C178.139 386.603 174.13 386.55 170.068 386.443C175.68 378.713 176.322 370.876 170.763 362.826C170.602 362.613 170.602 362.346 170.549 362.08C187.28 362.08 204.011 362.08 220.743 362.133Z" fill="#92F5F7"/>
<path d="M167.181 334.304C174.023 334.304 180.865 334.358 187.708 334.304C189.739 334.304 191.556 334.784 191.556 336.97C191.61 339.156 189.792 340.115 187.708 340.115C173.863 340.115 159.965 340.115 146.12 340.115C144.088 340.115 142.431 339.369 142.431 337.183C142.431 335.051 143.982 334.304 146.12 334.304C153.122 334.358 160.125 334.304 167.181 334.304Z" fill="#082223"/>
<path d="M166.86 348.165C160.018 348.165 153.176 348.165 146.334 348.165C144.356 348.165 142.699 347.899 142.699 345.393C142.699 342.887 144.463 342.728 146.387 342.728C160.178 342.728 173.97 342.728 187.708 342.728C189.686 342.728 191.396 342.941 191.396 345.446C191.396 347.952 189.525 348.165 187.654 348.165C180.705 348.165 173.756 348.165 166.86 348.165Z" fill="#082223"/>
<path d="M170.068 386.39C174.13 386.443 178.139 386.496 182.202 386.603C182.736 388.469 183.218 390.335 183.752 392.201C177.605 392.254 171.457 392.307 165.31 392.307C164.027 392.307 162.637 392.787 161.408 391.934C164.829 390.921 167.555 388.842 170.068 386.39Z" fill="white"/>
<path d="M265.591 378.766C274.679 378.393 283.766 377.966 292.853 377.593C292.907 377.913 292.907 378.233 292.96 378.553C291.196 379.992 288.524 379.886 286.706 382.231C289.807 381.858 291.891 380.206 294.297 379.619C294.831 379.566 295.205 379.726 295.099 380.365C293.709 381.911 291.143 381.538 289.7 383.884C292.693 383.511 294.778 381.858 297.183 381.218C300.497 383.351 304.934 383.884 306.645 388.202C307.126 389.482 307.767 390.761 307.767 392.201C299.856 392.254 291.945 392.307 284.087 392.36C277.084 392.414 270.028 392.414 263.026 392.467L263.079 392.307C263.186 391.614 263.239 390.921 263.346 390.228C263.774 386.336 265.538 382.711 265.591 378.766Z" fill="#BAE1E2"/>
<path d="M398.373 276.728C394.899 274.596 393.937 271.983 395.166 268.198C395.754 266.386 397.625 264.307 396.716 262.867C395.861 261.588 393.295 261.375 391.424 260.735C378.114 256.363 364.804 251.992 351.493 247.62C351.707 247.14 351.921 246.714 352.081 246.234C352.509 245.541 352.669 244.581 353.845 244.635C354.594 244.688 355.449 244.262 355.503 243.569C355.716 241.223 357.053 241.436 358.763 241.703C359.725 241.863 360.795 241.436 361.81 241.276C372.234 244.635 382.711 247.993 393.135 251.352C395.166 251.992 397.197 252.578 399.175 253.378C400.298 253.858 400.725 253.538 401.1 252.472C401.688 250.712 402.436 249.006 403.024 247.247C403.772 244.955 405.109 243.195 407.3 242.076C407.835 241.969 408.369 241.809 408.85 241.703C409.545 241.756 410.24 241.809 410.989 241.809C411.202 241.916 411.363 241.969 411.577 242.076C411.684 243.089 411.309 243.995 410.935 244.901C407.888 252.951 404.841 261.055 401.634 269.051C400.672 271.717 400.458 274.702 398.373 276.728Z" fill="#1C9093"/>
<path d="M398.373 276.728C400.458 274.649 400.672 271.717 401.688 269.158C404.895 261.161 407.942 253.058 410.989 245.008C411.309 244.102 411.737 243.195 411.63 242.182C411.791 241.969 411.951 241.703 412.111 241.489C413.341 238.451 414.517 235.412 415.746 232.32C417.029 229.174 419.541 227.842 422.214 228.908C424.78 229.921 425.742 232.48 424.566 235.625C417.724 253.911 410.828 272.09 403.933 290.216C402.703 293.415 400.137 294.694 397.465 293.628C394.899 292.615 393.937 290.003 395.059 286.911C395.968 284.298 397.037 281.793 397.946 279.181C398.213 278.487 398.908 277.688 398.373 276.728Z" fill="#082223"/>
<path d="M446.429 240.476C447.979 239.25 449.262 237.971 450.919 237.224C452.951 236.318 454.928 236.318 456.372 238.344C458.029 240.583 457.815 242.769 455.944 244.528C453.752 246.607 450.919 247.034 447.979 247.727C448.407 248.9 449.636 248.953 450.385 249.539C452.576 251.192 453.004 253.111 451.454 255.244C449.636 257.749 447.552 258.282 445.307 256.683C443.756 255.617 442.473 254.177 441.725 252.472C440.923 250.659 439.801 250.606 438.144 251.085C435.204 251.992 432.157 252.685 428.575 253.591C430.874 250.339 433.653 248.42 436.059 246.181C437.502 244.848 437.983 243.622 437.128 241.809C436.647 240.796 436.38 239.623 436.273 238.504C436.059 236.318 436.593 234.399 438.892 233.546C441.297 232.586 443.008 233.706 444.451 235.519C445.52 236.851 445.627 238.611 446.429 240.476Z" fill="#A7A7A7"/>
<path d="M361.864 241.329C360.848 241.489 359.779 241.916 358.817 241.756C357.106 241.489 355.77 241.276 355.556 243.622C355.503 244.315 354.647 244.688 353.899 244.688C352.723 244.635 352.563 245.594 352.135 246.287C351.173 246.501 350.478 246.554 349.729 245.434C348.019 242.875 345.4 241.329 342.727 239.943C342.139 239.623 341.284 238.877 340.856 239.73C340.321 240.796 341.604 240.903 342.192 241.223C344.865 242.769 347.484 244.315 349.141 247.034C348.286 249.273 346.629 248.367 345.453 247.727C341.818 245.861 337.916 244.581 334.121 243.142C335.885 238.077 337.969 233.173 340.535 228.481C340.696 228.481 340.856 228.428 341.016 228.375C350.05 226.562 355.449 232.48 361.062 237.864C362.024 238.824 361.971 240.103 361.864 241.329ZM352.188 244.208C351.707 240.903 347.003 235.892 343.689 235.625C347.431 238.184 349.516 241.489 352.188 244.208ZM355.128 240.796C354.647 237.704 350.104 232.96 347.217 232.64C350.317 234.932 352.456 238.077 355.128 240.796Z" fill="#F7CDC6"/>
<path d="M434.776 313.246C436.593 314.633 439.159 315.752 438.518 318.524C437.93 320.977 435.685 322.096 433.386 322.629C430.393 323.322 428.843 321.243 427.346 319.004C426.865 319.804 426.491 320.497 426.009 321.083C424.994 322.363 423.871 323.536 421.947 322.789C420.022 322.043 418.953 320.603 419.06 318.471C419.167 316.072 420.504 314.206 422.161 312.767C424.032 311.114 424.352 309.568 423.444 307.276C422.428 304.77 421.947 302.051 421.038 298.799C423.871 301.571 426.33 303.864 428.629 306.263C429.644 307.329 430.125 307.489 431.195 306.156C432.424 304.717 433.547 302.051 436.219 303.49C438.197 304.557 438.197 309.941 436.433 311.807C435.952 312.393 435.364 312.767 434.776 313.246Z" fill="#A7A7A7"/>
<path d="M286.118 273.103C283.285 263.933 280.933 254.657 278.528 245.381C280.987 244.475 280.292 242.129 280.505 240.423C280.826 237.811 281.2 235.199 281.788 232.64C283.552 232.64 285.316 232.48 287.027 232.96C287.027 245.381 287.027 257.856 287.027 270.278C287.027 271.29 287.455 272.463 286.118 273.103Z" fill="#DEEAF6"/>
<path d="M287.027 232.96C285.316 232.48 283.552 232.64 281.788 232.64C281.628 231.467 281.628 230.294 282.216 229.228C283.552 227.362 282.323 225.176 282.911 223.257C284.568 223.31 286.225 223.31 287.882 223.363C290.341 225.816 293.655 226.775 296.542 228.375C301.46 231.094 306.805 233.013 311.563 236.158C309.905 236.638 308.409 235.572 306.805 235.732C300.284 234.239 293.709 233.173 287.027 232.96Z" fill="#1C9093"/>
<path d="M356.946 201.666C356.999 200.6 356.411 200.173 355.93 199.693C354.647 198.36 353.257 197.081 351.974 195.748C351.493 195.268 350.745 194.629 351.493 193.989C352.135 193.456 352.562 194.255 352.99 194.682C354.326 195.961 355.716 197.241 356.946 198.627C358.122 200.013 359.084 200.173 360.313 198.68C361.329 197.454 362.505 196.335 363.681 195.322C364.323 194.789 364.964 193.243 365.873 194.202C366.675 195.055 365.231 195.802 364.59 196.495C363.36 197.774 362.131 199.054 360.795 200.226C359.832 201.079 359.886 201.719 360.795 202.572C362.291 203.958 363.735 205.451 365.124 206.89C365.605 207.37 366.407 208.01 365.819 208.65C365.124 209.449 364.59 208.383 364.162 208.01C362.933 206.837 361.65 205.717 360.581 204.438C359.191 202.785 358.068 202.519 356.625 204.331C355.556 205.664 354.273 206.784 353.044 207.903C352.562 208.33 352.081 209.396 351.386 208.703C350.585 207.957 351.6 207.317 352.081 206.73C353.311 205.451 354.594 204.225 355.823 202.945C356.358 202.519 356.732 201.986 356.946 201.666Z" fill="#ECECEC"/>
<path d="M400.03 208.969C399.763 208.809 399.496 208.703 399.442 208.49C399.282 208.01 399.496 207.637 399.817 207.263C401.367 205.664 402.864 204.065 404.521 202.572C405.59 201.612 405.536 200.973 404.521 200.066C403.077 198.787 401.741 197.348 400.351 195.961C399.817 195.428 398.854 194.789 399.656 193.989C400.351 193.349 400.832 194.415 401.313 194.842C402.543 196.015 403.826 197.134 404.895 198.414C406.178 199.96 407.247 200.226 408.69 198.52C409.759 197.188 410.989 196.068 412.272 194.949C412.753 194.469 413.287 193.243 414.089 194.149C414.784 194.895 413.715 195.535 413.18 196.068C411.951 197.348 410.721 198.627 409.385 199.8C408.209 200.919 408.262 201.826 409.385 202.892C410.828 204.225 412.165 205.611 413.555 207.05C413.982 207.477 414.57 208.063 414.036 208.65C413.394 209.396 412.966 208.543 412.539 208.17C411.202 206.89 409.813 205.611 408.583 204.225C407.3 202.732 406.338 202.572 405.002 204.171C403.879 205.557 402.543 206.73 401.26 207.957C400.886 208.223 400.458 208.543 400.03 208.969Z" fill="#ECECEC"/>
<path d="M453.111 316.392C453.111 315.539 452.523 315.166 452.095 314.739C450.706 313.353 449.316 312.02 447.979 310.581C447.552 310.154 446.536 309.675 447.338 308.928C447.979 308.342 448.621 309.141 449.102 309.621C450.545 311.061 452.042 312.447 453.432 313.94C454.287 314.899 454.929 314.899 455.784 313.94C457.12 312.5 458.51 311.167 459.9 309.781C460.434 309.248 461.129 308.235 461.824 308.875C462.679 309.675 461.45 310.208 461.022 310.688C459.9 311.914 458.724 313.193 457.441 314.259C455.677 315.645 455.998 316.712 457.548 318.044C458.831 319.111 460.007 320.39 461.129 321.616C461.557 322.096 462.626 322.576 461.985 323.269C461.236 324.069 460.595 323.109 460.007 322.576C458.617 321.243 457.174 319.857 455.891 318.418C454.982 317.405 454.287 317.351 453.378 318.418C452.149 319.804 450.759 321.083 449.423 322.363C448.835 322.896 448.14 324.122 447.284 323.269C446.536 322.523 447.819 321.99 448.3 321.456C449.583 320.07 450.919 318.791 452.256 317.458C452.523 317.138 452.844 316.712 453.111 316.392Z" fill="#ECECEC"/>
<path d="M311.082 317.565C310.333 317.565 310.013 318.045 309.692 318.418C308.249 319.857 306.805 321.297 305.362 322.736C304.881 323.216 304.239 324.015 303.598 323.429C302.85 322.683 303.865 322.203 304.293 321.776C305.522 320.497 306.698 319.164 308.088 318.045C309.585 316.765 309.799 315.805 308.142 314.473C306.966 313.513 305.897 312.447 304.934 311.274C304.346 310.634 302.743 309.941 303.598 309.088C304.614 308.129 305.362 309.728 306.057 310.368C307.34 311.487 308.516 312.66 309.638 313.94C310.601 315.006 311.242 314.899 312.151 313.886C313.541 312.394 315.037 310.954 316.481 309.568C316.962 309.088 317.603 308.342 318.245 309.088C318.833 309.728 317.977 310.154 317.55 310.581C316.267 311.914 314.984 313.3 313.594 314.526C312.204 315.699 312.044 316.658 313.541 317.885C314.77 318.898 315.893 320.07 316.908 321.243C317.443 321.883 318.993 322.523 318.031 323.429C317.175 324.229 316.427 322.789 315.732 322.15C314.449 320.923 313.22 319.644 311.937 318.418C311.616 318.045 311.295 317.778 311.082 317.565Z" fill="#ECECEC"/>
<path d="M462.412 271.024C460.702 272.73 459.098 274.542 457.281 276.142C455.837 277.421 455.944 278.327 457.334 279.5C458.724 280.726 460.007 282.113 461.29 283.445C461.664 283.872 462.519 284.298 461.985 284.938C461.343 285.684 460.702 284.938 460.221 284.458C458.777 283.019 457.281 281.633 455.891 280.14C454.982 279.127 454.287 279.021 453.378 280.087C452.149 281.473 450.759 282.752 449.423 284.032C448.835 284.565 448.14 285.791 447.284 284.938C446.536 284.192 447.819 283.659 448.247 283.125C449.369 281.899 450.545 280.62 451.828 279.554C453.485 278.221 453.218 277.208 451.721 275.982C450.385 274.862 449.155 273.529 447.926 272.25C447.498 271.823 446.483 271.344 447.284 270.597C447.926 270.011 448.567 270.811 449.048 271.29C450.385 272.57 451.721 273.903 453.004 275.235C454.127 276.408 455.035 276.355 456.105 275.182C457.762 273.37 459.526 271.61 461.771 270.491C461.985 270.651 462.198 270.864 462.412 271.024Z" fill="#ECECEC"/>
<path d="M302.956 131.615C304.667 129.909 306.271 128.149 308.088 126.55C309.478 125.324 309.585 124.418 308.141 123.191C306.591 121.859 305.201 120.313 303.758 118.873C303.437 118.553 303.063 118.18 303.33 117.754C303.758 117.221 304.346 117.434 304.72 117.86C306.057 119.14 307.553 120.366 308.676 121.805C310.28 123.831 311.402 123.458 312.952 121.752C314.396 120.153 315.732 118.287 318.244 117.221C317.389 120.099 315.304 121.485 313.594 123.085C312.151 124.418 311.99 125.377 313.594 126.657C315.091 127.883 316.373 129.376 317.763 130.762C318.084 131.135 318.725 131.508 318.191 132.094C317.71 132.574 317.175 132.201 316.801 131.828C315.839 130.922 314.877 129.962 313.968 129.002C310.868 125.91 310.868 125.91 307.874 128.949C306.591 130.229 305.201 131.348 303.598 132.201C303.33 131.935 303.17 131.775 302.956 131.615Z" fill="#ECECEC"/>
<path d="M303.224 270.224C305.629 271.557 306.965 273.423 308.569 275.022C310.012 276.462 311.188 276.515 312.578 275.022C313.754 273.689 315.091 272.517 316.32 271.237C316.801 270.757 317.443 269.958 318.084 270.544C318.886 271.29 317.817 271.77 317.389 272.197C316.16 273.476 314.984 274.862 313.594 275.928C311.83 277.368 312.204 278.381 313.701 279.66C315.465 281.153 316.961 282.912 318.298 285.045C316.106 285.098 315.411 283.339 314.289 282.272C310.654 278.807 310.707 278.754 307.233 282.219C306.431 283.019 305.629 283.872 304.774 284.618C304.4 284.991 303.812 285.311 303.384 284.885C302.849 284.352 303.437 283.925 303.758 283.605C305.255 282.059 306.698 280.513 308.302 279.127C309.424 278.114 309.424 277.368 308.302 276.302C306.538 274.649 304.934 272.89 303.277 271.184C303.277 271.184 303.277 270.917 303.224 270.224Z" fill="#ECECEC"/>
<path d="M461.984 132.041C460.007 130.495 457.548 129.429 456.158 127.243C455.089 125.59 454.394 125.964 453.325 127.083C451.775 128.683 450.171 130.229 448.621 131.775C448.247 132.148 447.659 132.468 447.231 131.988C446.696 131.455 447.338 131.028 447.659 130.655C449.155 129.109 450.599 127.563 452.202 126.177C453.485 125.004 453.432 124.098 452.202 122.872C450.599 121.272 448.193 120.259 448.086 117.221C449.797 118.927 451.561 120.526 453.164 122.285C454.234 123.458 454.982 123.618 456.104 122.338C457.494 120.739 459.098 119.3 460.595 117.807C460.969 117.434 461.503 117.114 461.984 117.54C462.519 118.074 461.931 118.5 461.61 118.82C460.114 120.366 458.67 121.912 457.067 123.298C455.944 124.311 455.998 125.057 457.067 126.124C458.777 127.989 460.808 129.589 461.984 132.041Z" fill="#ECECEC"/>
<path d="M399.549 156.085C401.741 156.991 403.131 158.857 404.734 160.456C406.071 161.789 407.033 161.789 408.262 160.403C409.652 158.91 411.149 157.471 412.592 156.085C412.967 155.711 413.394 155.125 413.929 155.551C414.57 156.085 414.089 156.671 413.661 157.151C412.218 158.59 410.882 160.136 409.332 161.469C407.728 162.802 407.995 163.708 409.385 165.041C411.096 166.64 412.967 168.133 413.982 170.372C411.791 169.412 410.294 167.6 408.797 165.894C407.3 164.188 406.231 164.188 404.841 165.947C403.665 167.387 402.222 168.613 400.886 169.892C400.512 170.212 400.084 170.852 399.603 170.265C399.175 169.786 399.496 169.252 399.924 168.879C401.313 167.493 402.596 166 404.093 164.774C405.59 163.548 405.75 162.642 404.146 161.256C402.329 159.71 400.565 158.217 399.549 156.085Z" fill="#ECECEC"/>
<path d="M351.066 169.999C352.776 168.293 354.38 166.534 356.197 164.934C357.587 163.708 357.641 162.802 356.197 161.576C354.594 160.19 353.15 158.59 351.654 157.044C351.279 156.671 350.959 156.085 351.386 155.658C351.921 155.125 352.349 155.711 352.723 156.085C354.326 157.631 355.93 159.177 357.427 160.776C358.442 161.842 359.351 161.842 360.313 160.776C361.864 159.017 363.467 157.257 365.392 155.818C365.338 158.004 363.681 158.91 362.505 160.136C359.672 163.068 359.618 163.015 362.452 165.841C363.521 166.907 364.59 167.973 365.605 169.093C365.98 169.519 366.247 170.052 365.712 170.479C365.285 170.799 364.91 170.372 364.59 170.052C362.986 168.506 361.382 166.96 359.886 165.361C358.924 164.348 358.229 164.401 357.266 165.414C355.502 167.28 353.632 169.039 351.814 170.905C351.6 170.479 351.333 170.212 351.066 169.999Z" fill="#ECECEC"/>
<path d="M413.715 361.92C411.684 360.693 410.187 358.881 408.637 357.122C407.193 355.469 406.231 355.682 404.841 357.175C403.291 358.881 401.741 360.64 399.817 361.92C399.656 361.76 399.496 361.6 399.282 361.44C400.832 359.627 402.169 357.495 404.093 356.055C406.017 354.616 405.483 353.923 404.146 352.697C402.436 351.097 400.832 349.391 399.496 347.472C401.794 348.379 403.291 350.191 404.788 351.844C406.338 353.55 407.3 353.39 408.797 351.79C410.294 350.138 411.577 348.165 413.982 347.419C413.073 349.498 411.309 350.938 409.706 352.324C407.888 353.923 407.621 355.096 409.652 356.642C411.416 357.975 412.966 359.521 414.624 360.96C414.303 361.28 413.982 361.6 413.715 361.92Z" fill="#ECECEC"/>
<path d="M317.549 171.012C316.16 169.466 314.823 167.813 313.327 166.32C310.814 163.761 310.814 163.815 308.141 166.374C306.645 167.813 305.415 169.572 303.33 170.372C304.293 168.186 306.11 166.694 307.821 165.201C309.692 163.548 309.692 162.322 307.767 160.723C306.11 159.39 304.667 157.844 302.956 156.191C304.4 155.498 304.881 156.404 305.469 156.938C307.34 158.484 308.729 161.736 310.868 161.522C312.739 161.362 314.342 158.484 316.053 156.831C316.534 156.351 317.015 155.711 318.512 155.925C316.641 157.791 315.091 159.497 313.433 161.043C311.883 162.429 311.776 163.495 313.38 164.934C315.197 166.534 316.801 168.346 318.512 170.052C318.298 170.319 317.924 170.639 317.549 171.012Z" fill="#ECECEC"/>
<path d="M462.145 362.133C459.739 360.587 458.189 358.668 456.479 356.908C455.142 355.522 454.073 355.309 452.79 356.855C451.24 358.774 449.583 360.587 447.605 362.08C447.338 359.894 448.995 359.147 450.011 358.081C454.234 353.603 454.287 354.883 450.011 350.458C449.102 349.551 447.926 348.858 447.391 347.099C449.316 347.686 450.171 349.072 451.24 350.138C454.661 353.443 454.608 353.496 458.082 350.031C458.831 349.285 459.579 348.539 460.327 347.792C460.755 347.366 461.236 346.886 462.519 347.632C461.022 348.965 459.633 350.138 458.35 351.417C455.41 354.296 455.41 354.296 458.403 357.282C459.633 358.561 460.862 359.841 462.091 361.12C462.145 361.227 462.091 361.44 462.145 362.133Z" fill="#ECECEC"/>
<path d="M461.877 170.532C460.434 170.105 459.632 168.773 458.617 167.76C454.554 163.761 454.554 163.761 450.438 167.866C449.476 168.826 448.674 170.052 446.803 170.798C447.872 168.24 449.797 167.12 451.24 165.574C453.752 162.908 453.806 162.962 451.293 160.403C450.064 159.123 448.834 157.844 447.658 156.564C447.605 156.511 447.712 156.244 447.872 155.445C449.797 157.364 451.614 158.963 453.164 160.776C454.287 162.055 454.982 161.949 456.104 160.776C457.868 159.017 459.365 156.938 461.61 155.658C461.824 155.818 461.984 156.031 462.198 156.191C460.541 157.897 458.884 159.603 457.12 161.202C455.73 162.482 455.784 163.442 457.12 164.668C458.937 166.374 460.648 168.186 462.412 169.946C462.252 170.159 462.038 170.319 461.877 170.532Z" fill="#ECECEC"/>
<path d="M303.865 346.939C306.057 348.219 307.66 350.298 309.371 352.11C310.547 353.337 311.242 353.283 312.311 352.057C313.808 350.245 315.465 348.539 317.443 346.3C318.031 348.432 316.961 348.912 316.427 349.498C311.723 354.35 311.723 354.296 316.534 359.201C317.229 359.894 318.298 360.427 318.458 362.133C316.106 360.8 314.609 358.934 313.113 357.282C311.456 355.469 310.226 355.256 308.676 357.282C307.286 359.094 305.736 360.8 303.865 362.133C303.812 359.841 305.522 358.988 306.698 357.762C310.44 353.87 310.493 354.776 306.645 350.938C305.522 349.818 304.239 348.912 303.063 347.846C303.277 347.526 303.544 347.259 303.865 346.939Z" fill="#ECECEC"/>
<path d="M447.659 194.415C449.904 195.322 451.24 197.188 452.844 198.787C454.18 200.12 455.089 200.12 456.372 198.734C458.082 196.921 459.9 195.215 461.931 193.722C461.29 196.015 459.365 197.188 457.922 198.734C455.463 201.293 455.463 201.239 457.869 203.745C459.365 205.291 461.183 206.57 462.038 208.703C459.846 207.743 458.35 205.931 456.853 204.225C455.196 202.359 453.913 202.306 452.363 204.278C451.133 205.824 449.69 207.264 447.979 208.49C448.033 206.357 449.743 205.451 450.919 204.225C453.753 201.293 453.753 201.346 450.973 198.52C449.743 197.241 448.3 196.228 447.659 194.415Z" fill="#ECECEC"/>
<path d="M318.458 194.469C316.427 196.495 314.823 198.254 313.059 199.853C311.83 200.973 311.776 201.666 313.059 202.785C314.877 204.385 316.48 206.144 317.924 208.116C316.267 208.01 315.518 206.73 314.556 205.771C310.28 201.666 311.456 201.666 307.126 205.877C306.11 206.89 305.095 207.85 304.025 208.809C303.919 208.916 303.705 208.809 303.117 208.809C304.4 206.57 306.271 205.078 307.928 203.585C309.799 201.932 309.905 200.706 307.928 199.107C306.164 197.721 304.453 196.121 303.063 194.309C304.774 193.776 305.255 194.949 306.003 195.642C310.921 200.44 310.868 200.44 315.732 195.748C316.213 195.162 316.587 194.202 318.458 194.469Z" fill="#ECECEC"/>
<path d="M350.638 131.135C352.563 129.482 354.487 127.83 356.465 126.23C357.641 125.271 357.534 124.471 356.465 123.458C354.594 121.752 352.883 119.886 351.387 117.807C353.578 118.553 355.021 120.313 356.465 121.965C358.068 123.778 359.244 124.044 360.795 122.019C362.131 120.259 363.574 118.66 365.338 117.274C366.087 118.98 364.857 119.353 364.323 120.099C362.933 121.805 360.1 122.978 360.153 124.951C360.207 126.923 362.933 128.149 364.376 129.802C364.964 130.495 365.819 130.975 366.033 131.935C365.819 132.094 365.659 132.308 365.445 132.468C363.681 130.708 361.864 129.002 360.153 127.19C359.031 126.017 358.282 125.964 357.16 127.19C355.449 129.056 353.632 130.762 351.868 132.521C351.44 131.988 351.066 131.561 350.638 131.135Z" fill="#ECECEC"/>
<path d="M413.982 132.414C411.523 130.762 409.919 128.789 408.155 126.977C407.086 125.91 406.391 125.91 405.322 126.977C403.558 128.789 401.955 130.762 399.549 131.988C400.458 129.909 402.169 128.469 403.772 127.03C405.536 125.484 405.91 124.258 403.826 122.712C402.062 121.379 400.511 119.886 399.175 118.074C401.42 118.074 402.275 119.726 403.505 120.899C406.712 123.991 406.712 124.044 409.866 120.792C411.042 119.62 412.004 118.287 413.501 116.528C414.249 118.713 413.127 119.087 412.592 119.673C411.095 121.432 408.262 122.712 408.155 124.738C408.102 126.817 411.042 128.043 412.485 129.802C413.073 130.495 414.036 130.815 413.982 132.414Z" fill="#ECECEC"/>
<path d="M413.929 323.322C412.218 322.789 411.256 321.403 410.08 320.284C406.712 317.032 406.712 316.978 403.345 320.39C402.275 321.51 401.367 322.789 400.351 324.015C400.03 323.696 399.71 323.429 399.335 323.109C399.923 321.67 401.313 320.763 402.382 319.697C405.91 316.125 405.91 316.179 402.382 312.607C401.313 311.541 399.923 310.688 399.229 308.715C401.206 309.355 402.008 310.741 403.077 311.754C406.712 315.272 406.659 315.326 410.401 311.647C411.416 310.634 412.271 309.355 414.463 308.448C412.913 311.114 411.095 312.607 409.385 314.099C407.728 315.592 407.728 316.605 409.385 318.098C411.149 319.644 412.913 321.137 413.929 323.322Z" fill="#ECECEC"/>
<path d="M351.493 361.706C352.028 360 353.418 359.041 354.54 357.868C357.801 354.563 357.854 354.509 354.433 351.151C353.311 350.031 352.028 349.125 351.226 347.686C353.097 347.792 354.006 349.178 355.128 350.245C358.71 353.763 358.656 353.763 362.238 350.245C363.307 349.178 364.483 348.165 365.819 347.366C364.964 349.605 363.147 350.991 361.543 352.484C359.832 354.03 359.565 355.096 361.489 356.642C363.2 358.081 364.697 359.787 365.98 361.653C363.681 360.8 362.184 358.934 360.688 357.282C359.191 355.629 358.175 355.629 356.732 357.282C355.128 358.934 353.685 360.747 351.493 361.706Z" fill="#ECECEC"/>
<path d="M351.493 270.597C353.845 271.824 355.449 273.849 357.213 275.609C358.282 276.675 358.977 276.675 360.046 275.609C361.81 273.796 363.414 271.824 365.926 270.171C365.873 271.983 364.643 272.57 363.895 273.316C359.512 277.794 359.458 277.741 364.002 282.326C364.75 283.072 365.712 283.605 366.14 285.418C364.216 284.565 363.307 283.179 362.184 282.113C358.603 278.594 358.656 278.594 355.075 282.113C354.006 283.179 353.15 284.565 351.173 285.258C351.814 283.286 353.204 282.486 354.22 281.42C357.748 277.794 357.801 277.848 354.113 274.116C353.15 273.05 351.868 272.25 351.493 270.597Z" fill="#ECECEC"/>
<path d="M351.868 308.608C353.632 310.368 355.449 312.074 357.16 313.886C358.282 315.112 359.031 315.112 360.153 313.886C361.81 312.074 363.681 310.368 365.712 308.822C365.445 310.688 364.002 311.594 362.879 312.713C359.512 316.179 359.512 316.125 362.986 319.644C364.055 320.763 365.392 321.67 365.873 323.269C363.681 322.363 362.184 320.497 360.688 318.844C359.191 317.192 358.175 317.192 356.678 318.844C355.182 320.497 353.685 322.309 351.386 323.696C351.44 321.936 352.669 321.35 353.418 320.55C357.801 316.072 357.854 316.125 353.311 311.541C352.562 310.794 351.6 310.261 351.333 309.142C351.493 309.035 351.707 308.822 351.868 308.608Z" fill="#ECECEC"/>
<path d="M306.805 235.732C308.409 235.572 309.905 236.638 311.563 236.158C312.685 236.691 313.754 237.171 314.877 237.704C311.616 239.357 311.616 239.57 314.289 242.342C315.518 243.622 317.122 244.688 317.763 246.607C315.625 245.648 314.075 243.835 312.578 242.129C311.188 240.583 310.333 240.69 309.05 242.182C307.928 243.568 306.591 244.741 305.308 245.968C304.827 246.447 304.186 247.247 303.544 246.661C302.742 245.968 303.812 245.434 304.186 245.008C305.415 243.728 306.591 242.396 307.981 241.276C309.478 240.05 309.745 238.984 308.034 237.704C307.393 237.224 306.805 236.638 306.805 235.732Z" fill="#ECECEC"/>
<path d="M408.904 241.863C408.369 241.969 407.835 242.129 407.354 242.236C406.873 240.317 405.964 241.116 405.109 241.916C403.345 243.569 401.688 245.328 399.71 246.767C400.298 244.475 402.115 243.195 403.665 241.809C405.643 240.103 405.322 238.984 403.558 237.544C402.276 236.478 401.153 235.199 399.977 233.973C399.549 233.546 398.961 232.96 399.496 232.373C400.137 231.68 400.565 232.533 400.993 232.906C402.382 234.239 403.826 235.572 405.109 237.065C406.231 238.344 407.14 238.504 408.316 237.118C409.866 235.252 411.577 233.439 413.608 232C413.448 234.186 411.791 235.252 410.508 236.425C408.797 237.971 407.407 239.464 408.904 241.863Z" fill="#ECECEC"/>
<path d="M349.088 247.034C347.431 244.315 344.812 242.769 342.139 241.223C341.551 240.903 340.268 240.796 340.803 239.73C341.23 238.93 342.085 239.677 342.673 239.943C345.346 241.329 347.965 242.875 349.676 245.434C350.424 246.554 351.119 246.501 352.081 246.287C351.868 246.767 351.654 247.194 351.493 247.674C350.692 247.46 349.89 247.247 349.088 247.034Z" fill="#082223"/>
<path d="M297.13 381.218C294.724 381.858 292.639 383.511 289.646 383.884C291.089 381.538 293.655 381.911 295.045 380.365C295.847 380.419 297.023 379.406 297.13 381.218Z" fill="#082223"/>
<path d="M294.243 379.619C291.838 380.206 289.753 381.858 286.653 382.231C288.524 379.886 291.196 379.939 292.907 378.553C293.762 378.393 294.297 378.66 294.243 379.619Z" fill="#082223"/>
<path d="M302.529 210.036C301.299 209.343 301.192 208.117 301.192 206.89C302.368 207.637 302.368 208.863 302.529 210.036Z" fill="#ECECEC"/>
<path d="M298.84 198.361C298.145 197.614 297.878 196.708 297.932 195.748C299.001 196.335 299.428 197.188 298.84 198.361Z" fill="#ECECEC"/>
<path d="M297.611 193.776C297.076 193.509 296.702 193.189 296.916 192.496C297.611 192.656 297.718 193.136 297.611 193.776Z" fill="#ECECEC"/>
<path d="M299.749 200.706C299.214 200.44 298.787 200.12 299.108 199.427C299.749 199.587 299.856 200.066 299.749 200.706Z" fill="#ECECEC"/>
<path d="M296.542 190.577C296.007 190.311 295.633 189.991 295.793 189.298C296.542 189.458 296.649 189.937 296.542 190.577Z" fill="#ECECEC"/>
<path d="M290.608 176.236C290.074 175.97 289.7 175.597 289.753 174.957C290.608 175.01 290.769 175.543 290.608 176.236Z" fill="#ECECEC"/>
<path d="M412.111 241.543C411.951 241.756 411.79 242.023 411.63 242.236C411.416 242.129 411.256 242.076 411.042 241.969C411.363 241.809 411.737 241.703 412.111 241.543Z" fill="#ECECEC"/>
<path d="M291.25 177.676C291.143 177.462 290.982 177.302 290.875 177.089C290.982 177.249 291.143 177.462 291.25 177.676Z" fill="#ECECEC"/>
<path d="M340.963 228.375C340.802 228.428 340.642 228.481 340.482 228.481C340.535 228.215 340.589 227.948 340.642 227.682C340.749 227.948 340.856 228.162 340.963 228.375Z" fill="#ECECEC"/>
<path d="M335.136 224.483C334.922 224.323 334.708 224.216 334.495 224.057C334.708 224.163 334.922 224.323 335.136 224.483Z" fill="#ECECEC"/>
<path d="M317.977 216.913C317.817 216.806 317.603 216.646 317.443 216.54C317.656 216.646 317.817 216.806 317.977 216.913Z" fill="#ECECEC"/>
<path d="M306.271 211.688C306.057 211.528 305.843 211.422 305.629 211.262C305.843 211.368 306.057 211.528 306.271 211.688Z" fill="#ECECEC"/>
<path d="M282.857 223.257C282.216 225.229 283.445 227.362 282.163 229.228C281.414 222.99 279.543 217.02 278.207 210.889C277.352 206.997 276.282 203.159 275.374 199.32C275.267 198.894 275.481 198.414 275.641 197.081C278.421 203.798 280.826 209.876 283.82 215.687C283.232 218.192 282.911 220.698 282.857 223.257Z" fill="#082223"/>
<path d="M280.345 154.165C280.024 155.551 279.757 156.938 279.436 158.324C278.26 158.11 277.458 157.364 276.603 156.618C275.16 154.592 273.716 152.619 272.22 150.594C274.946 151.873 277.619 153.099 280.345 154.165Z" fill="#082223"/>
<path d="M282.857 223.257C282.857 220.698 283.178 218.192 283.766 215.74C285.423 218.139 286.706 220.698 287.829 223.364C286.225 223.31 284.568 223.257 282.857 223.257Z" fill="#DEEAF6"/>
<path d="M300.498 211.528C297.771 213.181 295.045 214.78 292.372 216.433C292.159 216.113 291.998 215.793 291.784 215.42C294.511 213.768 297.29 212.115 300.016 210.409C300.123 210.835 300.284 211.155 300.498 211.528Z" fill="#082223"/>
<path d="M215.932 392.467C215.665 392.414 215.397 392.307 215.184 392.254C216.306 387.616 217.429 382.924 218.551 378.286C225.073 377.807 231.648 378.18 238.223 378.073C241.163 378.02 244.049 378.126 246.989 378.126C246.668 378.553 246.348 378.979 245.974 379.406C244.37 380.685 241.858 380.632 240.521 382.391C240.628 382.605 240.735 382.871 240.842 383.084C243.14 382.071 245.386 381.112 247.684 380.099C248.219 380.365 248.753 380.632 249.234 380.899C247.417 382.125 244.904 382.285 243.461 384.257C246.08 383.991 248.272 382.711 250.571 381.752C251.747 382.391 252.816 383.191 254.045 383.671C258.108 385.163 259.605 388.256 259.765 392.307V392.467C245.172 392.414 230.579 392.414 215.932 392.467Z" fill="#BAE1E2"/>
<path d="M218.551 378.286C217.429 382.924 216.306 387.616 215.183 392.254C214.863 392.361 214.595 392.414 214.275 392.52C213.099 392.52 211.869 392.52 210.693 392.52C210.373 392.467 210.105 392.414 209.785 392.414C209.517 392.254 209.303 392.094 209.036 391.934C206.47 390.814 204.599 388.895 203.156 386.55C200.697 378.713 203.584 372.422 210.479 370.396C213.259 369.597 215.932 370.023 218.498 371.089C218.658 373.008 217.749 374.661 217.375 376.474C217.108 377.7 217.589 378.02 218.551 378.286Z" fill="#082223"/>
<path d="M248.058 375.941C248.005 376.1 247.951 376.26 247.844 376.474C247.844 376.314 247.791 376.207 247.791 376.047C247.844 375.994 247.951 375.994 248.058 375.941Z" fill="#A7A7A7"/>
<path d="M203.156 386.496C204.599 388.842 206.47 390.761 209.036 391.881C209.036 392.041 209.036 392.201 209.036 392.414C208.876 392.414 208.662 392.414 208.502 392.467C201.232 392.414 193.908 392.414 186.639 392.36C185.676 392.36 184.714 392.254 183.699 392.254C183.164 390.388 182.683 388.522 182.148 386.656C189.151 386.603 196.154 386.55 203.156 386.496Z" fill="#36C9CC"/>
<path d="M352.188 244.208C349.516 241.436 347.431 238.184 343.689 235.625C347.003 235.892 351.707 240.903 352.188 244.208Z" fill="#082223"/>
<path d="M355.128 240.796C352.456 238.077 350.317 234.932 347.217 232.64C350.104 232.96 354.647 237.758 355.128 240.796Z" fill="#082223"/>
<path d="M245.973 379.406C246.722 379.193 247.577 378.819 247.684 380.099C245.385 381.112 243.14 382.071 240.842 383.084C240.735 382.871 240.628 382.604 240.521 382.391C241.857 380.579 244.316 380.685 245.973 379.406Z" fill="#082223"/>
<path d="M249.288 380.898C250.036 380.685 250.624 380.739 250.624 381.751C248.272 382.711 246.08 384.044 243.515 384.257C244.958 382.285 247.417 382.125 249.288 380.898Z" fill="#082223"/>
<path d="M295.152 374.874C294.885 354.03 294.671 333.185 294.511 312.34C294.457 308.395 294.029 304.557 293.067 300.772C290.983 292.615 289.005 284.458 286.973 276.248C286.92 276.088 286.866 275.929 286.76 275.769C286.546 274.862 286.332 274.009 286.118 273.103C283.285 263.933 280.933 254.657 278.528 245.381C272.113 244.741 265.645 244.422 259.177 244.048C251.319 243.569 243.461 242.822 235.603 242.662C235.817 250.659 236.084 258.602 236.245 266.599C236.405 274.596 236.619 282.539 236.619 290.536C236.619 295.814 237.26 301.145 235.71 306.369C234 312.127 232.717 318.044 231.06 323.855C229.777 328.44 229.028 333.185 227.157 337.556C227.104 338.249 227.157 338.996 226.997 339.636C225.768 344.327 224.538 348.965 223.255 353.603C222.453 356.482 222.133 359.467 220.743 362.133C220.582 365.278 219.513 368.157 218.498 371.089C218.658 373.008 217.749 374.661 217.375 376.474C217.108 377.7 217.589 378.02 218.551 378.286C225.073 377.807 231.648 378.18 238.223 378.073C241.163 378.02 244.049 378.126 246.989 378.126L247.096 378.073C247.256 377.913 247.417 377.7 247.577 377.54C247.684 377.167 247.791 376.794 247.898 376.474C247.898 376.314 247.844 376.207 247.844 376.047C247.844 375.994 248.005 375.994 248.058 375.941C249.288 370.769 250.09 365.492 251.854 360.48C255.97 359.894 259.925 358.721 263.881 357.495C263.934 357.761 263.988 358.081 264.041 358.348C264.202 364.905 264.309 371.462 263.827 378.02C264.255 378.713 265.003 378.553 265.591 378.766C274.679 378.393 283.766 377.966 292.853 377.593C294.992 377.86 295.152 376.634 295.152 374.874ZM264.843 308.715C264.736 321.03 264.576 333.398 264.415 345.713C264.415 346.246 264.309 346.779 264.309 347.312C260.941 348.379 257.627 349.765 254.152 350.351C254.954 344.753 256.611 339.369 257.734 333.825C258.268 331.319 258.749 328.813 259.284 326.308C259.391 326.148 259.498 325.935 259.605 325.775C261.208 319.057 262.758 312.34 264.362 305.623C265.164 306.529 264.843 307.649 264.843 308.715Z" fill="#079093"/>
<path d="M244.958 267.932L264.255 305.623L259.497 325.775C259.551 325.775 242.926 269.478 244.958 267.932Z" fill="#082223"/>
</g>
<defs>
<clipPath id="clip0_93_122">
<rect width="393" height="388" fill="white" transform="translate(111 5.00024)"/>
</clipPath>
</defs>
</svg>
