<svg width="24" height="24" viewBox="0 0 24 24" fill="none" xmlns="http://www.w3.org/2000/svg">
<g clip-path="url(#clip0_1_589)">
<g clip-path="url(#clip1_1_589)">
<path d="M11 6.99999C15.4183 6.99999 19 10.5817 19 15C19 19.4183 15.4183 23 11 23C6.58172 23 3 19.4183 3 15C3 10.5817 6.58172 6.99999 11 6.99999ZM11 8.99999C7.68629 8.99999 5 11.6863 5 15C5 18.3137 7.68629 21 11 21C14.3137 21 17 18.3137 17 15C17 11.6863 14.3137 8.99999 11 8.99999ZM11 10.5L12.3225 13.1797L15.2798 13.6094L13.1399 15.6953L13.645 18.6406L11 17.25L8.35497 18.6406L8.86012 15.6953L6.72025 13.6094L9.6775 13.1797L11 10.5ZM17 1.99999V4.99999L15.6366 6.13755C14.5305 5.5577 13.3025 5.17884 12.0011 5.04948L12 1.99899L17 1.99999ZM10 1.99899L9.9997 5.04939C8.6984 5.17863 7.47046 5.55735 6.36441 6.13703L5 4.99999V1.99999L10 1.99899Z" fill="#39AAB2"/>
</g>
</g>
<defs>
<clipPath id="clip0_1_589">
<rect width="24" height="24" fill="white" transform="matrix(1 0 0 -1 0 24)"/>
</clipPath>
<clipPath id="clip1_1_589">
<rect width="24" height="24" fill="white"/>
</clipPath>
</defs>
</svg>
